M48
; DRILL file KiCad 10.0.5 date 2026-08-07T12:17:41
; FORMAT={-:-/ absolute / metric / decimal}
; #@! TF.CreationDate,2026-08-07T12:17:41-07:00
; #@! TF.GenerationSoftware,Kicad,Pcbnew,10.0.5
; #@! TF.FileFunction,Plated,1,4,PTH
FMAT,2
METRIC
; #@! TA.AperFunction,Plated,PTH,ViaDrill
T1C0.300
; #@! TA.AperFunction,Plated,PTH,ComponentDrill
T2C1.000
; #@! TA.AperFunction,Plated,PTH,ComponentDrill
T3C1.075
; #@! TA.AperFunction,Plated,PTH,ViaDrill
T4C5.800
%
G90
G05
T1
X39.4Y-136.2
X40.8Y-123.8
X40.8Y-135.4
X41.75Y-132.25
X42.0Y-95.0
X42.5Y-91.0
X42.8Y-131.6
X43.2Y-122.4
X43.5Y-75.5
X44.0Y-130.5
X45.5Y-105.5
X46.0Y-94.0
X46.0Y-97.5
X46.5Y-140.5
X49.5Y-88.0
X55.0Y-129.4
X55.25Y-93.25
X55.8Y-123.8
X59.0Y-140.8
X64.0Y-64.0
X66.0Y-70.0
X68.75Y-115.0
X69.75Y-79.75
X71.75Y-74.75
X72.0Y-110.0
X72.0Y-110.75
X72.0Y-111.5
X72.0Y-112.25
X72.5Y-88.0
X73.0Y-110.0
X73.0Y-110.75
X73.0Y-111.5
X73.0Y-112.25
X74.0Y-110.0
X74.0Y-110.75
X74.0Y-111.5
X74.0Y-112.25
X74.0Y-114.5
X76.5Y-104.0
X76.75Y-87.25
X78.5Y-83.5
X78.5Y-103.5
X80.5Y-72.75
X84.0Y-87.0
X85.0Y-101.5
X87.4Y-88.8
X87.5Y-98.0
X88.0Y-95.0
X91.5Y-96.5
X94.0Y-126.5
X94.0Y-127.5
X94.0Y-128.5
X94.0Y-129.5
X94.0Y-130.5
X94.75Y-100.25
X95.0Y-126.5
X95.0Y-127.5
X95.0Y-128.5
X95.0Y-129.5
X95.0Y-130.5
X96.0Y-126.5
X96.0Y-127.5
X96.0Y-128.5
X96.0Y-129.5
X96.0Y-130.5
X97.0Y-126.5
X97.0Y-127.5
X97.0Y-128.5
X97.0Y-129.5
X97.0Y-130.5
X97.75Y-96.0
X98.0Y-126.5
X98.0Y-127.5
X98.0Y-128.5
X98.0Y-129.5
X98.0Y-130.5
X102.25Y-99.75
X104.5Y-94.0
T2
X52.34Y-57.62
X52.34Y-60.16
X52.34Y-62.7
X52.34Y-65.24
X52.34Y-67.78
X52.34Y-70.32
X52.34Y-72.86
X52.34Y-75.4
X52.34Y-77.94
X52.34Y-80.48
X54.88Y-57.62
X54.88Y-60.16
X54.88Y-62.7
X54.88Y-65.24
X54.88Y-67.78
X54.88Y-70.32
X54.88Y-72.86
X54.88Y-75.4
X54.88Y-77.94
X54.88Y-80.48
X57.5Y-126.88
X57.5Y-129.42
X57.5Y-131.96
X57.5Y-134.5
X57.5Y-137.04
X95.52Y-57.62
X95.52Y-60.16
X95.52Y-62.7
X95.52Y-65.24
X95.52Y-67.78
X95.52Y-70.32
X95.52Y-72.86
X95.52Y-75.4
X95.52Y-77.94
X95.52Y-80.48
X98.06Y-57.62
X98.06Y-60.16
X98.06Y-62.7
X98.06Y-65.24
X98.06Y-67.78
X98.06Y-70.32
X98.06Y-72.86
X98.06Y-75.4
X98.06Y-77.94
X98.06Y-80.48
T3
X46.185Y-116.92
X48.725Y-116.92
X51.265Y-116.92
X53.805Y-116.92
T4
X108.0Y-106.0
X108.0Y-125.0
M30
