%TF.GenerationSoftware,KiCad,Pcbnew,10.0.5*%
%TF.CreationDate,2026-08-07T12:17:38-07:00*%
%TF.ProjectId,LLC GaN Protoboard,4c4c4320-4761-44e2-9050-726f746f626f,rev?*%
%TF.SameCoordinates,Original*%
%TF.FileFunction,Legend,Top*%
%TF.FilePolarity,Positive*%
%FSLAX46Y46*%
G04 Gerber Fmt 4.6, Leading zero omitted, Abs format (unit mm)*
G04 Created by KiCad (PCBNEW 10.0.5) date 2026-08-07 12:17:38*
%MOMM*%
%LPD*%
G01*
G04 APERTURE LIST*
%ADD10C,1.000000*%
%ADD11C,0.100000*%
%ADD12C,0.300000*%
%ADD13C,0.254000*%
%ADD14C,0.150000*%
%ADD15C,0.200000*%
%ADD16C,0.120000*%
%ADD17C,0.127000*%
%ADD18C,0.152400*%
G04 APERTURE END LIST*
D10*
X93500000Y-130500000D02*
X100500000Y-130500000D01*
D11*
X104053884Y-141872419D02*
X104053884Y-140872419D01*
X104053884Y-141253371D02*
X104149122Y-141205752D01*
X104149122Y-141205752D02*
X104339598Y-141205752D01*
X104339598Y-141205752D02*
X104434836Y-141253371D01*
X104434836Y-141253371D02*
X104482455Y-141300990D01*
X104482455Y-141300990D02*
X104530074Y-141396228D01*
X104530074Y-141396228D02*
X104530074Y-141681942D01*
X104530074Y-141681942D02*
X104482455Y-141777180D01*
X104482455Y-141777180D02*
X104434836Y-141824800D01*
X104434836Y-141824800D02*
X104339598Y-141872419D01*
X104339598Y-141872419D02*
X104149122Y-141872419D01*
X104149122Y-141872419D02*
X104053884Y-141824800D01*
X104815789Y-141205752D02*
X105196741Y-141205752D01*
X104958646Y-140872419D02*
X104958646Y-141729561D01*
X104958646Y-141729561D02*
X105006265Y-141824800D01*
X105006265Y-141824800D02*
X105101503Y-141872419D01*
X105101503Y-141872419D02*
X105196741Y-141872419D01*
X105958646Y-141872419D02*
X105958646Y-141348609D01*
X105958646Y-141348609D02*
X105911027Y-141253371D01*
X105911027Y-141253371D02*
X105815789Y-141205752D01*
X105815789Y-141205752D02*
X105625313Y-141205752D01*
X105625313Y-141205752D02*
X105530075Y-141253371D01*
X105958646Y-141824800D02*
X105863408Y-141872419D01*
X105863408Y-141872419D02*
X105625313Y-141872419D01*
X105625313Y-141872419D02*
X105530075Y-141824800D01*
X105530075Y-141824800D02*
X105482456Y-141729561D01*
X105482456Y-141729561D02*
X105482456Y-141634323D01*
X105482456Y-141634323D02*
X105530075Y-141539085D01*
X105530075Y-141539085D02*
X105625313Y-141491466D01*
X105625313Y-141491466D02*
X105863408Y-141491466D01*
X105863408Y-141491466D02*
X105958646Y-141443847D01*
X106434837Y-141205752D02*
X106434837Y-141872419D01*
X106434837Y-141300990D02*
X106482456Y-141253371D01*
X106482456Y-141253371D02*
X106577694Y-141205752D01*
X106577694Y-141205752D02*
X106720551Y-141205752D01*
X106720551Y-141205752D02*
X106815789Y-141253371D01*
X106815789Y-141253371D02*
X106863408Y-141348609D01*
X106863408Y-141348609D02*
X106863408Y-141872419D01*
X107768170Y-141205752D02*
X107768170Y-142205752D01*
X107768170Y-141824800D02*
X107672932Y-141872419D01*
X107672932Y-141872419D02*
X107482456Y-141872419D01*
X107482456Y-141872419D02*
X107387218Y-141824800D01*
X107387218Y-141824800D02*
X107339599Y-141777180D01*
X107339599Y-141777180D02*
X107291980Y-141681942D01*
X107291980Y-141681942D02*
X107291980Y-141396228D01*
X107291980Y-141396228D02*
X107339599Y-141300990D01*
X107339599Y-141300990D02*
X107387218Y-141253371D01*
X107387218Y-141253371D02*
X107482456Y-141205752D01*
X107482456Y-141205752D02*
X107672932Y-141205752D01*
X107672932Y-141205752D02*
X107768170Y-141253371D01*
X108149123Y-141205752D02*
X108387218Y-141872419D01*
X108625313Y-141205752D02*
X108387218Y-141872419D01*
X108387218Y-141872419D02*
X108291980Y-142110514D01*
X108291980Y-142110514D02*
X108244361Y-142158133D01*
X108244361Y-142158133D02*
X108149123Y-142205752D01*
X109720552Y-140967657D02*
X109768171Y-140920038D01*
X109768171Y-140920038D02*
X109863409Y-140872419D01*
X109863409Y-140872419D02*
X110101504Y-140872419D01*
X110101504Y-140872419D02*
X110196742Y-140920038D01*
X110196742Y-140920038D02*
X110244361Y-140967657D01*
X110244361Y-140967657D02*
X110291980Y-141062895D01*
X110291980Y-141062895D02*
X110291980Y-141158133D01*
X110291980Y-141158133D02*
X110244361Y-141300990D01*
X110244361Y-141300990D02*
X109672933Y-141872419D01*
X109672933Y-141872419D02*
X110291980Y-141872419D01*
X110911028Y-140872419D02*
X111006266Y-140872419D01*
X111006266Y-140872419D02*
X111101504Y-140920038D01*
X111101504Y-140920038D02*
X111149123Y-140967657D01*
X111149123Y-140967657D02*
X111196742Y-141062895D01*
X111196742Y-141062895D02*
X111244361Y-141253371D01*
X111244361Y-141253371D02*
X111244361Y-141491466D01*
X111244361Y-141491466D02*
X111196742Y-141681942D01*
X111196742Y-141681942D02*
X111149123Y-141777180D01*
X111149123Y-141777180D02*
X111101504Y-141824800D01*
X111101504Y-141824800D02*
X111006266Y-141872419D01*
X111006266Y-141872419D02*
X110911028Y-141872419D01*
X110911028Y-141872419D02*
X110815790Y-141824800D01*
X110815790Y-141824800D02*
X110768171Y-141777180D01*
X110768171Y-141777180D02*
X110720552Y-141681942D01*
X110720552Y-141681942D02*
X110672933Y-141491466D01*
X110672933Y-141491466D02*
X110672933Y-141253371D01*
X110672933Y-141253371D02*
X110720552Y-141062895D01*
X110720552Y-141062895D02*
X110768171Y-140967657D01*
X110768171Y-140967657D02*
X110815790Y-140920038D01*
X110815790Y-140920038D02*
X110911028Y-140872419D01*
X111625314Y-140967657D02*
X111672933Y-140920038D01*
X111672933Y-140920038D02*
X111768171Y-140872419D01*
X111768171Y-140872419D02*
X112006266Y-140872419D01*
X112006266Y-140872419D02*
X112101504Y-140920038D01*
X112101504Y-140920038D02*
X112149123Y-140967657D01*
X112149123Y-140967657D02*
X112196742Y-141062895D01*
X112196742Y-141062895D02*
X112196742Y-141158133D01*
X112196742Y-141158133D02*
X112149123Y-141300990D01*
X112149123Y-141300990D02*
X111577695Y-141872419D01*
X111577695Y-141872419D02*
X112196742Y-141872419D01*
X113053885Y-140872419D02*
X112863409Y-140872419D01*
X112863409Y-140872419D02*
X112768171Y-140920038D01*
X112768171Y-140920038D02*
X112720552Y-140967657D01*
X112720552Y-140967657D02*
X112625314Y-141110514D01*
X112625314Y-141110514D02*
X112577695Y-141300990D01*
X112577695Y-141300990D02*
X112577695Y-141681942D01*
X112577695Y-141681942D02*
X112625314Y-141777180D01*
X112625314Y-141777180D02*
X112672933Y-141824800D01*
X112672933Y-141824800D02*
X112768171Y-141872419D01*
X112768171Y-141872419D02*
X112958647Y-141872419D01*
X112958647Y-141872419D02*
X113053885Y-141824800D01*
X113053885Y-141824800D02*
X113101504Y-141777180D01*
X113101504Y-141777180D02*
X113149123Y-141681942D01*
X113149123Y-141681942D02*
X113149123Y-141443847D01*
X113149123Y-141443847D02*
X113101504Y-141348609D01*
X113101504Y-141348609D02*
X113053885Y-141300990D01*
X113053885Y-141300990D02*
X112958647Y-141253371D01*
X112958647Y-141253371D02*
X112768171Y-141253371D01*
X112768171Y-141253371D02*
X112672933Y-141300990D01*
X112672933Y-141300990D02*
X112625314Y-141348609D01*
X112625314Y-141348609D02*
X112577695Y-141443847D01*
D12*
X104244987Y-130935352D02*
X103864034Y-130744876D01*
X103864034Y-130744876D02*
X103292606Y-130744876D01*
X103292606Y-130744876D02*
X102721177Y-130935352D01*
X102721177Y-130935352D02*
X102340225Y-131316304D01*
X102340225Y-131316304D02*
X102149748Y-131697257D01*
X102149748Y-131697257D02*
X101959272Y-132459161D01*
X101959272Y-132459161D02*
X101959272Y-133030590D01*
X101959272Y-133030590D02*
X102149748Y-133792495D01*
X102149748Y-133792495D02*
X102340225Y-134173447D01*
X102340225Y-134173447D02*
X102721177Y-134554400D01*
X102721177Y-134554400D02*
X103292606Y-134744876D01*
X103292606Y-134744876D02*
X103673558Y-134744876D01*
X103673558Y-134744876D02*
X104244987Y-134554400D01*
X104244987Y-134554400D02*
X104435463Y-134363923D01*
X104435463Y-134363923D02*
X104435463Y-133030590D01*
X104435463Y-133030590D02*
X103673558Y-133030590D01*
X106149748Y-134744876D02*
X106149748Y-130744876D01*
X106149748Y-130744876D02*
X108435463Y-134744876D01*
X108435463Y-134744876D02*
X108435463Y-130744876D01*
X110340224Y-134744876D02*
X110340224Y-130744876D01*
X110340224Y-130744876D02*
X111292605Y-130744876D01*
X111292605Y-130744876D02*
X111864034Y-130935352D01*
X111864034Y-130935352D02*
X112244986Y-131316304D01*
X112244986Y-131316304D02*
X112435463Y-131697257D01*
X112435463Y-131697257D02*
X112625939Y-132459161D01*
X112625939Y-132459161D02*
X112625939Y-133030590D01*
X112625939Y-133030590D02*
X112435463Y-133792495D01*
X112435463Y-133792495D02*
X112244986Y-134173447D01*
X112244986Y-134173447D02*
X111864034Y-134554400D01*
X111864034Y-134554400D02*
X111292605Y-134744876D01*
X111292605Y-134744876D02*
X110340224Y-134744876D01*
X104078320Y-110994876D02*
X105411653Y-114994876D01*
X105411653Y-114994876D02*
X106744987Y-110994876D01*
X108078319Y-114994876D02*
X108078319Y-110994876D01*
X109983081Y-114994876D02*
X109983081Y-110994876D01*
X109983081Y-110994876D02*
X112268796Y-114994876D01*
X112268796Y-114994876D02*
X112268796Y-110994876D01*
D13*
X80824318Y-105489762D02*
X79554318Y-105489762D01*
X80703365Y-104159285D02*
X80763842Y-104219761D01*
X80763842Y-104219761D02*
X80824318Y-104401190D01*
X80824318Y-104401190D02*
X80824318Y-104522142D01*
X80824318Y-104522142D02*
X80763842Y-104703571D01*
X80763842Y-104703571D02*
X80642889Y-104824523D01*
X80642889Y-104824523D02*
X80521937Y-104885000D01*
X80521937Y-104885000D02*
X80280032Y-104945476D01*
X80280032Y-104945476D02*
X80098603Y-104945476D01*
X80098603Y-104945476D02*
X79856699Y-104885000D01*
X79856699Y-104885000D02*
X79735746Y-104824523D01*
X79735746Y-104824523D02*
X79614794Y-104703571D01*
X79614794Y-104703571D02*
X79554318Y-104522142D01*
X79554318Y-104522142D02*
X79554318Y-104401190D01*
X79554318Y-104401190D02*
X79614794Y-104219761D01*
X79614794Y-104219761D02*
X79675270Y-104159285D01*
X79554318Y-103070714D02*
X79554318Y-103312619D01*
X79554318Y-103312619D02*
X79614794Y-103433571D01*
X79614794Y-103433571D02*
X79675270Y-103494047D01*
X79675270Y-103494047D02*
X79856699Y-103615000D01*
X79856699Y-103615000D02*
X80098603Y-103675476D01*
X80098603Y-103675476D02*
X80582413Y-103675476D01*
X80582413Y-103675476D02*
X80703365Y-103615000D01*
X80703365Y-103615000D02*
X80763842Y-103554523D01*
X80763842Y-103554523D02*
X80824318Y-103433571D01*
X80824318Y-103433571D02*
X80824318Y-103191666D01*
X80824318Y-103191666D02*
X80763842Y-103070714D01*
X80763842Y-103070714D02*
X80703365Y-103010238D01*
X80703365Y-103010238D02*
X80582413Y-102949761D01*
X80582413Y-102949761D02*
X80280032Y-102949761D01*
X80280032Y-102949761D02*
X80159080Y-103010238D01*
X80159080Y-103010238D02*
X80098603Y-103070714D01*
X80098603Y-103070714D02*
X80038127Y-103191666D01*
X80038127Y-103191666D02*
X80038127Y-103433571D01*
X80038127Y-103433571D02*
X80098603Y-103554523D01*
X80098603Y-103554523D02*
X80159080Y-103615000D01*
X80159080Y-103615000D02*
X80280032Y-103675476D01*
D14*
X43454819Y-93392857D02*
X42978628Y-93726190D01*
X43454819Y-93964285D02*
X42454819Y-93964285D01*
X42454819Y-93964285D02*
X42454819Y-93583333D01*
X42454819Y-93583333D02*
X42502438Y-93488095D01*
X42502438Y-93488095D02*
X42550057Y-93440476D01*
X42550057Y-93440476D02*
X42645295Y-93392857D01*
X42645295Y-93392857D02*
X42788152Y-93392857D01*
X42788152Y-93392857D02*
X42883390Y-93440476D01*
X42883390Y-93440476D02*
X42931009Y-93488095D01*
X42931009Y-93488095D02*
X42978628Y-93583333D01*
X42978628Y-93583333D02*
X42978628Y-93964285D01*
X43454819Y-92440476D02*
X43454819Y-93011904D01*
X43454819Y-92726190D02*
X42454819Y-92726190D01*
X42454819Y-92726190D02*
X42597676Y-92821428D01*
X42597676Y-92821428D02*
X42692914Y-92916666D01*
X42692914Y-92916666D02*
X42740533Y-93011904D01*
X43454819Y-91488095D02*
X43454819Y-92059523D01*
X43454819Y-91773809D02*
X42454819Y-91773809D01*
X42454819Y-91773809D02*
X42597676Y-91869047D01*
X42597676Y-91869047D02*
X42692914Y-91964285D01*
X42692914Y-91964285D02*
X42740533Y-92059523D01*
X71884819Y-73166666D02*
X71408628Y-73499999D01*
X71884819Y-73738094D02*
X70884819Y-73738094D01*
X70884819Y-73738094D02*
X70884819Y-73357142D01*
X70884819Y-73357142D02*
X70932438Y-73261904D01*
X70932438Y-73261904D02*
X70980057Y-73214285D01*
X70980057Y-73214285D02*
X71075295Y-73166666D01*
X71075295Y-73166666D02*
X71218152Y-73166666D01*
X71218152Y-73166666D02*
X71313390Y-73214285D01*
X71313390Y-73214285D02*
X71361009Y-73261904D01*
X71361009Y-73261904D02*
X71408628Y-73357142D01*
X71408628Y-73357142D02*
X71408628Y-73738094D01*
X71218152Y-72309523D02*
X71884819Y-72309523D01*
X70837200Y-72547618D02*
X71551485Y-72785713D01*
X71551485Y-72785713D02*
X71551485Y-72166666D01*
D13*
X90324318Y-74437381D02*
X89054318Y-74437381D01*
X89054318Y-74437381D02*
X89054318Y-74135000D01*
X89054318Y-74135000D02*
X89114794Y-73953571D01*
X89114794Y-73953571D02*
X89235746Y-73832619D01*
X89235746Y-73832619D02*
X89356699Y-73772142D01*
X89356699Y-73772142D02*
X89598603Y-73711666D01*
X89598603Y-73711666D02*
X89780032Y-73711666D01*
X89780032Y-73711666D02*
X90021937Y-73772142D01*
X90021937Y-73772142D02*
X90142889Y-73832619D01*
X90142889Y-73832619D02*
X90263842Y-73953571D01*
X90263842Y-73953571D02*
X90324318Y-74135000D01*
X90324318Y-74135000D02*
X90324318Y-74437381D01*
X89054318Y-72562619D02*
X89054318Y-73167381D01*
X89054318Y-73167381D02*
X89659080Y-73227857D01*
X89659080Y-73227857D02*
X89598603Y-73167381D01*
X89598603Y-73167381D02*
X89538127Y-73046428D01*
X89538127Y-73046428D02*
X89538127Y-72744047D01*
X89538127Y-72744047D02*
X89598603Y-72623095D01*
X89598603Y-72623095D02*
X89659080Y-72562619D01*
X89659080Y-72562619D02*
X89780032Y-72502142D01*
X89780032Y-72502142D02*
X90082413Y-72502142D01*
X90082413Y-72502142D02*
X90203365Y-72562619D01*
X90203365Y-72562619D02*
X90263842Y-72623095D01*
X90263842Y-72623095D02*
X90324318Y-72744047D01*
X90324318Y-72744047D02*
X90324318Y-73046428D01*
X90324318Y-73046428D02*
X90263842Y-73167381D01*
X90263842Y-73167381D02*
X90203365Y-73227857D01*
D14*
X88454819Y-106892857D02*
X87978628Y-107226190D01*
X88454819Y-107464285D02*
X87454819Y-107464285D01*
X87454819Y-107464285D02*
X87454819Y-107083333D01*
X87454819Y-107083333D02*
X87502438Y-106988095D01*
X87502438Y-106988095D02*
X87550057Y-106940476D01*
X87550057Y-106940476D02*
X87645295Y-106892857D01*
X87645295Y-106892857D02*
X87788152Y-106892857D01*
X87788152Y-106892857D02*
X87883390Y-106940476D01*
X87883390Y-106940476D02*
X87931009Y-106988095D01*
X87931009Y-106988095D02*
X87978628Y-107083333D01*
X87978628Y-107083333D02*
X87978628Y-107464285D01*
X87550057Y-106511904D02*
X87502438Y-106464285D01*
X87502438Y-106464285D02*
X87454819Y-106369047D01*
X87454819Y-106369047D02*
X87454819Y-106130952D01*
X87454819Y-106130952D02*
X87502438Y-106035714D01*
X87502438Y-106035714D02*
X87550057Y-105988095D01*
X87550057Y-105988095D02*
X87645295Y-105940476D01*
X87645295Y-105940476D02*
X87740533Y-105940476D01*
X87740533Y-105940476D02*
X87883390Y-105988095D01*
X87883390Y-105988095D02*
X88454819Y-106559523D01*
X88454819Y-106559523D02*
X88454819Y-105940476D01*
X88454819Y-104988095D02*
X88454819Y-105559523D01*
X88454819Y-105273809D02*
X87454819Y-105273809D01*
X87454819Y-105273809D02*
X87597676Y-105369047D01*
X87597676Y-105369047D02*
X87692914Y-105464285D01*
X87692914Y-105464285D02*
X87740533Y-105559523D01*
D13*
X106042619Y-98804318D02*
X106768333Y-98804318D01*
X106405476Y-100074318D02*
X106405476Y-98804318D01*
X107191666Y-100074318D02*
X107191666Y-98804318D01*
X107191666Y-98804318D02*
X107675476Y-98804318D01*
X107675476Y-98804318D02*
X107796428Y-98864794D01*
X107796428Y-98864794D02*
X107856905Y-98925270D01*
X107856905Y-98925270D02*
X107917381Y-99046222D01*
X107917381Y-99046222D02*
X107917381Y-99227651D01*
X107917381Y-99227651D02*
X107856905Y-99348603D01*
X107856905Y-99348603D02*
X107796428Y-99409080D01*
X107796428Y-99409080D02*
X107675476Y-99469556D01*
X107675476Y-99469556D02*
X107191666Y-99469556D01*
X109126905Y-100074318D02*
X108401190Y-100074318D01*
X108764047Y-100074318D02*
X108764047Y-98804318D01*
X108764047Y-98804318D02*
X108643095Y-98985746D01*
X108643095Y-98985746D02*
X108522143Y-99106699D01*
X108522143Y-99106699D02*
X108401190Y-99167175D01*
X110215476Y-98804318D02*
X109973571Y-98804318D01*
X109973571Y-98804318D02*
X109852619Y-98864794D01*
X109852619Y-98864794D02*
X109792143Y-98925270D01*
X109792143Y-98925270D02*
X109671190Y-99106699D01*
X109671190Y-99106699D02*
X109610714Y-99348603D01*
X109610714Y-99348603D02*
X109610714Y-99832413D01*
X109610714Y-99832413D02*
X109671190Y-99953365D01*
X109671190Y-99953365D02*
X109731667Y-100013842D01*
X109731667Y-100013842D02*
X109852619Y-100074318D01*
X109852619Y-100074318D02*
X110094524Y-100074318D01*
X110094524Y-100074318D02*
X110215476Y-100013842D01*
X110215476Y-100013842D02*
X110275952Y-99953365D01*
X110275952Y-99953365D02*
X110336429Y-99832413D01*
X110336429Y-99832413D02*
X110336429Y-99530032D01*
X110336429Y-99530032D02*
X110275952Y-99409080D01*
X110275952Y-99409080D02*
X110215476Y-99348603D01*
X110215476Y-99348603D02*
X110094524Y-99288127D01*
X110094524Y-99288127D02*
X109852619Y-99288127D01*
X109852619Y-99288127D02*
X109731667Y-99348603D01*
X109731667Y-99348603D02*
X109671190Y-99409080D01*
X109671190Y-99409080D02*
X109610714Y-99530032D01*
X84760237Y-121574318D02*
X84760237Y-120304318D01*
X86090714Y-121453365D02*
X86030238Y-121513842D01*
X86030238Y-121513842D02*
X85848809Y-121574318D01*
X85848809Y-121574318D02*
X85727857Y-121574318D01*
X85727857Y-121574318D02*
X85546428Y-121513842D01*
X85546428Y-121513842D02*
X85425476Y-121392889D01*
X85425476Y-121392889D02*
X85364999Y-121271937D01*
X85364999Y-121271937D02*
X85304523Y-121030032D01*
X85304523Y-121030032D02*
X85304523Y-120848603D01*
X85304523Y-120848603D02*
X85364999Y-120606699D01*
X85364999Y-120606699D02*
X85425476Y-120485746D01*
X85425476Y-120485746D02*
X85546428Y-120364794D01*
X85546428Y-120364794D02*
X85727857Y-120304318D01*
X85727857Y-120304318D02*
X85848809Y-120304318D01*
X85848809Y-120304318D02*
X86030238Y-120364794D01*
X86030238Y-120364794D02*
X86090714Y-120425270D01*
X86514047Y-120304318D02*
X87300238Y-120304318D01*
X87300238Y-120304318D02*
X86876904Y-120788127D01*
X86876904Y-120788127D02*
X87058333Y-120788127D01*
X87058333Y-120788127D02*
X87179285Y-120848603D01*
X87179285Y-120848603D02*
X87239761Y-120909080D01*
X87239761Y-120909080D02*
X87300238Y-121030032D01*
X87300238Y-121030032D02*
X87300238Y-121332413D01*
X87300238Y-121332413D02*
X87239761Y-121453365D01*
X87239761Y-121453365D02*
X87179285Y-121513842D01*
X87179285Y-121513842D02*
X87058333Y-121574318D01*
X87058333Y-121574318D02*
X86695476Y-121574318D01*
X86695476Y-121574318D02*
X86574523Y-121513842D01*
X86574523Y-121513842D02*
X86514047Y-121453365D01*
X91792619Y-87804318D02*
X92518333Y-87804318D01*
X92155476Y-89074318D02*
X92155476Y-87804318D01*
X92941666Y-89074318D02*
X92941666Y-87804318D01*
X92941666Y-87804318D02*
X93425476Y-87804318D01*
X93425476Y-87804318D02*
X93546428Y-87864794D01*
X93546428Y-87864794D02*
X93606905Y-87925270D01*
X93606905Y-87925270D02*
X93667381Y-88046222D01*
X93667381Y-88046222D02*
X93667381Y-88227651D01*
X93667381Y-88227651D02*
X93606905Y-88348603D01*
X93606905Y-88348603D02*
X93546428Y-88409080D01*
X93546428Y-88409080D02*
X93425476Y-88469556D01*
X93425476Y-88469556D02*
X92941666Y-88469556D01*
X94876905Y-89074318D02*
X94151190Y-89074318D01*
X94514047Y-89074318D02*
X94514047Y-87804318D01*
X94514047Y-87804318D02*
X94393095Y-87985746D01*
X94393095Y-87985746D02*
X94272143Y-88106699D01*
X94272143Y-88106699D02*
X94151190Y-88167175D01*
X95481667Y-89074318D02*
X95723571Y-89074318D01*
X95723571Y-89074318D02*
X95844524Y-89013842D01*
X95844524Y-89013842D02*
X95905000Y-88953365D01*
X95905000Y-88953365D02*
X96025952Y-88771937D01*
X96025952Y-88771937D02*
X96086429Y-88530032D01*
X96086429Y-88530032D02*
X96086429Y-88046222D01*
X96086429Y-88046222D02*
X96025952Y-87925270D01*
X96025952Y-87925270D02*
X95965476Y-87864794D01*
X95965476Y-87864794D02*
X95844524Y-87804318D01*
X95844524Y-87804318D02*
X95602619Y-87804318D01*
X95602619Y-87804318D02*
X95481667Y-87864794D01*
X95481667Y-87864794D02*
X95421190Y-87925270D01*
X95421190Y-87925270D02*
X95360714Y-88046222D01*
X95360714Y-88046222D02*
X95360714Y-88348603D01*
X95360714Y-88348603D02*
X95421190Y-88469556D01*
X95421190Y-88469556D02*
X95481667Y-88530032D01*
X95481667Y-88530032D02*
X95602619Y-88590508D01*
X95602619Y-88590508D02*
X95844524Y-88590508D01*
X95844524Y-88590508D02*
X95965476Y-88530032D01*
X95965476Y-88530032D02*
X96025952Y-88469556D01*
X96025952Y-88469556D02*
X96086429Y-88348603D01*
D14*
X46357142Y-99024819D02*
X46023809Y-98548628D01*
X45785714Y-99024819D02*
X45785714Y-98024819D01*
X45785714Y-98024819D02*
X46166666Y-98024819D01*
X46166666Y-98024819D02*
X46261904Y-98072438D01*
X46261904Y-98072438D02*
X46309523Y-98120057D01*
X46309523Y-98120057D02*
X46357142Y-98215295D01*
X46357142Y-98215295D02*
X46357142Y-98358152D01*
X46357142Y-98358152D02*
X46309523Y-98453390D01*
X46309523Y-98453390D02*
X46261904Y-98501009D01*
X46261904Y-98501009D02*
X46166666Y-98548628D01*
X46166666Y-98548628D02*
X45785714Y-98548628D01*
X47309523Y-99024819D02*
X46738095Y-99024819D01*
X47023809Y-99024819D02*
X47023809Y-98024819D01*
X47023809Y-98024819D02*
X46928571Y-98167676D01*
X46928571Y-98167676D02*
X46833333Y-98262914D01*
X46833333Y-98262914D02*
X46738095Y-98310533D01*
X48166666Y-98024819D02*
X47976190Y-98024819D01*
X47976190Y-98024819D02*
X47880952Y-98072438D01*
X47880952Y-98072438D02*
X47833333Y-98120057D01*
X47833333Y-98120057D02*
X47738095Y-98262914D01*
X47738095Y-98262914D02*
X47690476Y-98453390D01*
X47690476Y-98453390D02*
X47690476Y-98834342D01*
X47690476Y-98834342D02*
X47738095Y-98929580D01*
X47738095Y-98929580D02*
X47785714Y-98977200D01*
X47785714Y-98977200D02*
X47880952Y-99024819D01*
X47880952Y-99024819D02*
X48071428Y-99024819D01*
X48071428Y-99024819D02*
X48166666Y-98977200D01*
X48166666Y-98977200D02*
X48214285Y-98929580D01*
X48214285Y-98929580D02*
X48261904Y-98834342D01*
X48261904Y-98834342D02*
X48261904Y-98596247D01*
X48261904Y-98596247D02*
X48214285Y-98501009D01*
X48214285Y-98501009D02*
X48166666Y-98453390D01*
X48166666Y-98453390D02*
X48071428Y-98405771D01*
X48071428Y-98405771D02*
X47880952Y-98405771D01*
X47880952Y-98405771D02*
X47785714Y-98453390D01*
X47785714Y-98453390D02*
X47738095Y-98501009D01*
X47738095Y-98501009D02*
X47690476Y-98596247D01*
X67289580Y-67666666D02*
X67337200Y-67714285D01*
X67337200Y-67714285D02*
X67384819Y-67857142D01*
X67384819Y-67857142D02*
X67384819Y-67952380D01*
X67384819Y-67952380D02*
X67337200Y-68095237D01*
X67337200Y-68095237D02*
X67241961Y-68190475D01*
X67241961Y-68190475D02*
X67146723Y-68238094D01*
X67146723Y-68238094D02*
X66956247Y-68285713D01*
X66956247Y-68285713D02*
X66813390Y-68285713D01*
X66813390Y-68285713D02*
X66622914Y-68238094D01*
X66622914Y-68238094D02*
X66527676Y-68190475D01*
X66527676Y-68190475D02*
X66432438Y-68095237D01*
X66432438Y-68095237D02*
X66384819Y-67952380D01*
X66384819Y-67952380D02*
X66384819Y-67857142D01*
X66384819Y-67857142D02*
X66432438Y-67714285D01*
X66432438Y-67714285D02*
X66480057Y-67666666D01*
X66813390Y-67095237D02*
X66765771Y-67190475D01*
X66765771Y-67190475D02*
X66718152Y-67238094D01*
X66718152Y-67238094D02*
X66622914Y-67285713D01*
X66622914Y-67285713D02*
X66575295Y-67285713D01*
X66575295Y-67285713D02*
X66480057Y-67238094D01*
X66480057Y-67238094D02*
X66432438Y-67190475D01*
X66432438Y-67190475D02*
X66384819Y-67095237D01*
X66384819Y-67095237D02*
X66384819Y-66904761D01*
X66384819Y-66904761D02*
X66432438Y-66809523D01*
X66432438Y-66809523D02*
X66480057Y-66761904D01*
X66480057Y-66761904D02*
X66575295Y-66714285D01*
X66575295Y-66714285D02*
X66622914Y-66714285D01*
X66622914Y-66714285D02*
X66718152Y-66761904D01*
X66718152Y-66761904D02*
X66765771Y-66809523D01*
X66765771Y-66809523D02*
X66813390Y-66904761D01*
X66813390Y-66904761D02*
X66813390Y-67095237D01*
X66813390Y-67095237D02*
X66861009Y-67190475D01*
X66861009Y-67190475D02*
X66908628Y-67238094D01*
X66908628Y-67238094D02*
X67003866Y-67285713D01*
X67003866Y-67285713D02*
X67194342Y-67285713D01*
X67194342Y-67285713D02*
X67289580Y-67238094D01*
X67289580Y-67238094D02*
X67337200Y-67190475D01*
X67337200Y-67190475D02*
X67384819Y-67095237D01*
X67384819Y-67095237D02*
X67384819Y-66904761D01*
X67384819Y-66904761D02*
X67337200Y-66809523D01*
X67337200Y-66809523D02*
X67289580Y-66761904D01*
X67289580Y-66761904D02*
X67194342Y-66714285D01*
X67194342Y-66714285D02*
X67003866Y-66714285D01*
X67003866Y-66714285D02*
X66908628Y-66761904D01*
X66908628Y-66761904D02*
X66861009Y-66809523D01*
X66861009Y-66809523D02*
X66813390Y-66904761D01*
X78429580Y-75166666D02*
X78477200Y-75214285D01*
X78477200Y-75214285D02*
X78524819Y-75357142D01*
X78524819Y-75357142D02*
X78524819Y-75452380D01*
X78524819Y-75452380D02*
X78477200Y-75595237D01*
X78477200Y-75595237D02*
X78381961Y-75690475D01*
X78381961Y-75690475D02*
X78286723Y-75738094D01*
X78286723Y-75738094D02*
X78096247Y-75785713D01*
X78096247Y-75785713D02*
X77953390Y-75785713D01*
X77953390Y-75785713D02*
X77762914Y-75738094D01*
X77762914Y-75738094D02*
X77667676Y-75690475D01*
X77667676Y-75690475D02*
X77572438Y-75595237D01*
X77572438Y-75595237D02*
X77524819Y-75452380D01*
X77524819Y-75452380D02*
X77524819Y-75357142D01*
X77524819Y-75357142D02*
X77572438Y-75214285D01*
X77572438Y-75214285D02*
X77620057Y-75166666D01*
X77524819Y-74261904D02*
X77524819Y-74738094D01*
X77524819Y-74738094D02*
X78001009Y-74785713D01*
X78001009Y-74785713D02*
X77953390Y-74738094D01*
X77953390Y-74738094D02*
X77905771Y-74642856D01*
X77905771Y-74642856D02*
X77905771Y-74404761D01*
X77905771Y-74404761D02*
X77953390Y-74309523D01*
X77953390Y-74309523D02*
X78001009Y-74261904D01*
X78001009Y-74261904D02*
X78096247Y-74214285D01*
X78096247Y-74214285D02*
X78334342Y-74214285D01*
X78334342Y-74214285D02*
X78429580Y-74261904D01*
X78429580Y-74261904D02*
X78477200Y-74309523D01*
X78477200Y-74309523D02*
X78524819Y-74404761D01*
X78524819Y-74404761D02*
X78524819Y-74642856D01*
X78524819Y-74642856D02*
X78477200Y-74738094D01*
X78477200Y-74738094D02*
X78429580Y-74785713D01*
X77283333Y-103999580D02*
X77235714Y-104047200D01*
X77235714Y-104047200D02*
X77092857Y-104094819D01*
X77092857Y-104094819D02*
X76997619Y-104094819D01*
X76997619Y-104094819D02*
X76854762Y-104047200D01*
X76854762Y-104047200D02*
X76759524Y-103951961D01*
X76759524Y-103951961D02*
X76711905Y-103856723D01*
X76711905Y-103856723D02*
X76664286Y-103666247D01*
X76664286Y-103666247D02*
X76664286Y-103523390D01*
X76664286Y-103523390D02*
X76711905Y-103332914D01*
X76711905Y-103332914D02*
X76759524Y-103237676D01*
X76759524Y-103237676D02*
X76854762Y-103142438D01*
X76854762Y-103142438D02*
X76997619Y-103094819D01*
X76997619Y-103094819D02*
X77092857Y-103094819D01*
X77092857Y-103094819D02*
X77235714Y-103142438D01*
X77235714Y-103142438D02*
X77283333Y-103190057D01*
X78235714Y-104094819D02*
X77664286Y-104094819D01*
X77950000Y-104094819D02*
X77950000Y-103094819D01*
X77950000Y-103094819D02*
X77854762Y-103237676D01*
X77854762Y-103237676D02*
X77759524Y-103332914D01*
X77759524Y-103332914D02*
X77664286Y-103380533D01*
X88524819Y-98166666D02*
X88048628Y-98499999D01*
X88524819Y-98738094D02*
X87524819Y-98738094D01*
X87524819Y-98738094D02*
X87524819Y-98357142D01*
X87524819Y-98357142D02*
X87572438Y-98261904D01*
X87572438Y-98261904D02*
X87620057Y-98214285D01*
X87620057Y-98214285D02*
X87715295Y-98166666D01*
X87715295Y-98166666D02*
X87858152Y-98166666D01*
X87858152Y-98166666D02*
X87953390Y-98214285D01*
X87953390Y-98214285D02*
X88001009Y-98261904D01*
X88001009Y-98261904D02*
X88048628Y-98357142D01*
X88048628Y-98357142D02*
X88048628Y-98738094D01*
X87953390Y-97595237D02*
X87905771Y-97690475D01*
X87905771Y-97690475D02*
X87858152Y-97738094D01*
X87858152Y-97738094D02*
X87762914Y-97785713D01*
X87762914Y-97785713D02*
X87715295Y-97785713D01*
X87715295Y-97785713D02*
X87620057Y-97738094D01*
X87620057Y-97738094D02*
X87572438Y-97690475D01*
X87572438Y-97690475D02*
X87524819Y-97595237D01*
X87524819Y-97595237D02*
X87524819Y-97404761D01*
X87524819Y-97404761D02*
X87572438Y-97309523D01*
X87572438Y-97309523D02*
X87620057Y-97261904D01*
X87620057Y-97261904D02*
X87715295Y-97214285D01*
X87715295Y-97214285D02*
X87762914Y-97214285D01*
X87762914Y-97214285D02*
X87858152Y-97261904D01*
X87858152Y-97261904D02*
X87905771Y-97309523D01*
X87905771Y-97309523D02*
X87953390Y-97404761D01*
X87953390Y-97404761D02*
X87953390Y-97595237D01*
X87953390Y-97595237D02*
X88001009Y-97690475D01*
X88001009Y-97690475D02*
X88048628Y-97738094D01*
X88048628Y-97738094D02*
X88143866Y-97785713D01*
X88143866Y-97785713D02*
X88334342Y-97785713D01*
X88334342Y-97785713D02*
X88429580Y-97738094D01*
X88429580Y-97738094D02*
X88477200Y-97690475D01*
X88477200Y-97690475D02*
X88524819Y-97595237D01*
X88524819Y-97595237D02*
X88524819Y-97404761D01*
X88524819Y-97404761D02*
X88477200Y-97309523D01*
X88477200Y-97309523D02*
X88429580Y-97261904D01*
X88429580Y-97261904D02*
X88334342Y-97214285D01*
X88334342Y-97214285D02*
X88143866Y-97214285D01*
X88143866Y-97214285D02*
X88048628Y-97261904D01*
X88048628Y-97261904D02*
X88001009Y-97309523D01*
X88001009Y-97309523D02*
X87953390Y-97404761D01*
X83008333Y-102234819D02*
X82675000Y-101758628D01*
X82436905Y-102234819D02*
X82436905Y-101234819D01*
X82436905Y-101234819D02*
X82817857Y-101234819D01*
X82817857Y-101234819D02*
X82913095Y-101282438D01*
X82913095Y-101282438D02*
X82960714Y-101330057D01*
X82960714Y-101330057D02*
X83008333Y-101425295D01*
X83008333Y-101425295D02*
X83008333Y-101568152D01*
X83008333Y-101568152D02*
X82960714Y-101663390D01*
X82960714Y-101663390D02*
X82913095Y-101711009D01*
X82913095Y-101711009D02*
X82817857Y-101758628D01*
X82817857Y-101758628D02*
X82436905Y-101758628D01*
X83960714Y-102234819D02*
X83389286Y-102234819D01*
X83675000Y-102234819D02*
X83675000Y-101234819D01*
X83675000Y-101234819D02*
X83579762Y-101377676D01*
X83579762Y-101377676D02*
X83484524Y-101472914D01*
X83484524Y-101472914D02*
X83389286Y-101520533D01*
X92357142Y-97929580D02*
X92309523Y-97977200D01*
X92309523Y-97977200D02*
X92166666Y-98024819D01*
X92166666Y-98024819D02*
X92071428Y-98024819D01*
X92071428Y-98024819D02*
X91928571Y-97977200D01*
X91928571Y-97977200D02*
X91833333Y-97881961D01*
X91833333Y-97881961D02*
X91785714Y-97786723D01*
X91785714Y-97786723D02*
X91738095Y-97596247D01*
X91738095Y-97596247D02*
X91738095Y-97453390D01*
X91738095Y-97453390D02*
X91785714Y-97262914D01*
X91785714Y-97262914D02*
X91833333Y-97167676D01*
X91833333Y-97167676D02*
X91928571Y-97072438D01*
X91928571Y-97072438D02*
X92071428Y-97024819D01*
X92071428Y-97024819D02*
X92166666Y-97024819D01*
X92166666Y-97024819D02*
X92309523Y-97072438D01*
X92309523Y-97072438D02*
X92357142Y-97120057D01*
X93309523Y-98024819D02*
X92738095Y-98024819D01*
X93023809Y-98024819D02*
X93023809Y-97024819D01*
X93023809Y-97024819D02*
X92928571Y-97167676D01*
X92928571Y-97167676D02*
X92833333Y-97262914D01*
X92833333Y-97262914D02*
X92738095Y-97310533D01*
X93928571Y-97024819D02*
X94023809Y-97024819D01*
X94023809Y-97024819D02*
X94119047Y-97072438D01*
X94119047Y-97072438D02*
X94166666Y-97120057D01*
X94166666Y-97120057D02*
X94214285Y-97215295D01*
X94214285Y-97215295D02*
X94261904Y-97405771D01*
X94261904Y-97405771D02*
X94261904Y-97643866D01*
X94261904Y-97643866D02*
X94214285Y-97834342D01*
X94214285Y-97834342D02*
X94166666Y-97929580D01*
X94166666Y-97929580D02*
X94119047Y-97977200D01*
X94119047Y-97977200D02*
X94023809Y-98024819D01*
X94023809Y-98024819D02*
X93928571Y-98024819D01*
X93928571Y-98024819D02*
X93833333Y-97977200D01*
X93833333Y-97977200D02*
X93785714Y-97929580D01*
X93785714Y-97929580D02*
X93738095Y-97834342D01*
X93738095Y-97834342D02*
X93690476Y-97643866D01*
X93690476Y-97643866D02*
X93690476Y-97405771D01*
X93690476Y-97405771D02*
X93738095Y-97215295D01*
X93738095Y-97215295D02*
X93785714Y-97120057D01*
X93785714Y-97120057D02*
X93833333Y-97072438D01*
X93833333Y-97072438D02*
X93928571Y-97024819D01*
D13*
X37270237Y-127574318D02*
X37270237Y-126304318D01*
X38600714Y-127453365D02*
X38540238Y-127513842D01*
X38540238Y-127513842D02*
X38358809Y-127574318D01*
X38358809Y-127574318D02*
X38237857Y-127574318D01*
X38237857Y-127574318D02*
X38056428Y-127513842D01*
X38056428Y-127513842D02*
X37935476Y-127392889D01*
X37935476Y-127392889D02*
X37874999Y-127271937D01*
X37874999Y-127271937D02*
X37814523Y-127030032D01*
X37814523Y-127030032D02*
X37814523Y-126848603D01*
X37814523Y-126848603D02*
X37874999Y-126606699D01*
X37874999Y-126606699D02*
X37935476Y-126485746D01*
X37935476Y-126485746D02*
X38056428Y-126364794D01*
X38056428Y-126364794D02*
X38237857Y-126304318D01*
X38237857Y-126304318D02*
X38358809Y-126304318D01*
X38358809Y-126304318D02*
X38540238Y-126364794D01*
X38540238Y-126364794D02*
X38600714Y-126425270D01*
X39326428Y-126848603D02*
X39205476Y-126788127D01*
X39205476Y-126788127D02*
X39144999Y-126727651D01*
X39144999Y-126727651D02*
X39084523Y-126606699D01*
X39084523Y-126606699D02*
X39084523Y-126546222D01*
X39084523Y-126546222D02*
X39144999Y-126425270D01*
X39144999Y-126425270D02*
X39205476Y-126364794D01*
X39205476Y-126364794D02*
X39326428Y-126304318D01*
X39326428Y-126304318D02*
X39568333Y-126304318D01*
X39568333Y-126304318D02*
X39689285Y-126364794D01*
X39689285Y-126364794D02*
X39749761Y-126425270D01*
X39749761Y-126425270D02*
X39810238Y-126546222D01*
X39810238Y-126546222D02*
X39810238Y-126606699D01*
X39810238Y-126606699D02*
X39749761Y-126727651D01*
X39749761Y-126727651D02*
X39689285Y-126788127D01*
X39689285Y-126788127D02*
X39568333Y-126848603D01*
X39568333Y-126848603D02*
X39326428Y-126848603D01*
X39326428Y-126848603D02*
X39205476Y-126909080D01*
X39205476Y-126909080D02*
X39144999Y-126969556D01*
X39144999Y-126969556D02*
X39084523Y-127090508D01*
X39084523Y-127090508D02*
X39084523Y-127332413D01*
X39084523Y-127332413D02*
X39144999Y-127453365D01*
X39144999Y-127453365D02*
X39205476Y-127513842D01*
X39205476Y-127513842D02*
X39326428Y-127574318D01*
X39326428Y-127574318D02*
X39568333Y-127574318D01*
X39568333Y-127574318D02*
X39689285Y-127513842D01*
X39689285Y-127513842D02*
X39749761Y-127453365D01*
X39749761Y-127453365D02*
X39810238Y-127332413D01*
X39810238Y-127332413D02*
X39810238Y-127090508D01*
X39810238Y-127090508D02*
X39749761Y-126969556D01*
X39749761Y-126969556D02*
X39689285Y-126909080D01*
X39689285Y-126909080D02*
X39568333Y-126848603D01*
D14*
X95524819Y-98166666D02*
X95048628Y-98499999D01*
X95524819Y-98738094D02*
X94524819Y-98738094D01*
X94524819Y-98738094D02*
X94524819Y-98357142D01*
X94524819Y-98357142D02*
X94572438Y-98261904D01*
X94572438Y-98261904D02*
X94620057Y-98214285D01*
X94620057Y-98214285D02*
X94715295Y-98166666D01*
X94715295Y-98166666D02*
X94858152Y-98166666D01*
X94858152Y-98166666D02*
X94953390Y-98214285D01*
X94953390Y-98214285D02*
X95001009Y-98261904D01*
X95001009Y-98261904D02*
X95048628Y-98357142D01*
X95048628Y-98357142D02*
X95048628Y-98738094D01*
X94524819Y-97833332D02*
X94524819Y-97166666D01*
X94524819Y-97166666D02*
X95524819Y-97595237D01*
X55957142Y-140329580D02*
X55909523Y-140377200D01*
X55909523Y-140377200D02*
X55766666Y-140424819D01*
X55766666Y-140424819D02*
X55671428Y-140424819D01*
X55671428Y-140424819D02*
X55528571Y-140377200D01*
X55528571Y-140377200D02*
X55433333Y-140281961D01*
X55433333Y-140281961D02*
X55385714Y-140186723D01*
X55385714Y-140186723D02*
X55338095Y-139996247D01*
X55338095Y-139996247D02*
X55338095Y-139853390D01*
X55338095Y-139853390D02*
X55385714Y-139662914D01*
X55385714Y-139662914D02*
X55433333Y-139567676D01*
X55433333Y-139567676D02*
X55528571Y-139472438D01*
X55528571Y-139472438D02*
X55671428Y-139424819D01*
X55671428Y-139424819D02*
X55766666Y-139424819D01*
X55766666Y-139424819D02*
X55909523Y-139472438D01*
X55909523Y-139472438D02*
X55957142Y-139520057D01*
X56909523Y-140424819D02*
X56338095Y-140424819D01*
X56623809Y-140424819D02*
X56623809Y-139424819D01*
X56623809Y-139424819D02*
X56528571Y-139567676D01*
X56528571Y-139567676D02*
X56433333Y-139662914D01*
X56433333Y-139662914D02*
X56338095Y-139710533D01*
X57242857Y-139424819D02*
X57861904Y-139424819D01*
X57861904Y-139424819D02*
X57528571Y-139805771D01*
X57528571Y-139805771D02*
X57671428Y-139805771D01*
X57671428Y-139805771D02*
X57766666Y-139853390D01*
X57766666Y-139853390D02*
X57814285Y-139901009D01*
X57814285Y-139901009D02*
X57861904Y-139996247D01*
X57861904Y-139996247D02*
X57861904Y-140234342D01*
X57861904Y-140234342D02*
X57814285Y-140329580D01*
X57814285Y-140329580D02*
X57766666Y-140377200D01*
X57766666Y-140377200D02*
X57671428Y-140424819D01*
X57671428Y-140424819D02*
X57385714Y-140424819D01*
X57385714Y-140424819D02*
X57290476Y-140377200D01*
X57290476Y-140377200D02*
X57242857Y-140329580D01*
D13*
X83038333Y-59574318D02*
X82433571Y-59574318D01*
X82433571Y-59574318D02*
X82433571Y-58304318D01*
X84126905Y-59574318D02*
X83401190Y-59574318D01*
X83764047Y-59574318D02*
X83764047Y-58304318D01*
X83764047Y-58304318D02*
X83643095Y-58485746D01*
X83643095Y-58485746D02*
X83522143Y-58606699D01*
X83522143Y-58606699D02*
X83401190Y-58667175D01*
D14*
X74833333Y-70929580D02*
X74785714Y-70977200D01*
X74785714Y-70977200D02*
X74642857Y-71024819D01*
X74642857Y-71024819D02*
X74547619Y-71024819D01*
X74547619Y-71024819D02*
X74404762Y-70977200D01*
X74404762Y-70977200D02*
X74309524Y-70881961D01*
X74309524Y-70881961D02*
X74261905Y-70786723D01*
X74261905Y-70786723D02*
X74214286Y-70596247D01*
X74214286Y-70596247D02*
X74214286Y-70453390D01*
X74214286Y-70453390D02*
X74261905Y-70262914D01*
X74261905Y-70262914D02*
X74309524Y-70167676D01*
X74309524Y-70167676D02*
X74404762Y-70072438D01*
X74404762Y-70072438D02*
X74547619Y-70024819D01*
X74547619Y-70024819D02*
X74642857Y-70024819D01*
X74642857Y-70024819D02*
X74785714Y-70072438D01*
X74785714Y-70072438D02*
X74833333Y-70120057D01*
X75690476Y-70358152D02*
X75690476Y-71024819D01*
X75452381Y-69977200D02*
X75214286Y-70691485D01*
X75214286Y-70691485D02*
X75833333Y-70691485D01*
D13*
X95324318Y-105937381D02*
X94054318Y-105937381D01*
X94054318Y-105937381D02*
X94054318Y-105635000D01*
X94054318Y-105635000D02*
X94114794Y-105453571D01*
X94114794Y-105453571D02*
X94235746Y-105332619D01*
X94235746Y-105332619D02*
X94356699Y-105272142D01*
X94356699Y-105272142D02*
X94598603Y-105211666D01*
X94598603Y-105211666D02*
X94780032Y-105211666D01*
X94780032Y-105211666D02*
X95021937Y-105272142D01*
X95021937Y-105272142D02*
X95142889Y-105332619D01*
X95142889Y-105332619D02*
X95263842Y-105453571D01*
X95263842Y-105453571D02*
X95324318Y-105635000D01*
X95324318Y-105635000D02*
X95324318Y-105937381D01*
X94054318Y-104788333D02*
X94054318Y-103941666D01*
X94054318Y-103941666D02*
X95324318Y-104485952D01*
X66042619Y-107054318D02*
X66768333Y-107054318D01*
X66405476Y-108324318D02*
X66405476Y-107054318D01*
X67191666Y-108324318D02*
X67191666Y-107054318D01*
X67191666Y-107054318D02*
X67675476Y-107054318D01*
X67675476Y-107054318D02*
X67796428Y-107114794D01*
X67796428Y-107114794D02*
X67856905Y-107175270D01*
X67856905Y-107175270D02*
X67917381Y-107296222D01*
X67917381Y-107296222D02*
X67917381Y-107477651D01*
X67917381Y-107477651D02*
X67856905Y-107598603D01*
X67856905Y-107598603D02*
X67796428Y-107659080D01*
X67796428Y-107659080D02*
X67675476Y-107719556D01*
X67675476Y-107719556D02*
X67191666Y-107719556D01*
X69126905Y-108324318D02*
X68401190Y-108324318D01*
X68764047Y-108324318D02*
X68764047Y-107054318D01*
X68764047Y-107054318D02*
X68643095Y-107235746D01*
X68643095Y-107235746D02*
X68522143Y-107356699D01*
X68522143Y-107356699D02*
X68401190Y-107417175D01*
X69550238Y-107054318D02*
X70396905Y-107054318D01*
X70396905Y-107054318D02*
X69852619Y-108324318D01*
X90288333Y-125953365D02*
X90227857Y-126013842D01*
X90227857Y-126013842D02*
X90046428Y-126074318D01*
X90046428Y-126074318D02*
X89925476Y-126074318D01*
X89925476Y-126074318D02*
X89744047Y-126013842D01*
X89744047Y-126013842D02*
X89623095Y-125892889D01*
X89623095Y-125892889D02*
X89562618Y-125771937D01*
X89562618Y-125771937D02*
X89502142Y-125530032D01*
X89502142Y-125530032D02*
X89502142Y-125348603D01*
X89502142Y-125348603D02*
X89562618Y-125106699D01*
X89562618Y-125106699D02*
X89623095Y-124985746D01*
X89623095Y-124985746D02*
X89744047Y-124864794D01*
X89744047Y-124864794D02*
X89925476Y-124804318D01*
X89925476Y-124804318D02*
X90046428Y-124804318D01*
X90046428Y-124804318D02*
X90227857Y-124864794D01*
X90227857Y-124864794D02*
X90288333Y-124925270D01*
X90772142Y-124925270D02*
X90832618Y-124864794D01*
X90832618Y-124864794D02*
X90953571Y-124804318D01*
X90953571Y-124804318D02*
X91255952Y-124804318D01*
X91255952Y-124804318D02*
X91376904Y-124864794D01*
X91376904Y-124864794D02*
X91437380Y-124925270D01*
X91437380Y-124925270D02*
X91497857Y-125046222D01*
X91497857Y-125046222D02*
X91497857Y-125167175D01*
X91497857Y-125167175D02*
X91437380Y-125348603D01*
X91437380Y-125348603D02*
X90711666Y-126074318D01*
X90711666Y-126074318D02*
X91497857Y-126074318D01*
D14*
X55957142Y-124389580D02*
X55909523Y-124437200D01*
X55909523Y-124437200D02*
X55766666Y-124484819D01*
X55766666Y-124484819D02*
X55671428Y-124484819D01*
X55671428Y-124484819D02*
X55528571Y-124437200D01*
X55528571Y-124437200D02*
X55433333Y-124341961D01*
X55433333Y-124341961D02*
X55385714Y-124246723D01*
X55385714Y-124246723D02*
X55338095Y-124056247D01*
X55338095Y-124056247D02*
X55338095Y-123913390D01*
X55338095Y-123913390D02*
X55385714Y-123722914D01*
X55385714Y-123722914D02*
X55433333Y-123627676D01*
X55433333Y-123627676D02*
X55528571Y-123532438D01*
X55528571Y-123532438D02*
X55671428Y-123484819D01*
X55671428Y-123484819D02*
X55766666Y-123484819D01*
X55766666Y-123484819D02*
X55909523Y-123532438D01*
X55909523Y-123532438D02*
X55957142Y-123580057D01*
X56909523Y-124484819D02*
X56338095Y-124484819D01*
X56623809Y-124484819D02*
X56623809Y-123484819D01*
X56623809Y-123484819D02*
X56528571Y-123627676D01*
X56528571Y-123627676D02*
X56433333Y-123722914D01*
X56433333Y-123722914D02*
X56338095Y-123770533D01*
X57814285Y-123484819D02*
X57338095Y-123484819D01*
X57338095Y-123484819D02*
X57290476Y-123961009D01*
X57290476Y-123961009D02*
X57338095Y-123913390D01*
X57338095Y-123913390D02*
X57433333Y-123865771D01*
X57433333Y-123865771D02*
X57671428Y-123865771D01*
X57671428Y-123865771D02*
X57766666Y-123913390D01*
X57766666Y-123913390D02*
X57814285Y-123961009D01*
X57814285Y-123961009D02*
X57861904Y-124056247D01*
X57861904Y-124056247D02*
X57861904Y-124294342D01*
X57861904Y-124294342D02*
X57814285Y-124389580D01*
X57814285Y-124389580D02*
X57766666Y-124437200D01*
X57766666Y-124437200D02*
X57671428Y-124484819D01*
X57671428Y-124484819D02*
X57433333Y-124484819D01*
X57433333Y-124484819D02*
X57338095Y-124437200D01*
X57338095Y-124437200D02*
X57290476Y-124389580D01*
X73699819Y-106852857D02*
X73223628Y-107186190D01*
X73699819Y-107424285D02*
X72699819Y-107424285D01*
X72699819Y-107424285D02*
X72699819Y-107043333D01*
X72699819Y-107043333D02*
X72747438Y-106948095D01*
X72747438Y-106948095D02*
X72795057Y-106900476D01*
X72795057Y-106900476D02*
X72890295Y-106852857D01*
X72890295Y-106852857D02*
X73033152Y-106852857D01*
X73033152Y-106852857D02*
X73128390Y-106900476D01*
X73128390Y-106900476D02*
X73176009Y-106948095D01*
X73176009Y-106948095D02*
X73223628Y-107043333D01*
X73223628Y-107043333D02*
X73223628Y-107424285D01*
X72795057Y-106471904D02*
X72747438Y-106424285D01*
X72747438Y-106424285D02*
X72699819Y-106329047D01*
X72699819Y-106329047D02*
X72699819Y-106090952D01*
X72699819Y-106090952D02*
X72747438Y-105995714D01*
X72747438Y-105995714D02*
X72795057Y-105948095D01*
X72795057Y-105948095D02*
X72890295Y-105900476D01*
X72890295Y-105900476D02*
X72985533Y-105900476D01*
X72985533Y-105900476D02*
X73128390Y-105948095D01*
X73128390Y-105948095D02*
X73699819Y-106519523D01*
X73699819Y-106519523D02*
X73699819Y-105900476D01*
X72795057Y-105519523D02*
X72747438Y-105471904D01*
X72747438Y-105471904D02*
X72699819Y-105376666D01*
X72699819Y-105376666D02*
X72699819Y-105138571D01*
X72699819Y-105138571D02*
X72747438Y-105043333D01*
X72747438Y-105043333D02*
X72795057Y-104995714D01*
X72795057Y-104995714D02*
X72890295Y-104948095D01*
X72890295Y-104948095D02*
X72985533Y-104948095D01*
X72985533Y-104948095D02*
X73128390Y-104995714D01*
X73128390Y-104995714D02*
X73699819Y-105567142D01*
X73699819Y-105567142D02*
X73699819Y-104948095D01*
X40083333Y-87454819D02*
X39750000Y-86978628D01*
X39511905Y-87454819D02*
X39511905Y-86454819D01*
X39511905Y-86454819D02*
X39892857Y-86454819D01*
X39892857Y-86454819D02*
X39988095Y-86502438D01*
X39988095Y-86502438D02*
X40035714Y-86550057D01*
X40035714Y-86550057D02*
X40083333Y-86645295D01*
X40083333Y-86645295D02*
X40083333Y-86788152D01*
X40083333Y-86788152D02*
X40035714Y-86883390D01*
X40035714Y-86883390D02*
X39988095Y-86931009D01*
X39988095Y-86931009D02*
X39892857Y-86978628D01*
X39892857Y-86978628D02*
X39511905Y-86978628D01*
X40559524Y-87454819D02*
X40750000Y-87454819D01*
X40750000Y-87454819D02*
X40845238Y-87407200D01*
X40845238Y-87407200D02*
X40892857Y-87359580D01*
X40892857Y-87359580D02*
X40988095Y-87216723D01*
X40988095Y-87216723D02*
X41035714Y-87026247D01*
X41035714Y-87026247D02*
X41035714Y-86645295D01*
X41035714Y-86645295D02*
X40988095Y-86550057D01*
X40988095Y-86550057D02*
X40940476Y-86502438D01*
X40940476Y-86502438D02*
X40845238Y-86454819D01*
X40845238Y-86454819D02*
X40654762Y-86454819D01*
X40654762Y-86454819D02*
X40559524Y-86502438D01*
X40559524Y-86502438D02*
X40511905Y-86550057D01*
X40511905Y-86550057D02*
X40464286Y-86645295D01*
X40464286Y-86645295D02*
X40464286Y-86883390D01*
X40464286Y-86883390D02*
X40511905Y-86978628D01*
X40511905Y-86978628D02*
X40559524Y-87026247D01*
X40559524Y-87026247D02*
X40654762Y-87073866D01*
X40654762Y-87073866D02*
X40845238Y-87073866D01*
X40845238Y-87073866D02*
X40940476Y-87026247D01*
X40940476Y-87026247D02*
X40988095Y-86978628D01*
X40988095Y-86978628D02*
X41035714Y-86883390D01*
D13*
X95288333Y-115824318D02*
X94864999Y-115219556D01*
X94562618Y-115824318D02*
X94562618Y-114554318D01*
X94562618Y-114554318D02*
X95046428Y-114554318D01*
X95046428Y-114554318D02*
X95167380Y-114614794D01*
X95167380Y-114614794D02*
X95227857Y-114675270D01*
X95227857Y-114675270D02*
X95288333Y-114796222D01*
X95288333Y-114796222D02*
X95288333Y-114977651D01*
X95288333Y-114977651D02*
X95227857Y-115098603D01*
X95227857Y-115098603D02*
X95167380Y-115159080D01*
X95167380Y-115159080D02*
X95046428Y-115219556D01*
X95046428Y-115219556D02*
X94562618Y-115219556D01*
X95711666Y-114554318D02*
X96497857Y-114554318D01*
X96497857Y-114554318D02*
X96074523Y-115038127D01*
X96074523Y-115038127D02*
X96255952Y-115038127D01*
X96255952Y-115038127D02*
X96376904Y-115098603D01*
X96376904Y-115098603D02*
X96437380Y-115159080D01*
X96437380Y-115159080D02*
X96497857Y-115280032D01*
X96497857Y-115280032D02*
X96497857Y-115582413D01*
X96497857Y-115582413D02*
X96437380Y-115703365D01*
X96437380Y-115703365D02*
X96376904Y-115763842D01*
X96376904Y-115763842D02*
X96255952Y-115824318D01*
X96255952Y-115824318D02*
X95893095Y-115824318D01*
X95893095Y-115824318D02*
X95772142Y-115763842D01*
X95772142Y-115763842D02*
X95711666Y-115703365D01*
X44057619Y-104304318D02*
X44783333Y-104304318D01*
X44420476Y-105574318D02*
X44420476Y-104304318D01*
X45206666Y-105574318D02*
X45206666Y-104304318D01*
X45206666Y-104304318D02*
X45690476Y-104304318D01*
X45690476Y-104304318D02*
X45811428Y-104364794D01*
X45811428Y-104364794D02*
X45871905Y-104425270D01*
X45871905Y-104425270D02*
X45932381Y-104546222D01*
X45932381Y-104546222D02*
X45932381Y-104727651D01*
X45932381Y-104727651D02*
X45871905Y-104848603D01*
X45871905Y-104848603D02*
X45811428Y-104909080D01*
X45811428Y-104909080D02*
X45690476Y-104969556D01*
X45690476Y-104969556D02*
X45206666Y-104969556D01*
X46416190Y-104425270D02*
X46476666Y-104364794D01*
X46476666Y-104364794D02*
X46597619Y-104304318D01*
X46597619Y-104304318D02*
X46900000Y-104304318D01*
X46900000Y-104304318D02*
X47020952Y-104364794D01*
X47020952Y-104364794D02*
X47081428Y-104425270D01*
X47081428Y-104425270D02*
X47141905Y-104546222D01*
X47141905Y-104546222D02*
X47141905Y-104667175D01*
X47141905Y-104667175D02*
X47081428Y-104848603D01*
X47081428Y-104848603D02*
X46355714Y-105574318D01*
X46355714Y-105574318D02*
X47141905Y-105574318D01*
X48351429Y-105574318D02*
X47625714Y-105574318D01*
X47988571Y-105574318D02*
X47988571Y-104304318D01*
X47988571Y-104304318D02*
X47867619Y-104485746D01*
X47867619Y-104485746D02*
X47746667Y-104606699D01*
X47746667Y-104606699D02*
X47625714Y-104667175D01*
X91042619Y-118804318D02*
X91768333Y-118804318D01*
X91405476Y-120074318D02*
X91405476Y-118804318D01*
X92191666Y-120074318D02*
X92191666Y-118804318D01*
X92191666Y-118804318D02*
X92675476Y-118804318D01*
X92675476Y-118804318D02*
X92796428Y-118864794D01*
X92796428Y-118864794D02*
X92856905Y-118925270D01*
X92856905Y-118925270D02*
X92917381Y-119046222D01*
X92917381Y-119046222D02*
X92917381Y-119227651D01*
X92917381Y-119227651D02*
X92856905Y-119348603D01*
X92856905Y-119348603D02*
X92796428Y-119409080D01*
X92796428Y-119409080D02*
X92675476Y-119469556D01*
X92675476Y-119469556D02*
X92191666Y-119469556D01*
X94126905Y-120074318D02*
X93401190Y-120074318D01*
X93764047Y-120074318D02*
X93764047Y-118804318D01*
X93764047Y-118804318D02*
X93643095Y-118985746D01*
X93643095Y-118985746D02*
X93522143Y-119106699D01*
X93522143Y-119106699D02*
X93401190Y-119167175D01*
X95275952Y-118804318D02*
X94671190Y-118804318D01*
X94671190Y-118804318D02*
X94610714Y-119409080D01*
X94610714Y-119409080D02*
X94671190Y-119348603D01*
X94671190Y-119348603D02*
X94792143Y-119288127D01*
X94792143Y-119288127D02*
X95094524Y-119288127D01*
X95094524Y-119288127D02*
X95215476Y-119348603D01*
X95215476Y-119348603D02*
X95275952Y-119409080D01*
X95275952Y-119409080D02*
X95336429Y-119530032D01*
X95336429Y-119530032D02*
X95336429Y-119832413D01*
X95336429Y-119832413D02*
X95275952Y-119953365D01*
X95275952Y-119953365D02*
X95215476Y-120013842D01*
X95215476Y-120013842D02*
X95094524Y-120074318D01*
X95094524Y-120074318D02*
X94792143Y-120074318D01*
X94792143Y-120074318D02*
X94671190Y-120013842D01*
X94671190Y-120013842D02*
X94610714Y-119953365D01*
X78647381Y-122304318D02*
X79373095Y-122304318D01*
X79010238Y-123574318D02*
X79010238Y-122304318D01*
X79796428Y-123574318D02*
X79796428Y-122304318D01*
X79796428Y-122304318D02*
X80280238Y-122304318D01*
X80280238Y-122304318D02*
X80401190Y-122364794D01*
X80401190Y-122364794D02*
X80461667Y-122425270D01*
X80461667Y-122425270D02*
X80522143Y-122546222D01*
X80522143Y-122546222D02*
X80522143Y-122727651D01*
X80522143Y-122727651D02*
X80461667Y-122848603D01*
X80461667Y-122848603D02*
X80401190Y-122909080D01*
X80401190Y-122909080D02*
X80280238Y-122969556D01*
X80280238Y-122969556D02*
X79796428Y-122969556D01*
X81731667Y-123574318D02*
X81005952Y-123574318D01*
X81368809Y-123574318D02*
X81368809Y-122304318D01*
X81368809Y-122304318D02*
X81247857Y-122485746D01*
X81247857Y-122485746D02*
X81126905Y-122606699D01*
X81126905Y-122606699D02*
X81005952Y-122667175D01*
D14*
X99833333Y-97929580D02*
X99785714Y-97977200D01*
X99785714Y-97977200D02*
X99642857Y-98024819D01*
X99642857Y-98024819D02*
X99547619Y-98024819D01*
X99547619Y-98024819D02*
X99404762Y-97977200D01*
X99404762Y-97977200D02*
X99309524Y-97881961D01*
X99309524Y-97881961D02*
X99261905Y-97786723D01*
X99261905Y-97786723D02*
X99214286Y-97596247D01*
X99214286Y-97596247D02*
X99214286Y-97453390D01*
X99214286Y-97453390D02*
X99261905Y-97262914D01*
X99261905Y-97262914D02*
X99309524Y-97167676D01*
X99309524Y-97167676D02*
X99404762Y-97072438D01*
X99404762Y-97072438D02*
X99547619Y-97024819D01*
X99547619Y-97024819D02*
X99642857Y-97024819D01*
X99642857Y-97024819D02*
X99785714Y-97072438D01*
X99785714Y-97072438D02*
X99833333Y-97120057D01*
X100309524Y-98024819D02*
X100500000Y-98024819D01*
X100500000Y-98024819D02*
X100595238Y-97977200D01*
X100595238Y-97977200D02*
X100642857Y-97929580D01*
X100642857Y-97929580D02*
X100738095Y-97786723D01*
X100738095Y-97786723D02*
X100785714Y-97596247D01*
X100785714Y-97596247D02*
X100785714Y-97215295D01*
X100785714Y-97215295D02*
X100738095Y-97120057D01*
X100738095Y-97120057D02*
X100690476Y-97072438D01*
X100690476Y-97072438D02*
X100595238Y-97024819D01*
X100595238Y-97024819D02*
X100404762Y-97024819D01*
X100404762Y-97024819D02*
X100309524Y-97072438D01*
X100309524Y-97072438D02*
X100261905Y-97120057D01*
X100261905Y-97120057D02*
X100214286Y-97215295D01*
X100214286Y-97215295D02*
X100214286Y-97453390D01*
X100214286Y-97453390D02*
X100261905Y-97548628D01*
X100261905Y-97548628D02*
X100309524Y-97596247D01*
X100309524Y-97596247D02*
X100404762Y-97643866D01*
X100404762Y-97643866D02*
X100595238Y-97643866D01*
X100595238Y-97643866D02*
X100690476Y-97596247D01*
X100690476Y-97596247D02*
X100738095Y-97548628D01*
X100738095Y-97548628D02*
X100785714Y-97453390D01*
D13*
X39707856Y-115824318D02*
X39707856Y-114554318D01*
X39707856Y-114554318D02*
X40191666Y-114554318D01*
X40191666Y-114554318D02*
X40312618Y-114614794D01*
X40312618Y-114614794D02*
X40373095Y-114675270D01*
X40373095Y-114675270D02*
X40433571Y-114796222D01*
X40433571Y-114796222D02*
X40433571Y-114977651D01*
X40433571Y-114977651D02*
X40373095Y-115098603D01*
X40373095Y-115098603D02*
X40312618Y-115159080D01*
X40312618Y-115159080D02*
X40191666Y-115219556D01*
X40191666Y-115219556D02*
X39707856Y-115219556D01*
X40917380Y-115763842D02*
X41098809Y-115824318D01*
X41098809Y-115824318D02*
X41401190Y-115824318D01*
X41401190Y-115824318D02*
X41522142Y-115763842D01*
X41522142Y-115763842D02*
X41582618Y-115703365D01*
X41582618Y-115703365D02*
X41643095Y-115582413D01*
X41643095Y-115582413D02*
X41643095Y-115461461D01*
X41643095Y-115461461D02*
X41582618Y-115340508D01*
X41582618Y-115340508D02*
X41522142Y-115280032D01*
X41522142Y-115280032D02*
X41401190Y-115219556D01*
X41401190Y-115219556D02*
X41159285Y-115159080D01*
X41159285Y-115159080D02*
X41038333Y-115098603D01*
X41038333Y-115098603D02*
X40977856Y-115038127D01*
X40977856Y-115038127D02*
X40917380Y-114917175D01*
X40917380Y-114917175D02*
X40917380Y-114796222D01*
X40917380Y-114796222D02*
X40977856Y-114675270D01*
X40977856Y-114675270D02*
X41038333Y-114614794D01*
X41038333Y-114614794D02*
X41159285Y-114554318D01*
X41159285Y-114554318D02*
X41461666Y-114554318D01*
X41461666Y-114554318D02*
X41643095Y-114614794D01*
X42852619Y-115824318D02*
X42126904Y-115824318D01*
X42489761Y-115824318D02*
X42489761Y-114554318D01*
X42489761Y-114554318D02*
X42368809Y-114735746D01*
X42368809Y-114735746D02*
X42247857Y-114856699D01*
X42247857Y-114856699D02*
X42126904Y-114917175D01*
X80897381Y-126554318D02*
X81623095Y-126554318D01*
X81260238Y-127824318D02*
X81260238Y-126554318D01*
X82046428Y-127824318D02*
X82046428Y-126554318D01*
X82046428Y-126554318D02*
X82530238Y-126554318D01*
X82530238Y-126554318D02*
X82651190Y-126614794D01*
X82651190Y-126614794D02*
X82711667Y-126675270D01*
X82711667Y-126675270D02*
X82772143Y-126796222D01*
X82772143Y-126796222D02*
X82772143Y-126977651D01*
X82772143Y-126977651D02*
X82711667Y-127098603D01*
X82711667Y-127098603D02*
X82651190Y-127159080D01*
X82651190Y-127159080D02*
X82530238Y-127219556D01*
X82530238Y-127219556D02*
X82046428Y-127219556D01*
X83860714Y-126977651D02*
X83860714Y-127824318D01*
X83558333Y-126493842D02*
X83255952Y-127400984D01*
X83255952Y-127400984D02*
X84042143Y-127400984D01*
D14*
X39329580Y-138842857D02*
X39377200Y-138890476D01*
X39377200Y-138890476D02*
X39424819Y-139033333D01*
X39424819Y-139033333D02*
X39424819Y-139128571D01*
X39424819Y-139128571D02*
X39377200Y-139271428D01*
X39377200Y-139271428D02*
X39281961Y-139366666D01*
X39281961Y-139366666D02*
X39186723Y-139414285D01*
X39186723Y-139414285D02*
X38996247Y-139461904D01*
X38996247Y-139461904D02*
X38853390Y-139461904D01*
X38853390Y-139461904D02*
X38662914Y-139414285D01*
X38662914Y-139414285D02*
X38567676Y-139366666D01*
X38567676Y-139366666D02*
X38472438Y-139271428D01*
X38472438Y-139271428D02*
X38424819Y-139128571D01*
X38424819Y-139128571D02*
X38424819Y-139033333D01*
X38424819Y-139033333D02*
X38472438Y-138890476D01*
X38472438Y-138890476D02*
X38520057Y-138842857D01*
X39424819Y-137890476D02*
X39424819Y-138461904D01*
X39424819Y-138176190D02*
X38424819Y-138176190D01*
X38424819Y-138176190D02*
X38567676Y-138271428D01*
X38567676Y-138271428D02*
X38662914Y-138366666D01*
X38662914Y-138366666D02*
X38710533Y-138461904D01*
X38520057Y-137509523D02*
X38472438Y-137461904D01*
X38472438Y-137461904D02*
X38424819Y-137366666D01*
X38424819Y-137366666D02*
X38424819Y-137128571D01*
X38424819Y-137128571D02*
X38472438Y-137033333D01*
X38472438Y-137033333D02*
X38520057Y-136985714D01*
X38520057Y-136985714D02*
X38615295Y-136938095D01*
X38615295Y-136938095D02*
X38710533Y-136938095D01*
X38710533Y-136938095D02*
X38853390Y-136985714D01*
X38853390Y-136985714D02*
X39424819Y-137557142D01*
X39424819Y-137557142D02*
X39424819Y-136938095D01*
D13*
X71897381Y-126554318D02*
X72623095Y-126554318D01*
X72260238Y-127824318D02*
X72260238Y-126554318D01*
X73046428Y-127824318D02*
X73046428Y-126554318D01*
X73046428Y-126554318D02*
X73530238Y-126554318D01*
X73530238Y-126554318D02*
X73651190Y-126614794D01*
X73651190Y-126614794D02*
X73711667Y-126675270D01*
X73711667Y-126675270D02*
X73772143Y-126796222D01*
X73772143Y-126796222D02*
X73772143Y-126977651D01*
X73772143Y-126977651D02*
X73711667Y-127098603D01*
X73711667Y-127098603D02*
X73651190Y-127159080D01*
X73651190Y-127159080D02*
X73530238Y-127219556D01*
X73530238Y-127219556D02*
X73046428Y-127219556D01*
X74195476Y-126554318D02*
X74981667Y-126554318D01*
X74981667Y-126554318D02*
X74558333Y-127038127D01*
X74558333Y-127038127D02*
X74739762Y-127038127D01*
X74739762Y-127038127D02*
X74860714Y-127098603D01*
X74860714Y-127098603D02*
X74921190Y-127159080D01*
X74921190Y-127159080D02*
X74981667Y-127280032D01*
X74981667Y-127280032D02*
X74981667Y-127582413D01*
X74981667Y-127582413D02*
X74921190Y-127703365D01*
X74921190Y-127703365D02*
X74860714Y-127763842D01*
X74860714Y-127763842D02*
X74739762Y-127824318D01*
X74739762Y-127824318D02*
X74376905Y-127824318D01*
X74376905Y-127824318D02*
X74255952Y-127763842D01*
X74255952Y-127763842D02*
X74195476Y-127703365D01*
D14*
X49313095Y-87519819D02*
X49313095Y-88329342D01*
X49313095Y-88329342D02*
X49360714Y-88424580D01*
X49360714Y-88424580D02*
X49408333Y-88472200D01*
X49408333Y-88472200D02*
X49503571Y-88519819D01*
X49503571Y-88519819D02*
X49694047Y-88519819D01*
X49694047Y-88519819D02*
X49789285Y-88472200D01*
X49789285Y-88472200D02*
X49836904Y-88424580D01*
X49836904Y-88424580D02*
X49884523Y-88329342D01*
X49884523Y-88329342D02*
X49884523Y-87519819D01*
X50313095Y-87615057D02*
X50360714Y-87567438D01*
X50360714Y-87567438D02*
X50455952Y-87519819D01*
X50455952Y-87519819D02*
X50694047Y-87519819D01*
X50694047Y-87519819D02*
X50789285Y-87567438D01*
X50789285Y-87567438D02*
X50836904Y-87615057D01*
X50836904Y-87615057D02*
X50884523Y-87710295D01*
X50884523Y-87710295D02*
X50884523Y-87805533D01*
X50884523Y-87805533D02*
X50836904Y-87948390D01*
X50836904Y-87948390D02*
X50265476Y-88519819D01*
X50265476Y-88519819D02*
X50884523Y-88519819D01*
D13*
X87824318Y-95739762D02*
X86554318Y-95739762D01*
X87703365Y-94409285D02*
X87763842Y-94469761D01*
X87763842Y-94469761D02*
X87824318Y-94651190D01*
X87824318Y-94651190D02*
X87824318Y-94772142D01*
X87824318Y-94772142D02*
X87763842Y-94953571D01*
X87763842Y-94953571D02*
X87642889Y-95074523D01*
X87642889Y-95074523D02*
X87521937Y-95135000D01*
X87521937Y-95135000D02*
X87280032Y-95195476D01*
X87280032Y-95195476D02*
X87098603Y-95195476D01*
X87098603Y-95195476D02*
X86856699Y-95135000D01*
X86856699Y-95135000D02*
X86735746Y-95074523D01*
X86735746Y-95074523D02*
X86614794Y-94953571D01*
X86614794Y-94953571D02*
X86554318Y-94772142D01*
X86554318Y-94772142D02*
X86554318Y-94651190D01*
X86554318Y-94651190D02*
X86614794Y-94469761D01*
X86614794Y-94469761D02*
X86675270Y-94409285D01*
X87824318Y-93199761D02*
X87824318Y-93925476D01*
X87824318Y-93562619D02*
X86554318Y-93562619D01*
X86554318Y-93562619D02*
X86735746Y-93683571D01*
X86735746Y-93683571D02*
X86856699Y-93804523D01*
X86856699Y-93804523D02*
X86917175Y-93925476D01*
X38410237Y-141574318D02*
X38410237Y-140304318D01*
X39740714Y-141453365D02*
X39680238Y-141513842D01*
X39680238Y-141513842D02*
X39498809Y-141574318D01*
X39498809Y-141574318D02*
X39377857Y-141574318D01*
X39377857Y-141574318D02*
X39196428Y-141513842D01*
X39196428Y-141513842D02*
X39075476Y-141392889D01*
X39075476Y-141392889D02*
X39014999Y-141271937D01*
X39014999Y-141271937D02*
X38954523Y-141030032D01*
X38954523Y-141030032D02*
X38954523Y-140848603D01*
X38954523Y-140848603D02*
X39014999Y-140606699D01*
X39014999Y-140606699D02*
X39075476Y-140485746D01*
X39075476Y-140485746D02*
X39196428Y-140364794D01*
X39196428Y-140364794D02*
X39377857Y-140304318D01*
X39377857Y-140304318D02*
X39498809Y-140304318D01*
X39498809Y-140304318D02*
X39680238Y-140364794D01*
X39680238Y-140364794D02*
X39740714Y-140425270D01*
X40164047Y-140304318D02*
X41010714Y-140304318D01*
X41010714Y-140304318D02*
X40466428Y-141574318D01*
D14*
X45884819Y-97142857D02*
X45408628Y-97476190D01*
X45884819Y-97714285D02*
X44884819Y-97714285D01*
X44884819Y-97714285D02*
X44884819Y-97333333D01*
X44884819Y-97333333D02*
X44932438Y-97238095D01*
X44932438Y-97238095D02*
X44980057Y-97190476D01*
X44980057Y-97190476D02*
X45075295Y-97142857D01*
X45075295Y-97142857D02*
X45218152Y-97142857D01*
X45218152Y-97142857D02*
X45313390Y-97190476D01*
X45313390Y-97190476D02*
X45361009Y-97238095D01*
X45361009Y-97238095D02*
X45408628Y-97333333D01*
X45408628Y-97333333D02*
X45408628Y-97714285D01*
X45884819Y-96190476D02*
X45884819Y-96761904D01*
X45884819Y-96476190D02*
X44884819Y-96476190D01*
X44884819Y-96476190D02*
X45027676Y-96571428D01*
X45027676Y-96571428D02*
X45122914Y-96666666D01*
X45122914Y-96666666D02*
X45170533Y-96761904D01*
X44884819Y-95857142D02*
X44884819Y-95238095D01*
X44884819Y-95238095D02*
X45265771Y-95571428D01*
X45265771Y-95571428D02*
X45265771Y-95428571D01*
X45265771Y-95428571D02*
X45313390Y-95333333D01*
X45313390Y-95333333D02*
X45361009Y-95285714D01*
X45361009Y-95285714D02*
X45456247Y-95238095D01*
X45456247Y-95238095D02*
X45694342Y-95238095D01*
X45694342Y-95238095D02*
X45789580Y-95285714D01*
X45789580Y-95285714D02*
X45837200Y-95333333D01*
X45837200Y-95333333D02*
X45884819Y-95428571D01*
X45884819Y-95428571D02*
X45884819Y-95714285D01*
X45884819Y-95714285D02*
X45837200Y-95809523D01*
X45837200Y-95809523D02*
X45789580Y-95857142D01*
X41107142Y-90954819D02*
X40773809Y-90478628D01*
X40535714Y-90954819D02*
X40535714Y-89954819D01*
X40535714Y-89954819D02*
X40916666Y-89954819D01*
X40916666Y-89954819D02*
X41011904Y-90002438D01*
X41011904Y-90002438D02*
X41059523Y-90050057D01*
X41059523Y-90050057D02*
X41107142Y-90145295D01*
X41107142Y-90145295D02*
X41107142Y-90288152D01*
X41107142Y-90288152D02*
X41059523Y-90383390D01*
X41059523Y-90383390D02*
X41011904Y-90431009D01*
X41011904Y-90431009D02*
X40916666Y-90478628D01*
X40916666Y-90478628D02*
X40535714Y-90478628D01*
X42059523Y-90954819D02*
X41488095Y-90954819D01*
X41773809Y-90954819D02*
X41773809Y-89954819D01*
X41773809Y-89954819D02*
X41678571Y-90097676D01*
X41678571Y-90097676D02*
X41583333Y-90192914D01*
X41583333Y-90192914D02*
X41488095Y-90240533D01*
X42440476Y-90050057D02*
X42488095Y-90002438D01*
X42488095Y-90002438D02*
X42583333Y-89954819D01*
X42583333Y-89954819D02*
X42821428Y-89954819D01*
X42821428Y-89954819D02*
X42916666Y-90002438D01*
X42916666Y-90002438D02*
X42964285Y-90050057D01*
X42964285Y-90050057D02*
X43011904Y-90145295D01*
X43011904Y-90145295D02*
X43011904Y-90240533D01*
X43011904Y-90240533D02*
X42964285Y-90383390D01*
X42964285Y-90383390D02*
X42392857Y-90954819D01*
X42392857Y-90954819D02*
X43011904Y-90954819D01*
X76008333Y-117359580D02*
X75960714Y-117407200D01*
X75960714Y-117407200D02*
X75817857Y-117454819D01*
X75817857Y-117454819D02*
X75722619Y-117454819D01*
X75722619Y-117454819D02*
X75579762Y-117407200D01*
X75579762Y-117407200D02*
X75484524Y-117311961D01*
X75484524Y-117311961D02*
X75436905Y-117216723D01*
X75436905Y-117216723D02*
X75389286Y-117026247D01*
X75389286Y-117026247D02*
X75389286Y-116883390D01*
X75389286Y-116883390D02*
X75436905Y-116692914D01*
X75436905Y-116692914D02*
X75484524Y-116597676D01*
X75484524Y-116597676D02*
X75579762Y-116502438D01*
X75579762Y-116502438D02*
X75722619Y-116454819D01*
X75722619Y-116454819D02*
X75817857Y-116454819D01*
X75817857Y-116454819D02*
X75960714Y-116502438D01*
X75960714Y-116502438D02*
X76008333Y-116550057D01*
X76341667Y-116454819D02*
X77008333Y-116454819D01*
X77008333Y-116454819D02*
X76579762Y-117454819D01*
D13*
X41042619Y-75054318D02*
X41768333Y-75054318D01*
X41405476Y-76324318D02*
X41405476Y-75054318D01*
X42191666Y-76324318D02*
X42191666Y-75054318D01*
X42191666Y-75054318D02*
X42675476Y-75054318D01*
X42675476Y-75054318D02*
X42796428Y-75114794D01*
X42796428Y-75114794D02*
X42856905Y-75175270D01*
X42856905Y-75175270D02*
X42917381Y-75296222D01*
X42917381Y-75296222D02*
X42917381Y-75477651D01*
X42917381Y-75477651D02*
X42856905Y-75598603D01*
X42856905Y-75598603D02*
X42796428Y-75659080D01*
X42796428Y-75659080D02*
X42675476Y-75719556D01*
X42675476Y-75719556D02*
X42191666Y-75719556D01*
X43401190Y-75175270D02*
X43461666Y-75114794D01*
X43461666Y-75114794D02*
X43582619Y-75054318D01*
X43582619Y-75054318D02*
X43885000Y-75054318D01*
X43885000Y-75054318D02*
X44005952Y-75114794D01*
X44005952Y-75114794D02*
X44066428Y-75175270D01*
X44066428Y-75175270D02*
X44126905Y-75296222D01*
X44126905Y-75296222D02*
X44126905Y-75417175D01*
X44126905Y-75417175D02*
X44066428Y-75598603D01*
X44066428Y-75598603D02*
X43340714Y-76324318D01*
X43340714Y-76324318D02*
X44126905Y-76324318D01*
X44550238Y-75054318D02*
X45336429Y-75054318D01*
X45336429Y-75054318D02*
X44913095Y-75538127D01*
X44913095Y-75538127D02*
X45094524Y-75538127D01*
X45094524Y-75538127D02*
X45215476Y-75598603D01*
X45215476Y-75598603D02*
X45275952Y-75659080D01*
X45275952Y-75659080D02*
X45336429Y-75780032D01*
X45336429Y-75780032D02*
X45336429Y-76082413D01*
X45336429Y-76082413D02*
X45275952Y-76203365D01*
X45275952Y-76203365D02*
X45215476Y-76263842D01*
X45215476Y-76263842D02*
X45094524Y-76324318D01*
X45094524Y-76324318D02*
X44731667Y-76324318D01*
X44731667Y-76324318D02*
X44610714Y-76263842D01*
X44610714Y-76263842D02*
X44550238Y-76203365D01*
X105792619Y-118554318D02*
X106518333Y-118554318D01*
X106155476Y-119824318D02*
X106155476Y-118554318D01*
X106941666Y-119824318D02*
X106941666Y-118554318D01*
X106941666Y-118554318D02*
X107425476Y-118554318D01*
X107425476Y-118554318D02*
X107546428Y-118614794D01*
X107546428Y-118614794D02*
X107606905Y-118675270D01*
X107606905Y-118675270D02*
X107667381Y-118796222D01*
X107667381Y-118796222D02*
X107667381Y-118977651D01*
X107667381Y-118977651D02*
X107606905Y-119098603D01*
X107606905Y-119098603D02*
X107546428Y-119159080D01*
X107546428Y-119159080D02*
X107425476Y-119219556D01*
X107425476Y-119219556D02*
X106941666Y-119219556D01*
X108876905Y-119824318D02*
X108151190Y-119824318D01*
X108514047Y-119824318D02*
X108514047Y-118554318D01*
X108514047Y-118554318D02*
X108393095Y-118735746D01*
X108393095Y-118735746D02*
X108272143Y-118856699D01*
X108272143Y-118856699D02*
X108151190Y-118917175D01*
X110086429Y-119824318D02*
X109360714Y-119824318D01*
X109723571Y-119824318D02*
X109723571Y-118554318D01*
X109723571Y-118554318D02*
X109602619Y-118735746D01*
X109602619Y-118735746D02*
X109481667Y-118856699D01*
X109481667Y-118856699D02*
X109360714Y-118917175D01*
D14*
X77079761Y-109109580D02*
X77032142Y-109157200D01*
X77032142Y-109157200D02*
X76889285Y-109204819D01*
X76889285Y-109204819D02*
X76794047Y-109204819D01*
X76794047Y-109204819D02*
X76651190Y-109157200D01*
X76651190Y-109157200D02*
X76555952Y-109061961D01*
X76555952Y-109061961D02*
X76508333Y-108966723D01*
X76508333Y-108966723D02*
X76460714Y-108776247D01*
X76460714Y-108776247D02*
X76460714Y-108633390D01*
X76460714Y-108633390D02*
X76508333Y-108442914D01*
X76508333Y-108442914D02*
X76555952Y-108347676D01*
X76555952Y-108347676D02*
X76651190Y-108252438D01*
X76651190Y-108252438D02*
X76794047Y-108204819D01*
X76794047Y-108204819D02*
X76889285Y-108204819D01*
X76889285Y-108204819D02*
X77032142Y-108252438D01*
X77032142Y-108252438D02*
X77079761Y-108300057D01*
X77841666Y-108681009D02*
X77984523Y-108728628D01*
X77984523Y-108728628D02*
X78032142Y-108776247D01*
X78032142Y-108776247D02*
X78079761Y-108871485D01*
X78079761Y-108871485D02*
X78079761Y-109014342D01*
X78079761Y-109014342D02*
X78032142Y-109109580D01*
X78032142Y-109109580D02*
X77984523Y-109157200D01*
X77984523Y-109157200D02*
X77889285Y-109204819D01*
X77889285Y-109204819D02*
X77508333Y-109204819D01*
X77508333Y-109204819D02*
X77508333Y-108204819D01*
X77508333Y-108204819D02*
X77841666Y-108204819D01*
X77841666Y-108204819D02*
X77936904Y-108252438D01*
X77936904Y-108252438D02*
X77984523Y-108300057D01*
X77984523Y-108300057D02*
X78032142Y-108395295D01*
X78032142Y-108395295D02*
X78032142Y-108490533D01*
X78032142Y-108490533D02*
X77984523Y-108585771D01*
X77984523Y-108585771D02*
X77936904Y-108633390D01*
X77936904Y-108633390D02*
X77841666Y-108681009D01*
X77841666Y-108681009D02*
X77508333Y-108681009D01*
X78698809Y-108204819D02*
X78889285Y-108204819D01*
X78889285Y-108204819D02*
X78984523Y-108252438D01*
X78984523Y-108252438D02*
X79079761Y-108347676D01*
X79079761Y-108347676D02*
X79127380Y-108538152D01*
X79127380Y-108538152D02*
X79127380Y-108871485D01*
X79127380Y-108871485D02*
X79079761Y-109061961D01*
X79079761Y-109061961D02*
X78984523Y-109157200D01*
X78984523Y-109157200D02*
X78889285Y-109204819D01*
X78889285Y-109204819D02*
X78698809Y-109204819D01*
X78698809Y-109204819D02*
X78603571Y-109157200D01*
X78603571Y-109157200D02*
X78508333Y-109061961D01*
X78508333Y-109061961D02*
X78460714Y-108871485D01*
X78460714Y-108871485D02*
X78460714Y-108538152D01*
X78460714Y-108538152D02*
X78508333Y-108347676D01*
X78508333Y-108347676D02*
X78603571Y-108252438D01*
X78603571Y-108252438D02*
X78698809Y-108204819D01*
X79746428Y-108204819D02*
X79936904Y-108204819D01*
X79936904Y-108204819D02*
X80032142Y-108252438D01*
X80032142Y-108252438D02*
X80127380Y-108347676D01*
X80127380Y-108347676D02*
X80174999Y-108538152D01*
X80174999Y-108538152D02*
X80174999Y-108871485D01*
X80174999Y-108871485D02*
X80127380Y-109061961D01*
X80127380Y-109061961D02*
X80032142Y-109157200D01*
X80032142Y-109157200D02*
X79936904Y-109204819D01*
X79936904Y-109204819D02*
X79746428Y-109204819D01*
X79746428Y-109204819D02*
X79651190Y-109157200D01*
X79651190Y-109157200D02*
X79555952Y-109061961D01*
X79555952Y-109061961D02*
X79508333Y-108871485D01*
X79508333Y-108871485D02*
X79508333Y-108538152D01*
X79508333Y-108538152D02*
X79555952Y-108347676D01*
X79555952Y-108347676D02*
X79651190Y-108252438D01*
X79651190Y-108252438D02*
X79746428Y-108204819D01*
X80460714Y-108204819D02*
X81032142Y-108204819D01*
X80746428Y-109204819D02*
X80746428Y-108204819D01*
X81889285Y-109204819D02*
X81317857Y-109204819D01*
X81603571Y-109204819D02*
X81603571Y-108204819D01*
X81603571Y-108204819D02*
X81508333Y-108347676D01*
X81508333Y-108347676D02*
X81413095Y-108442914D01*
X81413095Y-108442914D02*
X81317857Y-108490533D01*
D13*
X36292619Y-82804318D02*
X37018333Y-82804318D01*
X36655476Y-84074318D02*
X36655476Y-82804318D01*
X37441666Y-84074318D02*
X37441666Y-82804318D01*
X37441666Y-82804318D02*
X37925476Y-82804318D01*
X37925476Y-82804318D02*
X38046428Y-82864794D01*
X38046428Y-82864794D02*
X38106905Y-82925270D01*
X38106905Y-82925270D02*
X38167381Y-83046222D01*
X38167381Y-83046222D02*
X38167381Y-83227651D01*
X38167381Y-83227651D02*
X38106905Y-83348603D01*
X38106905Y-83348603D02*
X38046428Y-83409080D01*
X38046428Y-83409080D02*
X37925476Y-83469556D01*
X37925476Y-83469556D02*
X37441666Y-83469556D01*
X38651190Y-82925270D02*
X38711666Y-82864794D01*
X38711666Y-82864794D02*
X38832619Y-82804318D01*
X38832619Y-82804318D02*
X39135000Y-82804318D01*
X39135000Y-82804318D02*
X39255952Y-82864794D01*
X39255952Y-82864794D02*
X39316428Y-82925270D01*
X39316428Y-82925270D02*
X39376905Y-83046222D01*
X39376905Y-83046222D02*
X39376905Y-83167175D01*
X39376905Y-83167175D02*
X39316428Y-83348603D01*
X39316428Y-83348603D02*
X38590714Y-84074318D01*
X38590714Y-84074318D02*
X39376905Y-84074318D01*
X40525952Y-82804318D02*
X39921190Y-82804318D01*
X39921190Y-82804318D02*
X39860714Y-83409080D01*
X39860714Y-83409080D02*
X39921190Y-83348603D01*
X39921190Y-83348603D02*
X40042143Y-83288127D01*
X40042143Y-83288127D02*
X40344524Y-83288127D01*
X40344524Y-83288127D02*
X40465476Y-83348603D01*
X40465476Y-83348603D02*
X40525952Y-83409080D01*
X40525952Y-83409080D02*
X40586429Y-83530032D01*
X40586429Y-83530032D02*
X40586429Y-83832413D01*
X40586429Y-83832413D02*
X40525952Y-83953365D01*
X40525952Y-83953365D02*
X40465476Y-84013842D01*
X40465476Y-84013842D02*
X40344524Y-84074318D01*
X40344524Y-84074318D02*
X40042143Y-84074318D01*
X40042143Y-84074318D02*
X39921190Y-84013842D01*
X39921190Y-84013842D02*
X39860714Y-83953365D01*
X68292619Y-91054318D02*
X69018333Y-91054318D01*
X68655476Y-92324318D02*
X68655476Y-91054318D01*
X69441666Y-92324318D02*
X69441666Y-91054318D01*
X69441666Y-91054318D02*
X69925476Y-91054318D01*
X69925476Y-91054318D02*
X70046428Y-91114794D01*
X70046428Y-91114794D02*
X70106905Y-91175270D01*
X70106905Y-91175270D02*
X70167381Y-91296222D01*
X70167381Y-91296222D02*
X70167381Y-91477651D01*
X70167381Y-91477651D02*
X70106905Y-91598603D01*
X70106905Y-91598603D02*
X70046428Y-91659080D01*
X70046428Y-91659080D02*
X69925476Y-91719556D01*
X69925476Y-91719556D02*
X69441666Y-91719556D01*
X71376905Y-92324318D02*
X70651190Y-92324318D01*
X71014047Y-92324318D02*
X71014047Y-91054318D01*
X71014047Y-91054318D02*
X70893095Y-91235746D01*
X70893095Y-91235746D02*
X70772143Y-91356699D01*
X70772143Y-91356699D02*
X70651190Y-91417175D01*
X72465476Y-91477651D02*
X72465476Y-92324318D01*
X72163095Y-90993842D02*
X71860714Y-91900984D01*
X71860714Y-91900984D02*
X72646905Y-91900984D01*
D14*
X87333333Y-115609580D02*
X87285714Y-115657200D01*
X87285714Y-115657200D02*
X87142857Y-115704819D01*
X87142857Y-115704819D02*
X87047619Y-115704819D01*
X87047619Y-115704819D02*
X86904762Y-115657200D01*
X86904762Y-115657200D02*
X86809524Y-115561961D01*
X86809524Y-115561961D02*
X86761905Y-115466723D01*
X86761905Y-115466723D02*
X86714286Y-115276247D01*
X86714286Y-115276247D02*
X86714286Y-115133390D01*
X86714286Y-115133390D02*
X86761905Y-114942914D01*
X86761905Y-114942914D02*
X86809524Y-114847676D01*
X86809524Y-114847676D02*
X86904762Y-114752438D01*
X86904762Y-114752438D02*
X87047619Y-114704819D01*
X87047619Y-114704819D02*
X87142857Y-114704819D01*
X87142857Y-114704819D02*
X87285714Y-114752438D01*
X87285714Y-114752438D02*
X87333333Y-114800057D01*
X88190476Y-114704819D02*
X88000000Y-114704819D01*
X88000000Y-114704819D02*
X87904762Y-114752438D01*
X87904762Y-114752438D02*
X87857143Y-114800057D01*
X87857143Y-114800057D02*
X87761905Y-114942914D01*
X87761905Y-114942914D02*
X87714286Y-115133390D01*
X87714286Y-115133390D02*
X87714286Y-115514342D01*
X87714286Y-115514342D02*
X87761905Y-115609580D01*
X87761905Y-115609580D02*
X87809524Y-115657200D01*
X87809524Y-115657200D02*
X87904762Y-115704819D01*
X87904762Y-115704819D02*
X88095238Y-115704819D01*
X88095238Y-115704819D02*
X88190476Y-115657200D01*
X88190476Y-115657200D02*
X88238095Y-115609580D01*
X88238095Y-115609580D02*
X88285714Y-115514342D01*
X88285714Y-115514342D02*
X88285714Y-115276247D01*
X88285714Y-115276247D02*
X88238095Y-115181009D01*
X88238095Y-115181009D02*
X88190476Y-115133390D01*
X88190476Y-115133390D02*
X88095238Y-115085771D01*
X88095238Y-115085771D02*
X87904762Y-115085771D01*
X87904762Y-115085771D02*
X87809524Y-115133390D01*
X87809524Y-115133390D02*
X87761905Y-115181009D01*
X87761905Y-115181009D02*
X87714286Y-115276247D01*
D13*
X79824318Y-112574762D02*
X78554318Y-112574762D01*
X79703365Y-111244285D02*
X79763842Y-111304761D01*
X79763842Y-111304761D02*
X79824318Y-111486190D01*
X79824318Y-111486190D02*
X79824318Y-111607142D01*
X79824318Y-111607142D02*
X79763842Y-111788571D01*
X79763842Y-111788571D02*
X79642889Y-111909523D01*
X79642889Y-111909523D02*
X79521937Y-111970000D01*
X79521937Y-111970000D02*
X79280032Y-112030476D01*
X79280032Y-112030476D02*
X79098603Y-112030476D01*
X79098603Y-112030476D02*
X78856699Y-111970000D01*
X78856699Y-111970000D02*
X78735746Y-111909523D01*
X78735746Y-111909523D02*
X78614794Y-111788571D01*
X78614794Y-111788571D02*
X78554318Y-111607142D01*
X78554318Y-111607142D02*
X78554318Y-111486190D01*
X78554318Y-111486190D02*
X78614794Y-111304761D01*
X78614794Y-111304761D02*
X78675270Y-111244285D01*
X78977651Y-110155714D02*
X79824318Y-110155714D01*
X78493842Y-110458095D02*
X79400984Y-110760476D01*
X79400984Y-110760476D02*
X79400984Y-109974285D01*
X88824318Y-112739762D02*
X87554318Y-112739762D01*
X88703365Y-111409285D02*
X88763842Y-111469761D01*
X88763842Y-111469761D02*
X88824318Y-111651190D01*
X88824318Y-111651190D02*
X88824318Y-111772142D01*
X88824318Y-111772142D02*
X88763842Y-111953571D01*
X88763842Y-111953571D02*
X88642889Y-112074523D01*
X88642889Y-112074523D02*
X88521937Y-112135000D01*
X88521937Y-112135000D02*
X88280032Y-112195476D01*
X88280032Y-112195476D02*
X88098603Y-112195476D01*
X88098603Y-112195476D02*
X87856699Y-112135000D01*
X87856699Y-112135000D02*
X87735746Y-112074523D01*
X87735746Y-112074523D02*
X87614794Y-111953571D01*
X87614794Y-111953571D02*
X87554318Y-111772142D01*
X87554318Y-111772142D02*
X87554318Y-111651190D01*
X87554318Y-111651190D02*
X87614794Y-111469761D01*
X87614794Y-111469761D02*
X87675270Y-111409285D01*
X87554318Y-110260238D02*
X87554318Y-110865000D01*
X87554318Y-110865000D02*
X88159080Y-110925476D01*
X88159080Y-110925476D02*
X88098603Y-110865000D01*
X88098603Y-110865000D02*
X88038127Y-110744047D01*
X88038127Y-110744047D02*
X88038127Y-110441666D01*
X88038127Y-110441666D02*
X88098603Y-110320714D01*
X88098603Y-110320714D02*
X88159080Y-110260238D01*
X88159080Y-110260238D02*
X88280032Y-110199761D01*
X88280032Y-110199761D02*
X88582413Y-110199761D01*
X88582413Y-110199761D02*
X88703365Y-110260238D01*
X88703365Y-110260238D02*
X88763842Y-110320714D01*
X88763842Y-110320714D02*
X88824318Y-110441666D01*
X88824318Y-110441666D02*
X88824318Y-110744047D01*
X88824318Y-110744047D02*
X88763842Y-110865000D01*
X88763842Y-110865000D02*
X88703365Y-110925476D01*
X63792619Y-56054318D02*
X64518333Y-56054318D01*
X64155476Y-57324318D02*
X64155476Y-56054318D01*
X64941666Y-57324318D02*
X64941666Y-56054318D01*
X64941666Y-56054318D02*
X65425476Y-56054318D01*
X65425476Y-56054318D02*
X65546428Y-56114794D01*
X65546428Y-56114794D02*
X65606905Y-56175270D01*
X65606905Y-56175270D02*
X65667381Y-56296222D01*
X65667381Y-56296222D02*
X65667381Y-56477651D01*
X65667381Y-56477651D02*
X65606905Y-56598603D01*
X65606905Y-56598603D02*
X65546428Y-56659080D01*
X65546428Y-56659080D02*
X65425476Y-56719556D01*
X65425476Y-56719556D02*
X64941666Y-56719556D01*
X66876905Y-57324318D02*
X66151190Y-57324318D01*
X66514047Y-57324318D02*
X66514047Y-56054318D01*
X66514047Y-56054318D02*
X66393095Y-56235746D01*
X66393095Y-56235746D02*
X66272143Y-56356699D01*
X66272143Y-56356699D02*
X66151190Y-56417175D01*
X67663095Y-56054318D02*
X67784048Y-56054318D01*
X67784048Y-56054318D02*
X67905000Y-56114794D01*
X67905000Y-56114794D02*
X67965476Y-56175270D01*
X67965476Y-56175270D02*
X68025952Y-56296222D01*
X68025952Y-56296222D02*
X68086429Y-56538127D01*
X68086429Y-56538127D02*
X68086429Y-56840508D01*
X68086429Y-56840508D02*
X68025952Y-57082413D01*
X68025952Y-57082413D02*
X67965476Y-57203365D01*
X67965476Y-57203365D02*
X67905000Y-57263842D01*
X67905000Y-57263842D02*
X67784048Y-57324318D01*
X67784048Y-57324318D02*
X67663095Y-57324318D01*
X67663095Y-57324318D02*
X67542143Y-57263842D01*
X67542143Y-57263842D02*
X67481667Y-57203365D01*
X67481667Y-57203365D02*
X67421190Y-57082413D01*
X67421190Y-57082413D02*
X67360714Y-56840508D01*
X67360714Y-56840508D02*
X67360714Y-56538127D01*
X67360714Y-56538127D02*
X67421190Y-56296222D01*
X67421190Y-56296222D02*
X67481667Y-56175270D01*
X67481667Y-56175270D02*
X67542143Y-56114794D01*
X67542143Y-56114794D02*
X67663095Y-56054318D01*
D14*
X71884819Y-77254166D02*
X71408628Y-77587499D01*
X71884819Y-77825594D02*
X70884819Y-77825594D01*
X70884819Y-77825594D02*
X70884819Y-77444642D01*
X70884819Y-77444642D02*
X70932438Y-77349404D01*
X70932438Y-77349404D02*
X70980057Y-77301785D01*
X70980057Y-77301785D02*
X71075295Y-77254166D01*
X71075295Y-77254166D02*
X71218152Y-77254166D01*
X71218152Y-77254166D02*
X71313390Y-77301785D01*
X71313390Y-77301785D02*
X71361009Y-77349404D01*
X71361009Y-77349404D02*
X71408628Y-77444642D01*
X71408628Y-77444642D02*
X71408628Y-77825594D01*
X70884819Y-76349404D02*
X70884819Y-76825594D01*
X70884819Y-76825594D02*
X71361009Y-76873213D01*
X71361009Y-76873213D02*
X71313390Y-76825594D01*
X71313390Y-76825594D02*
X71265771Y-76730356D01*
X71265771Y-76730356D02*
X71265771Y-76492261D01*
X71265771Y-76492261D02*
X71313390Y-76397023D01*
X71313390Y-76397023D02*
X71361009Y-76349404D01*
X71361009Y-76349404D02*
X71456247Y-76301785D01*
X71456247Y-76301785D02*
X71694342Y-76301785D01*
X71694342Y-76301785D02*
X71789580Y-76349404D01*
X71789580Y-76349404D02*
X71837200Y-76397023D01*
X71837200Y-76397023D02*
X71884819Y-76492261D01*
X71884819Y-76492261D02*
X71884819Y-76730356D01*
X71884819Y-76730356D02*
X71837200Y-76825594D01*
X71837200Y-76825594D02*
X71789580Y-76873213D01*
X38424819Y-93642857D02*
X37948628Y-93976190D01*
X38424819Y-94214285D02*
X37424819Y-94214285D01*
X37424819Y-94214285D02*
X37424819Y-93833333D01*
X37424819Y-93833333D02*
X37472438Y-93738095D01*
X37472438Y-93738095D02*
X37520057Y-93690476D01*
X37520057Y-93690476D02*
X37615295Y-93642857D01*
X37615295Y-93642857D02*
X37758152Y-93642857D01*
X37758152Y-93642857D02*
X37853390Y-93690476D01*
X37853390Y-93690476D02*
X37901009Y-93738095D01*
X37901009Y-93738095D02*
X37948628Y-93833333D01*
X37948628Y-93833333D02*
X37948628Y-94214285D01*
X38424819Y-92690476D02*
X38424819Y-93261904D01*
X38424819Y-92976190D02*
X37424819Y-92976190D01*
X37424819Y-92976190D02*
X37567676Y-93071428D01*
X37567676Y-93071428D02*
X37662914Y-93166666D01*
X37662914Y-93166666D02*
X37710533Y-93261904D01*
X37424819Y-92071428D02*
X37424819Y-91976190D01*
X37424819Y-91976190D02*
X37472438Y-91880952D01*
X37472438Y-91880952D02*
X37520057Y-91833333D01*
X37520057Y-91833333D02*
X37615295Y-91785714D01*
X37615295Y-91785714D02*
X37805771Y-91738095D01*
X37805771Y-91738095D02*
X38043866Y-91738095D01*
X38043866Y-91738095D02*
X38234342Y-91785714D01*
X38234342Y-91785714D02*
X38329580Y-91833333D01*
X38329580Y-91833333D02*
X38377200Y-91880952D01*
X38377200Y-91880952D02*
X38424819Y-91976190D01*
X38424819Y-91976190D02*
X38424819Y-92071428D01*
X38424819Y-92071428D02*
X38377200Y-92166666D01*
X38377200Y-92166666D02*
X38329580Y-92214285D01*
X38329580Y-92214285D02*
X38234342Y-92261904D01*
X38234342Y-92261904D02*
X38043866Y-92309523D01*
X38043866Y-92309523D02*
X37805771Y-92309523D01*
X37805771Y-92309523D02*
X37615295Y-92261904D01*
X37615295Y-92261904D02*
X37520057Y-92214285D01*
X37520057Y-92214285D02*
X37472438Y-92166666D01*
X37472438Y-92166666D02*
X37424819Y-92071428D01*
D13*
X55292619Y-88554318D02*
X56018333Y-88554318D01*
X55655476Y-89824318D02*
X55655476Y-88554318D01*
X56441666Y-89824318D02*
X56441666Y-88554318D01*
X56441666Y-88554318D02*
X56925476Y-88554318D01*
X56925476Y-88554318D02*
X57046428Y-88614794D01*
X57046428Y-88614794D02*
X57106905Y-88675270D01*
X57106905Y-88675270D02*
X57167381Y-88796222D01*
X57167381Y-88796222D02*
X57167381Y-88977651D01*
X57167381Y-88977651D02*
X57106905Y-89098603D01*
X57106905Y-89098603D02*
X57046428Y-89159080D01*
X57046428Y-89159080D02*
X56925476Y-89219556D01*
X56925476Y-89219556D02*
X56441666Y-89219556D01*
X57651190Y-88675270D02*
X57711666Y-88614794D01*
X57711666Y-88614794D02*
X57832619Y-88554318D01*
X57832619Y-88554318D02*
X58135000Y-88554318D01*
X58135000Y-88554318D02*
X58255952Y-88614794D01*
X58255952Y-88614794D02*
X58316428Y-88675270D01*
X58316428Y-88675270D02*
X58376905Y-88796222D01*
X58376905Y-88796222D02*
X58376905Y-88917175D01*
X58376905Y-88917175D02*
X58316428Y-89098603D01*
X58316428Y-89098603D02*
X57590714Y-89824318D01*
X57590714Y-89824318D02*
X58376905Y-89824318D01*
X59465476Y-88977651D02*
X59465476Y-89824318D01*
X59163095Y-88493842D02*
X58860714Y-89400984D01*
X58860714Y-89400984D02*
X59646905Y-89400984D01*
X66260237Y-116074318D02*
X66260237Y-114804318D01*
X67590714Y-115953365D02*
X67530238Y-116013842D01*
X67530238Y-116013842D02*
X67348809Y-116074318D01*
X67348809Y-116074318D02*
X67227857Y-116074318D01*
X67227857Y-116074318D02*
X67046428Y-116013842D01*
X67046428Y-116013842D02*
X66925476Y-115892889D01*
X66925476Y-115892889D02*
X66864999Y-115771937D01*
X66864999Y-115771937D02*
X66804523Y-115530032D01*
X66804523Y-115530032D02*
X66804523Y-115348603D01*
X66804523Y-115348603D02*
X66864999Y-115106699D01*
X66864999Y-115106699D02*
X66925476Y-114985746D01*
X66925476Y-114985746D02*
X67046428Y-114864794D01*
X67046428Y-114864794D02*
X67227857Y-114804318D01*
X67227857Y-114804318D02*
X67348809Y-114804318D01*
X67348809Y-114804318D02*
X67530238Y-114864794D01*
X67530238Y-114864794D02*
X67590714Y-114925270D01*
X68074523Y-114925270D02*
X68134999Y-114864794D01*
X68134999Y-114864794D02*
X68255952Y-114804318D01*
X68255952Y-114804318D02*
X68558333Y-114804318D01*
X68558333Y-114804318D02*
X68679285Y-114864794D01*
X68679285Y-114864794D02*
X68739761Y-114925270D01*
X68739761Y-114925270D02*
X68800238Y-115046222D01*
X68800238Y-115046222D02*
X68800238Y-115167175D01*
X68800238Y-115167175D02*
X68739761Y-115348603D01*
X68739761Y-115348603D02*
X68014047Y-116074318D01*
X68014047Y-116074318D02*
X68800238Y-116074318D01*
D14*
X57166666Y-139264819D02*
X57166666Y-139979104D01*
X57166666Y-139979104D02*
X57119047Y-140121961D01*
X57119047Y-140121961D02*
X57023809Y-140217200D01*
X57023809Y-140217200D02*
X56880952Y-140264819D01*
X56880952Y-140264819D02*
X56785714Y-140264819D01*
X57547619Y-139264819D02*
X58166666Y-139264819D01*
X58166666Y-139264819D02*
X57833333Y-139645771D01*
X57833333Y-139645771D02*
X57976190Y-139645771D01*
X57976190Y-139645771D02*
X58071428Y-139693390D01*
X58071428Y-139693390D02*
X58119047Y-139741009D01*
X58119047Y-139741009D02*
X58166666Y-139836247D01*
X58166666Y-139836247D02*
X58166666Y-140074342D01*
X58166666Y-140074342D02*
X58119047Y-140169580D01*
X58119047Y-140169580D02*
X58071428Y-140217200D01*
X58071428Y-140217200D02*
X57976190Y-140264819D01*
X57976190Y-140264819D02*
X57690476Y-140264819D01*
X57690476Y-140264819D02*
X57595238Y-140217200D01*
X57595238Y-140217200D02*
X57547619Y-140169580D01*
D13*
X70397381Y-122554318D02*
X71123095Y-122554318D01*
X70760238Y-123824318D02*
X70760238Y-122554318D01*
X71546428Y-123824318D02*
X71546428Y-122554318D01*
X71546428Y-122554318D02*
X72030238Y-122554318D01*
X72030238Y-122554318D02*
X72151190Y-122614794D01*
X72151190Y-122614794D02*
X72211667Y-122675270D01*
X72211667Y-122675270D02*
X72272143Y-122796222D01*
X72272143Y-122796222D02*
X72272143Y-122977651D01*
X72272143Y-122977651D02*
X72211667Y-123098603D01*
X72211667Y-123098603D02*
X72151190Y-123159080D01*
X72151190Y-123159080D02*
X72030238Y-123219556D01*
X72030238Y-123219556D02*
X71546428Y-123219556D01*
X72755952Y-122675270D02*
X72816428Y-122614794D01*
X72816428Y-122614794D02*
X72937381Y-122554318D01*
X72937381Y-122554318D02*
X73239762Y-122554318D01*
X73239762Y-122554318D02*
X73360714Y-122614794D01*
X73360714Y-122614794D02*
X73421190Y-122675270D01*
X73421190Y-122675270D02*
X73481667Y-122796222D01*
X73481667Y-122796222D02*
X73481667Y-122917175D01*
X73481667Y-122917175D02*
X73421190Y-123098603D01*
X73421190Y-123098603D02*
X72695476Y-123824318D01*
X72695476Y-123824318D02*
X73481667Y-123824318D01*
D14*
X77238095Y-71954819D02*
X77238095Y-72764342D01*
X77238095Y-72764342D02*
X77285714Y-72859580D01*
X77285714Y-72859580D02*
X77333333Y-72907200D01*
X77333333Y-72907200D02*
X77428571Y-72954819D01*
X77428571Y-72954819D02*
X77619047Y-72954819D01*
X77619047Y-72954819D02*
X77714285Y-72907200D01*
X77714285Y-72907200D02*
X77761904Y-72859580D01*
X77761904Y-72859580D02*
X77809523Y-72764342D01*
X77809523Y-72764342D02*
X77809523Y-71954819D01*
X78809523Y-72954819D02*
X78238095Y-72954819D01*
X78523809Y-72954819D02*
X78523809Y-71954819D01*
X78523809Y-71954819D02*
X78428571Y-72097676D01*
X78428571Y-72097676D02*
X78333333Y-72192914D01*
X78333333Y-72192914D02*
X78238095Y-72240533D01*
X73500000Y-72054817D02*
X73500000Y-72292912D01*
X73261905Y-72197674D02*
X73500000Y-72292912D01*
X73500000Y-72292912D02*
X73738095Y-72197674D01*
X73357143Y-72483388D02*
X73500000Y-72292912D01*
X73500000Y-72292912D02*
X73642857Y-72483388D01*
X73500000Y-72054817D02*
X73500000Y-72292912D01*
X73261905Y-72197674D02*
X73500000Y-72292912D01*
X73500000Y-72292912D02*
X73738095Y-72197674D01*
X73357143Y-72483388D02*
X73500000Y-72292912D01*
X73500000Y-72292912D02*
X73642857Y-72483388D01*
D13*
X73897381Y-82554318D02*
X74623095Y-82554318D01*
X74260238Y-83824318D02*
X74260238Y-82554318D01*
X75046428Y-83824318D02*
X75046428Y-82554318D01*
X75046428Y-82554318D02*
X75530238Y-82554318D01*
X75530238Y-82554318D02*
X75651190Y-82614794D01*
X75651190Y-82614794D02*
X75711667Y-82675270D01*
X75711667Y-82675270D02*
X75772143Y-82796222D01*
X75772143Y-82796222D02*
X75772143Y-82977651D01*
X75772143Y-82977651D02*
X75711667Y-83098603D01*
X75711667Y-83098603D02*
X75651190Y-83159080D01*
X75651190Y-83159080D02*
X75530238Y-83219556D01*
X75530238Y-83219556D02*
X75046428Y-83219556D01*
X76376905Y-83824318D02*
X76618809Y-83824318D01*
X76618809Y-83824318D02*
X76739762Y-83763842D01*
X76739762Y-83763842D02*
X76800238Y-83703365D01*
X76800238Y-83703365D02*
X76921190Y-83521937D01*
X76921190Y-83521937D02*
X76981667Y-83280032D01*
X76981667Y-83280032D02*
X76981667Y-82796222D01*
X76981667Y-82796222D02*
X76921190Y-82675270D01*
X76921190Y-82675270D02*
X76860714Y-82614794D01*
X76860714Y-82614794D02*
X76739762Y-82554318D01*
X76739762Y-82554318D02*
X76497857Y-82554318D01*
X76497857Y-82554318D02*
X76376905Y-82614794D01*
X76376905Y-82614794D02*
X76316428Y-82675270D01*
X76316428Y-82675270D02*
X76255952Y-82796222D01*
X76255952Y-82796222D02*
X76255952Y-83098603D01*
X76255952Y-83098603D02*
X76316428Y-83219556D01*
X76316428Y-83219556D02*
X76376905Y-83280032D01*
X76376905Y-83280032D02*
X76497857Y-83340508D01*
X76497857Y-83340508D02*
X76739762Y-83340508D01*
X76739762Y-83340508D02*
X76860714Y-83280032D01*
X76860714Y-83280032D02*
X76921190Y-83219556D01*
X76921190Y-83219556D02*
X76981667Y-83098603D01*
D14*
X85582142Y-86179580D02*
X85534523Y-86227200D01*
X85534523Y-86227200D02*
X85391666Y-86274819D01*
X85391666Y-86274819D02*
X85296428Y-86274819D01*
X85296428Y-86274819D02*
X85153571Y-86227200D01*
X85153571Y-86227200D02*
X85058333Y-86131961D01*
X85058333Y-86131961D02*
X85010714Y-86036723D01*
X85010714Y-86036723D02*
X84963095Y-85846247D01*
X84963095Y-85846247D02*
X84963095Y-85703390D01*
X84963095Y-85703390D02*
X85010714Y-85512914D01*
X85010714Y-85512914D02*
X85058333Y-85417676D01*
X85058333Y-85417676D02*
X85153571Y-85322438D01*
X85153571Y-85322438D02*
X85296428Y-85274819D01*
X85296428Y-85274819D02*
X85391666Y-85274819D01*
X85391666Y-85274819D02*
X85534523Y-85322438D01*
X85534523Y-85322438D02*
X85582142Y-85370057D01*
X86534523Y-86274819D02*
X85963095Y-86274819D01*
X86248809Y-86274819D02*
X86248809Y-85274819D01*
X86248809Y-85274819D02*
X86153571Y-85417676D01*
X86153571Y-85417676D02*
X86058333Y-85512914D01*
X86058333Y-85512914D02*
X85963095Y-85560533D01*
X87486904Y-86274819D02*
X86915476Y-86274819D01*
X87201190Y-86274819D02*
X87201190Y-85274819D01*
X87201190Y-85274819D02*
X87105952Y-85417676D01*
X87105952Y-85417676D02*
X87010714Y-85512914D01*
X87010714Y-85512914D02*
X86915476Y-85560533D01*
D13*
X51792619Y-104304318D02*
X52518333Y-104304318D01*
X52155476Y-105574318D02*
X52155476Y-104304318D01*
X52941666Y-105574318D02*
X52941666Y-104304318D01*
X52941666Y-104304318D02*
X53425476Y-104304318D01*
X53425476Y-104304318D02*
X53546428Y-104364794D01*
X53546428Y-104364794D02*
X53606905Y-104425270D01*
X53606905Y-104425270D02*
X53667381Y-104546222D01*
X53667381Y-104546222D02*
X53667381Y-104727651D01*
X53667381Y-104727651D02*
X53606905Y-104848603D01*
X53606905Y-104848603D02*
X53546428Y-104909080D01*
X53546428Y-104909080D02*
X53425476Y-104969556D01*
X53425476Y-104969556D02*
X52941666Y-104969556D01*
X54151190Y-104425270D02*
X54211666Y-104364794D01*
X54211666Y-104364794D02*
X54332619Y-104304318D01*
X54332619Y-104304318D02*
X54635000Y-104304318D01*
X54635000Y-104304318D02*
X54755952Y-104364794D01*
X54755952Y-104364794D02*
X54816428Y-104425270D01*
X54816428Y-104425270D02*
X54876905Y-104546222D01*
X54876905Y-104546222D02*
X54876905Y-104667175D01*
X54876905Y-104667175D02*
X54816428Y-104848603D01*
X54816428Y-104848603D02*
X54090714Y-105574318D01*
X54090714Y-105574318D02*
X54876905Y-105574318D01*
X55663095Y-104304318D02*
X55784048Y-104304318D01*
X55784048Y-104304318D02*
X55905000Y-104364794D01*
X55905000Y-104364794D02*
X55965476Y-104425270D01*
X55965476Y-104425270D02*
X56025952Y-104546222D01*
X56025952Y-104546222D02*
X56086429Y-104788127D01*
X56086429Y-104788127D02*
X56086429Y-105090508D01*
X56086429Y-105090508D02*
X56025952Y-105332413D01*
X56025952Y-105332413D02*
X55965476Y-105453365D01*
X55965476Y-105453365D02*
X55905000Y-105513842D01*
X55905000Y-105513842D02*
X55784048Y-105574318D01*
X55784048Y-105574318D02*
X55663095Y-105574318D01*
X55663095Y-105574318D02*
X55542143Y-105513842D01*
X55542143Y-105513842D02*
X55481667Y-105453365D01*
X55481667Y-105453365D02*
X55421190Y-105332413D01*
X55421190Y-105332413D02*
X55360714Y-105090508D01*
X55360714Y-105090508D02*
X55360714Y-104788127D01*
X55360714Y-104788127D02*
X55421190Y-104546222D01*
X55421190Y-104546222D02*
X55481667Y-104425270D01*
X55481667Y-104425270D02*
X55542143Y-104364794D01*
X55542143Y-104364794D02*
X55663095Y-104304318D01*
D14*
X43189580Y-130442857D02*
X43237200Y-130490476D01*
X43237200Y-130490476D02*
X43284819Y-130633333D01*
X43284819Y-130633333D02*
X43284819Y-130728571D01*
X43284819Y-130728571D02*
X43237200Y-130871428D01*
X43237200Y-130871428D02*
X43141961Y-130966666D01*
X43141961Y-130966666D02*
X43046723Y-131014285D01*
X43046723Y-131014285D02*
X42856247Y-131061904D01*
X42856247Y-131061904D02*
X42713390Y-131061904D01*
X42713390Y-131061904D02*
X42522914Y-131014285D01*
X42522914Y-131014285D02*
X42427676Y-130966666D01*
X42427676Y-130966666D02*
X42332438Y-130871428D01*
X42332438Y-130871428D02*
X42284819Y-130728571D01*
X42284819Y-130728571D02*
X42284819Y-130633333D01*
X42284819Y-130633333D02*
X42332438Y-130490476D01*
X42332438Y-130490476D02*
X42380057Y-130442857D01*
X43284819Y-129490476D02*
X43284819Y-130061904D01*
X43284819Y-129776190D02*
X42284819Y-129776190D01*
X42284819Y-129776190D02*
X42427676Y-129871428D01*
X42427676Y-129871428D02*
X42522914Y-129966666D01*
X42522914Y-129966666D02*
X42570533Y-130061904D01*
X42618152Y-128633333D02*
X43284819Y-128633333D01*
X42237200Y-128871428D02*
X42951485Y-129109523D01*
X42951485Y-129109523D02*
X42951485Y-128490476D01*
D13*
X102574318Y-105937381D02*
X101304318Y-105937381D01*
X101304318Y-105937381D02*
X101304318Y-105635000D01*
X101304318Y-105635000D02*
X101364794Y-105453571D01*
X101364794Y-105453571D02*
X101485746Y-105332619D01*
X101485746Y-105332619D02*
X101606699Y-105272142D01*
X101606699Y-105272142D02*
X101848603Y-105211666D01*
X101848603Y-105211666D02*
X102030032Y-105211666D01*
X102030032Y-105211666D02*
X102271937Y-105272142D01*
X102271937Y-105272142D02*
X102392889Y-105332619D01*
X102392889Y-105332619D02*
X102513842Y-105453571D01*
X102513842Y-105453571D02*
X102574318Y-105635000D01*
X102574318Y-105635000D02*
X102574318Y-105937381D01*
X101304318Y-104123095D02*
X101304318Y-104365000D01*
X101304318Y-104365000D02*
X101364794Y-104485952D01*
X101364794Y-104485952D02*
X101425270Y-104546428D01*
X101425270Y-104546428D02*
X101606699Y-104667381D01*
X101606699Y-104667381D02*
X101848603Y-104727857D01*
X101848603Y-104727857D02*
X102332413Y-104727857D01*
X102332413Y-104727857D02*
X102453365Y-104667381D01*
X102453365Y-104667381D02*
X102513842Y-104606904D01*
X102513842Y-104606904D02*
X102574318Y-104485952D01*
X102574318Y-104485952D02*
X102574318Y-104244047D01*
X102574318Y-104244047D02*
X102513842Y-104123095D01*
X102513842Y-104123095D02*
X102453365Y-104062619D01*
X102453365Y-104062619D02*
X102332413Y-104002142D01*
X102332413Y-104002142D02*
X102030032Y-104002142D01*
X102030032Y-104002142D02*
X101909080Y-104062619D01*
X101909080Y-104062619D02*
X101848603Y-104123095D01*
X101848603Y-104123095D02*
X101788127Y-104244047D01*
X101788127Y-104244047D02*
X101788127Y-104485952D01*
X101788127Y-104485952D02*
X101848603Y-104606904D01*
X101848603Y-104606904D02*
X101909080Y-104667381D01*
X101909080Y-104667381D02*
X102030032Y-104727857D01*
%TO.C,IC6*%
D15*
X81725000Y-105985000D02*
X84625000Y-105985000D01*
X81725000Y-106435000D02*
X81725000Y-105985000D01*
X84625000Y-105985000D02*
X84625000Y-106435000D01*
X84625000Y-106435000D02*
X81725000Y-106435000D01*
X84675000Y-104585000D02*
X84675000Y-105635000D01*
%TO.C,R11*%
D16*
X43977500Y-92254724D02*
X43977500Y-91745276D01*
X45022500Y-92254724D02*
X45022500Y-91745276D01*
%TO.C,R4*%
X69477500Y-72745276D02*
X69477500Y-73254724D01*
X70522500Y-72745276D02*
X70522500Y-73254724D01*
%TO.C,D5*%
D15*
X84200000Y-71350000D02*
X84600000Y-71350000D01*
X84200000Y-75650000D02*
X84200000Y-71350000D01*
X84600000Y-75650000D02*
X84200000Y-75650000D01*
X84600000Y-75650000D02*
X84600000Y-75650000D01*
D11*
X86000000Y-76900000D02*
X86000000Y-76900000D01*
X86000000Y-77000000D02*
X86000000Y-77000000D01*
D15*
X87400000Y-75650000D02*
X87800000Y-75650000D01*
X87800000Y-71350000D02*
X87400000Y-71350000D01*
X87800000Y-75650000D02*
X87800000Y-71350000D01*
D11*
X86000000Y-76900000D02*
G75*
G02*
X86000000Y-77000000I0J-50000D01*
G01*
X86000000Y-77000000D02*
G75*
G02*
X86000000Y-76900000I0J50000D01*
G01*
%TO.C,R21*%
D16*
X85652500Y-106464724D02*
X85652500Y-105955276D01*
X86697500Y-106464724D02*
X86697500Y-105955276D01*
%TO.C,TP16*%
D11*
X105500000Y-96500000D02*
X105500000Y-96500000D01*
X105600000Y-96500000D02*
X105600000Y-96500000D01*
X105500000Y-96500000D02*
G75*
G02*
X105600000Y-96500000I50000J0D01*
G01*
X105600000Y-96500000D02*
G75*
G02*
X105500000Y-96500000I-50000J0D01*
G01*
%TO.C,IC3*%
D15*
X84450000Y-116710000D02*
X85500000Y-116710000D01*
X85850000Y-116760000D02*
X86300000Y-116760000D01*
X85850000Y-119660000D02*
X85850000Y-116760000D01*
X86300000Y-116760000D02*
X86300000Y-119660000D01*
X86300000Y-119660000D02*
X85850000Y-119660000D01*
%TO.C,TP19*%
D11*
X91500000Y-91500000D02*
X91500000Y-91500000D01*
X91600000Y-91500000D02*
X91600000Y-91500000D01*
X91500000Y-91500000D02*
G75*
G02*
X91600000Y-91500000I50000J0D01*
G01*
X91600000Y-91500000D02*
G75*
G02*
X91500000Y-91500000I-50000J0D01*
G01*
%TO.C,R16*%
D16*
X46745276Y-99477500D02*
X47254724Y-99477500D01*
X46745276Y-100522500D02*
X47254724Y-100522500D01*
%TO.C,C8*%
X64990000Y-67359420D02*
X64990000Y-67640580D01*
X66010000Y-67359420D02*
X66010000Y-67640580D01*
%TO.C,C5*%
X78990000Y-75140580D02*
X78990000Y-74859420D01*
X80010000Y-75140580D02*
X80010000Y-74859420D01*
%TO.C,C1*%
X77590580Y-101700000D02*
X77309420Y-101700000D01*
X77590580Y-102720000D02*
X77309420Y-102720000D01*
%TO.C,R8*%
X88977500Y-98254724D02*
X88977500Y-97745276D01*
X90022500Y-98254724D02*
X90022500Y-97745276D01*
%TO.C,R1*%
X82920276Y-102687500D02*
X83429724Y-102687500D01*
X82920276Y-103732500D02*
X83429724Y-103732500D01*
%TO.C,C10*%
X92859420Y-98490000D02*
X93140580Y-98490000D01*
X92859420Y-99510000D02*
X93140580Y-99510000D01*
%TO.C,IC8*%
D15*
X44835000Y-130332000D02*
X44835000Y-121048000D01*
X45525000Y-121048000D02*
X51525000Y-121048000D01*
X51525000Y-130332000D02*
X45525000Y-130332000D01*
X52000000Y-121048000D02*
X52000000Y-130332000D01*
X54700000Y-130200000D02*
X52350000Y-130200000D01*
%TO.C,R7*%
D16*
X95977500Y-98254724D02*
X95977500Y-97745276D01*
X97022500Y-98254724D02*
X97022500Y-97745276D01*
%TO.C,C13*%
X56459420Y-140890000D02*
X56740580Y-140890000D01*
X56459420Y-141910000D02*
X56740580Y-141910000D01*
%TO.C,L1*%
D13*
X68250000Y-57750000D02*
X68250000Y-61000000D01*
X68250000Y-57750000D02*
X80750000Y-57750000D01*
X68250000Y-70250000D02*
X68250000Y-67000000D01*
X68250000Y-70250000D02*
X80750000Y-70250000D01*
X80750000Y-57750000D02*
X80750000Y-61000000D01*
X80750000Y-70250000D02*
X80750000Y-67000000D01*
%TO.C,C4*%
D16*
X74859420Y-71490000D02*
X75140580Y-71490000D01*
X74859420Y-72510000D02*
X75140580Y-72510000D01*
%TO.C,D7*%
D15*
X89700000Y-102850000D02*
X89700000Y-107150000D01*
X89700000Y-107150000D02*
X90100000Y-107150000D01*
X90100000Y-102850000D02*
X89700000Y-102850000D01*
D11*
X91500000Y-101500000D02*
X91500000Y-101500000D01*
X91500000Y-101600000D02*
X91500000Y-101600000D01*
D15*
X92900000Y-102850000D02*
X92900000Y-102850000D01*
X92900000Y-102850000D02*
X93300000Y-102850000D01*
X93300000Y-102850000D02*
X93300000Y-107150000D01*
X93300000Y-107150000D02*
X92900000Y-107150000D01*
D11*
X91500000Y-101500000D02*
G75*
G02*
X91500000Y-101600000I0J-50000D01*
G01*
X91500000Y-101600000D02*
G75*
G02*
X91500000Y-101500000I0J50000D01*
G01*
%TO.C,TP17*%
X65675000Y-110210000D02*
X65675000Y-110210000D01*
X65775000Y-110210000D02*
X65775000Y-110210000D01*
X65675000Y-110210000D02*
G75*
G02*
X65775000Y-110210000I50000J0D01*
G01*
X65775000Y-110210000D02*
G75*
G02*
X65675000Y-110210000I-50000J0D01*
G01*
%TO.C,C2*%
D15*
X88200000Y-128500000D02*
G75*
G02*
X88100000Y-128500000I-50000J0D01*
G01*
X88100000Y-128500000D02*
G75*
G02*
X88200000Y-128500000I50000J0D01*
G01*
%TO.C,C15*%
D16*
X56740580Y-122090000D02*
X56459420Y-122090000D01*
X56740580Y-123110000D02*
X56459420Y-123110000D01*
%TO.C,R22*%
X74152500Y-106464724D02*
X74152500Y-105955276D01*
X75197500Y-106464724D02*
X75197500Y-105955276D01*
%TO.C,R9*%
X43245276Y-86477500D02*
X43754724Y-86477500D01*
X43245276Y-87522500D02*
X43754724Y-87522500D01*
%TO.C,R3*%
D15*
X95500000Y-110425000D02*
X95500000Y-113575000D01*
%TO.C,TP21*%
D11*
X43765000Y-107920000D02*
X43765000Y-107920000D01*
X43865000Y-107920000D02*
X43865000Y-107920000D01*
X43765000Y-107920000D02*
G75*
G02*
X43865000Y-107920000I50000J0D01*
G01*
X43865000Y-107920000D02*
G75*
G02*
X43765000Y-107920000I-50000J0D01*
G01*
%TO.C,TP15*%
X90750000Y-119500000D02*
X90750000Y-119500000D01*
X90850000Y-119500000D02*
X90850000Y-119500000D01*
X90750000Y-119500000D02*
G75*
G02*
X90850000Y-119500000I50000J0D01*
G01*
X90850000Y-119500000D02*
G75*
G02*
X90750000Y-119500000I-50000J0D01*
G01*
%TO.C,TP1*%
X77675000Y-119710000D02*
X77675000Y-119710000D01*
X77775000Y-119710000D02*
X77775000Y-119710000D01*
X77675000Y-119710000D02*
G75*
G02*
X77775000Y-119710000I50000J0D01*
G01*
X77775000Y-119710000D02*
G75*
G02*
X77675000Y-119710000I-50000J0D01*
G01*
%TO.C,C9*%
D16*
X99859420Y-98490000D02*
X100140580Y-98490000D01*
X99859420Y-99510000D02*
X100140580Y-99510000D01*
%TO.C,PS1*%
D15*
X44235000Y-111950000D02*
X55765000Y-111950000D01*
X44235000Y-118050000D02*
X44235000Y-111950000D01*
D11*
X46185000Y-118570000D02*
X46185000Y-118570000D01*
X46185000Y-118670000D02*
X46185000Y-118670000D01*
D15*
X55765000Y-111950000D02*
X55765000Y-118050000D01*
X55765000Y-118050000D02*
X44235000Y-118050000D01*
D11*
X46185000Y-118570000D02*
G75*
G02*
X46185000Y-118670000I0J-50000D01*
G01*
X46185000Y-118670000D02*
G75*
G02*
X46185000Y-118570000I0J50000D01*
G01*
%TO.C,TP4*%
X80000000Y-130500000D02*
X80000000Y-130500000D01*
X80100000Y-130500000D02*
X80100000Y-130500000D01*
X80000000Y-130500000D02*
G75*
G02*
X80100000Y-130500000I50000J0D01*
G01*
X80100000Y-130500000D02*
G75*
G02*
X80000000Y-130500000I-50000J0D01*
G01*
%TO.C,C12*%
D16*
X39890000Y-138340580D02*
X39890000Y-138059420D01*
X40910000Y-138340580D02*
X40910000Y-138059420D01*
%TO.C,TP3*%
D11*
X71000000Y-130500000D02*
X71000000Y-130500000D01*
X71100000Y-130500000D02*
X71100000Y-130500000D01*
X71000000Y-130500000D02*
G75*
G02*
X71100000Y-130500000I50000J0D01*
G01*
X71100000Y-130500000D02*
G75*
G02*
X71000000Y-130500000I-50000J0D01*
G01*
%TO.C,U2*%
D17*
X49330000Y-89175000D02*
X51670000Y-89175000D01*
X49330000Y-97825000D02*
X51670000Y-97825000D01*
D15*
X46550000Y-89400000D02*
G75*
G02*
X46350000Y-89400000I-100000J0D01*
G01*
X46350000Y-89400000D02*
G75*
G02*
X46550000Y-89400000I100000J0D01*
G01*
%TO.C,IC1*%
X75355000Y-100175000D02*
X75355000Y-98245000D01*
X75358000Y-91105000D02*
X85642000Y-91105000D01*
X75358000Y-97895000D02*
X75358000Y-91105000D01*
X85642000Y-91105000D02*
X85642000Y-97895000D01*
X85642000Y-97895000D02*
X75358000Y-97895000D01*
%TO.C,IC7*%
X44900000Y-141642000D02*
X44900000Y-132358000D01*
X45500000Y-132358000D02*
X51500000Y-132358000D01*
X51500000Y-141642000D02*
X45500000Y-141642000D01*
X52100000Y-132358000D02*
X52100000Y-141642000D01*
X54200000Y-141510000D02*
X51850000Y-141510000D01*
%TO.C,R13*%
D16*
X43477500Y-96245276D02*
X43477500Y-96754724D01*
X44522500Y-96245276D02*
X44522500Y-96754724D01*
%TO.C,R12*%
X43754724Y-88477500D02*
X43245276Y-88477500D01*
X43754724Y-89522500D02*
X43245276Y-89522500D01*
%TO.C,C7*%
X76034420Y-114700000D02*
X76315580Y-114700000D01*
X76034420Y-115720000D02*
X76315580Y-115720000D01*
%TO.C,TP23*%
D11*
X40500000Y-79000000D02*
X40500000Y-79000000D01*
X40600000Y-79000000D02*
X40600000Y-79000000D01*
X40500000Y-79000000D02*
G75*
G02*
X40600000Y-79000000I50000J0D01*
G01*
X40600000Y-79000000D02*
G75*
G02*
X40500000Y-79000000I-50000J0D01*
G01*
%TO.C,TP11*%
X105500000Y-116500000D02*
X105500000Y-116500000D01*
X105600000Y-116500000D02*
X105600000Y-116500000D01*
X105500000Y-116500000D02*
G75*
G02*
X105600000Y-116500000I50000J0D01*
G01*
X105600000Y-116500000D02*
G75*
G02*
X105500000Y-116500000I-50000J0D01*
G01*
%TO.C,CBOOT1*%
D16*
X79315580Y-106700000D02*
X79034420Y-106700000D01*
X79315580Y-107720000D02*
X79034420Y-107720000D01*
%TO.C,TP25*%
D11*
X41500000Y-83500000D02*
X41500000Y-83500000D01*
X41600000Y-83500000D02*
X41600000Y-83500000D01*
X41500000Y-83500000D02*
G75*
G02*
X41600000Y-83500000I50000J0D01*
G01*
X41600000Y-83500000D02*
G75*
G02*
X41500000Y-83500000I-50000J0D01*
G01*
%TO.C,TP14*%
X68000000Y-94710000D02*
X68000000Y-94710000D01*
X68100000Y-94710000D02*
X68100000Y-94710000D01*
X68000000Y-94710000D02*
G75*
G02*
X68100000Y-94710000I50000J0D01*
G01*
X68100000Y-94710000D02*
G75*
G02*
X68000000Y-94710000I-50000J0D01*
G01*
%TO.C,C6*%
D16*
X84534420Y-114700000D02*
X84815580Y-114700000D01*
X84534420Y-115720000D02*
X84815580Y-115720000D01*
%TO.C,IC4*%
D11*
X76675000Y-109135000D02*
X76675000Y-109135000D01*
X76675000Y-109235000D02*
X76675000Y-109235000D01*
X76675000Y-109135000D02*
G75*
G02*
X76675000Y-109235000I0J-50000D01*
G01*
X76675000Y-109235000D02*
G75*
G02*
X76675000Y-109135000I0J50000D01*
G01*
%TO.C,IC5*%
X85175000Y-109135000D02*
X85175000Y-109135000D01*
X85175000Y-109235000D02*
X85175000Y-109235000D01*
X85175000Y-109135000D02*
G75*
G02*
X85175000Y-109235000I0J-50000D01*
G01*
X85175000Y-109235000D02*
G75*
G02*
X85175000Y-109135000I0J50000D01*
G01*
%TO.C,TP10*%
X67000000Y-53500000D02*
X67000000Y-53500000D01*
X67100000Y-53500000D02*
X67100000Y-53500000D01*
X67000000Y-53500000D02*
G75*
G02*
X67100000Y-53500000I50000J0D01*
G01*
X67100000Y-53500000D02*
G75*
G02*
X67000000Y-53500000I-50000J0D01*
G01*
%TO.C,R5*%
D16*
X69477500Y-76832776D02*
X69477500Y-77342224D01*
X70522500Y-76832776D02*
X70522500Y-77342224D01*
%TO.C,R10*%
X38877500Y-93254724D02*
X38877500Y-92745276D01*
X39922500Y-93254724D02*
X39922500Y-92745276D01*
%TO.C,TP24*%
D11*
X55000000Y-86500000D02*
X55000000Y-86500000D01*
X55100000Y-86500000D02*
X55100000Y-86500000D01*
X55000000Y-86500000D02*
G75*
G02*
X55100000Y-86500000I50000J0D01*
G01*
X55100000Y-86500000D02*
G75*
G02*
X55000000Y-86500000I-50000J0D01*
G01*
%TO.C,IC2*%
D15*
X70050000Y-113710000D02*
X71100000Y-113710000D01*
X71450000Y-113760000D02*
X71900000Y-113760000D01*
X71450000Y-116660000D02*
X71450000Y-113760000D01*
X71900000Y-113760000D02*
X71900000Y-116660000D01*
X71900000Y-116660000D02*
X71450000Y-116660000D01*
%TO.C,J3*%
D16*
X56170000Y-135770000D02*
X56170000Y-125550000D01*
X56170000Y-138370000D02*
X56170000Y-137040000D01*
X57500000Y-138370000D02*
X56170000Y-138370000D01*
X58830000Y-125550000D02*
X56170000Y-125550000D01*
X58830000Y-135770000D02*
X56170000Y-135770000D01*
X58830000Y-135770000D02*
X58830000Y-125550000D01*
%TO.C,TP2*%
D11*
X69500000Y-120000000D02*
X69500000Y-120000000D01*
X69600000Y-120000000D02*
X69600000Y-120000000D01*
X69500000Y-120000000D02*
G75*
G02*
X69600000Y-120000000I50000J0D01*
G01*
X69600000Y-120000000D02*
G75*
G02*
X69500000Y-120000000I-50000J0D01*
G01*
%TO.C,U1*%
D18*
X74131450Y-76700999D02*
X76138050Y-76700999D01*
X76138050Y-73398999D02*
X74131450Y-73398999D01*
%TO.C,TP9*%
D11*
X73000000Y-80000000D02*
X73000000Y-80000000D01*
X73100000Y-80000000D02*
X73100000Y-80000000D01*
X73000000Y-80000000D02*
G75*
G02*
X73100000Y-80000000I50000J0D01*
G01*
X73100000Y-80000000D02*
G75*
G02*
X73000000Y-80000000I-50000J0D01*
G01*
%TO.C,C11*%
D16*
X86084420Y-86740000D02*
X86365580Y-86740000D01*
X86084420Y-87760000D02*
X86365580Y-87760000D01*
%TO.C,TP20*%
D11*
X51765000Y-107920000D02*
X51765000Y-107920000D01*
X51865000Y-107920000D02*
X51865000Y-107920000D01*
X51765000Y-107920000D02*
G75*
G02*
X51865000Y-107920000I50000J0D01*
G01*
X51865000Y-107920000D02*
G75*
G02*
X51765000Y-107920000I-50000J0D01*
G01*
%TO.C,C14*%
D16*
X40890000Y-129659420D02*
X40890000Y-129940580D01*
X41910000Y-129659420D02*
X41910000Y-129940580D01*
%TO.C,D6*%
D15*
X96700000Y-102850000D02*
X96700000Y-107150000D01*
X96700000Y-107150000D02*
X97100000Y-107150000D01*
X97100000Y-102850000D02*
X96700000Y-102850000D01*
D11*
X98500000Y-101500000D02*
X98500000Y-101500000D01*
X98500000Y-101600000D02*
X98500000Y-101600000D01*
D15*
X99900000Y-102850000D02*
X99900000Y-102850000D01*
X99900000Y-102850000D02*
X100300000Y-102850000D01*
X100300000Y-102850000D02*
X100300000Y-107150000D01*
X100300000Y-107150000D02*
X99900000Y-107150000D01*
D11*
X98500000Y-101500000D02*
G75*
G02*
X98500000Y-101600000I0J-50000D01*
G01*
X98500000Y-101600000D02*
G75*
G02*
X98500000Y-101500000I0J50000D01*
G01*
%TD*%
M02*
