%TF.GenerationSoftware,KiCad,Pcbnew,10.0.5*%
%TF.CreationDate,2026-08-07T12:18:06-07:00*%
%TF.ProjectId,Secondary,5365636f-6e64-4617-9279-2e6b69636164,rev?*%
%TF.SameCoordinates,Original*%
%TF.FileFunction,Legend,Top*%
%TF.FilePolarity,Positive*%
%FSLAX46Y46*%
G04 Gerber Fmt 4.6, Leading zero omitted, Abs format (unit mm)*
G04 Created by KiCad (PCBNEW 10.0.5) date 2026-08-07 12:18:06*
%MOMM*%
%LPD*%
G01*
G04 APERTURE LIST*
%ADD10C,0.100000*%
%ADD11C,0.300000*%
%ADD12C,0.150000*%
%ADD13C,0.254000*%
%ADD14C,0.120000*%
%ADD15C,0.200000*%
G04 APERTURE END LIST*
D10*
X103303884Y-133872419D02*
X103303884Y-132872419D01*
X103303884Y-133253371D02*
X103399122Y-133205752D01*
X103399122Y-133205752D02*
X103589598Y-133205752D01*
X103589598Y-133205752D02*
X103684836Y-133253371D01*
X103684836Y-133253371D02*
X103732455Y-133300990D01*
X103732455Y-133300990D02*
X103780074Y-133396228D01*
X103780074Y-133396228D02*
X103780074Y-133681942D01*
X103780074Y-133681942D02*
X103732455Y-133777180D01*
X103732455Y-133777180D02*
X103684836Y-133824800D01*
X103684836Y-133824800D02*
X103589598Y-133872419D01*
X103589598Y-133872419D02*
X103399122Y-133872419D01*
X103399122Y-133872419D02*
X103303884Y-133824800D01*
X104065789Y-133205752D02*
X104446741Y-133205752D01*
X104208646Y-132872419D02*
X104208646Y-133729561D01*
X104208646Y-133729561D02*
X104256265Y-133824800D01*
X104256265Y-133824800D02*
X104351503Y-133872419D01*
X104351503Y-133872419D02*
X104446741Y-133872419D01*
X105208646Y-133872419D02*
X105208646Y-133348609D01*
X105208646Y-133348609D02*
X105161027Y-133253371D01*
X105161027Y-133253371D02*
X105065789Y-133205752D01*
X105065789Y-133205752D02*
X104875313Y-133205752D01*
X104875313Y-133205752D02*
X104780075Y-133253371D01*
X105208646Y-133824800D02*
X105113408Y-133872419D01*
X105113408Y-133872419D02*
X104875313Y-133872419D01*
X104875313Y-133872419D02*
X104780075Y-133824800D01*
X104780075Y-133824800D02*
X104732456Y-133729561D01*
X104732456Y-133729561D02*
X104732456Y-133634323D01*
X104732456Y-133634323D02*
X104780075Y-133539085D01*
X104780075Y-133539085D02*
X104875313Y-133491466D01*
X104875313Y-133491466D02*
X105113408Y-133491466D01*
X105113408Y-133491466D02*
X105208646Y-133443847D01*
X105684837Y-133205752D02*
X105684837Y-133872419D01*
X105684837Y-133300990D02*
X105732456Y-133253371D01*
X105732456Y-133253371D02*
X105827694Y-133205752D01*
X105827694Y-133205752D02*
X105970551Y-133205752D01*
X105970551Y-133205752D02*
X106065789Y-133253371D01*
X106065789Y-133253371D02*
X106113408Y-133348609D01*
X106113408Y-133348609D02*
X106113408Y-133872419D01*
X107018170Y-133205752D02*
X107018170Y-134205752D01*
X107018170Y-133824800D02*
X106922932Y-133872419D01*
X106922932Y-133872419D02*
X106732456Y-133872419D01*
X106732456Y-133872419D02*
X106637218Y-133824800D01*
X106637218Y-133824800D02*
X106589599Y-133777180D01*
X106589599Y-133777180D02*
X106541980Y-133681942D01*
X106541980Y-133681942D02*
X106541980Y-133396228D01*
X106541980Y-133396228D02*
X106589599Y-133300990D01*
X106589599Y-133300990D02*
X106637218Y-133253371D01*
X106637218Y-133253371D02*
X106732456Y-133205752D01*
X106732456Y-133205752D02*
X106922932Y-133205752D01*
X106922932Y-133205752D02*
X107018170Y-133253371D01*
X107399123Y-133205752D02*
X107637218Y-133872419D01*
X107875313Y-133205752D02*
X107637218Y-133872419D01*
X107637218Y-133872419D02*
X107541980Y-134110514D01*
X107541980Y-134110514D02*
X107494361Y-134158133D01*
X107494361Y-134158133D02*
X107399123Y-134205752D01*
X108970552Y-132967657D02*
X109018171Y-132920038D01*
X109018171Y-132920038D02*
X109113409Y-132872419D01*
X109113409Y-132872419D02*
X109351504Y-132872419D01*
X109351504Y-132872419D02*
X109446742Y-132920038D01*
X109446742Y-132920038D02*
X109494361Y-132967657D01*
X109494361Y-132967657D02*
X109541980Y-133062895D01*
X109541980Y-133062895D02*
X109541980Y-133158133D01*
X109541980Y-133158133D02*
X109494361Y-133300990D01*
X109494361Y-133300990D02*
X108922933Y-133872419D01*
X108922933Y-133872419D02*
X109541980Y-133872419D01*
X110161028Y-132872419D02*
X110256266Y-132872419D01*
X110256266Y-132872419D02*
X110351504Y-132920038D01*
X110351504Y-132920038D02*
X110399123Y-132967657D01*
X110399123Y-132967657D02*
X110446742Y-133062895D01*
X110446742Y-133062895D02*
X110494361Y-133253371D01*
X110494361Y-133253371D02*
X110494361Y-133491466D01*
X110494361Y-133491466D02*
X110446742Y-133681942D01*
X110446742Y-133681942D02*
X110399123Y-133777180D01*
X110399123Y-133777180D02*
X110351504Y-133824800D01*
X110351504Y-133824800D02*
X110256266Y-133872419D01*
X110256266Y-133872419D02*
X110161028Y-133872419D01*
X110161028Y-133872419D02*
X110065790Y-133824800D01*
X110065790Y-133824800D02*
X110018171Y-133777180D01*
X110018171Y-133777180D02*
X109970552Y-133681942D01*
X109970552Y-133681942D02*
X109922933Y-133491466D01*
X109922933Y-133491466D02*
X109922933Y-133253371D01*
X109922933Y-133253371D02*
X109970552Y-133062895D01*
X109970552Y-133062895D02*
X110018171Y-132967657D01*
X110018171Y-132967657D02*
X110065790Y-132920038D01*
X110065790Y-132920038D02*
X110161028Y-132872419D01*
X110875314Y-132967657D02*
X110922933Y-132920038D01*
X110922933Y-132920038D02*
X111018171Y-132872419D01*
X111018171Y-132872419D02*
X111256266Y-132872419D01*
X111256266Y-132872419D02*
X111351504Y-132920038D01*
X111351504Y-132920038D02*
X111399123Y-132967657D01*
X111399123Y-132967657D02*
X111446742Y-133062895D01*
X111446742Y-133062895D02*
X111446742Y-133158133D01*
X111446742Y-133158133D02*
X111399123Y-133300990D01*
X111399123Y-133300990D02*
X110827695Y-133872419D01*
X110827695Y-133872419D02*
X111446742Y-133872419D01*
X112303885Y-132872419D02*
X112113409Y-132872419D01*
X112113409Y-132872419D02*
X112018171Y-132920038D01*
X112018171Y-132920038D02*
X111970552Y-132967657D01*
X111970552Y-132967657D02*
X111875314Y-133110514D01*
X111875314Y-133110514D02*
X111827695Y-133300990D01*
X111827695Y-133300990D02*
X111827695Y-133681942D01*
X111827695Y-133681942D02*
X111875314Y-133777180D01*
X111875314Y-133777180D02*
X111922933Y-133824800D01*
X111922933Y-133824800D02*
X112018171Y-133872419D01*
X112018171Y-133872419D02*
X112208647Y-133872419D01*
X112208647Y-133872419D02*
X112303885Y-133824800D01*
X112303885Y-133824800D02*
X112351504Y-133777180D01*
X112351504Y-133777180D02*
X112399123Y-133681942D01*
X112399123Y-133681942D02*
X112399123Y-133443847D01*
X112399123Y-133443847D02*
X112351504Y-133348609D01*
X112351504Y-133348609D02*
X112303885Y-133300990D01*
X112303885Y-133300990D02*
X112208647Y-133253371D01*
X112208647Y-133253371D02*
X112018171Y-133253371D01*
X112018171Y-133253371D02*
X111922933Y-133300990D01*
X111922933Y-133300990D02*
X111875314Y-133348609D01*
X111875314Y-133348609D02*
X111827695Y-133443847D01*
D11*
X107140225Y-130800828D02*
X107711653Y-130800828D01*
X107354510Y-130300828D02*
X107354510Y-131586542D01*
X107354510Y-131586542D02*
X107425939Y-131729400D01*
X107425939Y-131729400D02*
X107568796Y-131800828D01*
X107568796Y-131800828D02*
X107711653Y-131800828D01*
X108854511Y-131729400D02*
X108711653Y-131800828D01*
X108711653Y-131800828D02*
X108425939Y-131800828D01*
X108425939Y-131800828D02*
X108283082Y-131729400D01*
X108283082Y-131729400D02*
X108211653Y-131657971D01*
X108211653Y-131657971D02*
X108140225Y-131515114D01*
X108140225Y-131515114D02*
X108140225Y-131086542D01*
X108140225Y-131086542D02*
X108211653Y-130943685D01*
X108211653Y-130943685D02*
X108283082Y-130872257D01*
X108283082Y-130872257D02*
X108425939Y-130800828D01*
X108425939Y-130800828D02*
X108711653Y-130800828D01*
X108711653Y-130800828D02*
X108854511Y-130872257D01*
D12*
X44234819Y-106142857D02*
X43758628Y-106476190D01*
X44234819Y-106714285D02*
X43234819Y-106714285D01*
X43234819Y-106714285D02*
X43234819Y-106333333D01*
X43234819Y-106333333D02*
X43282438Y-106238095D01*
X43282438Y-106238095D02*
X43330057Y-106190476D01*
X43330057Y-106190476D02*
X43425295Y-106142857D01*
X43425295Y-106142857D02*
X43568152Y-106142857D01*
X43568152Y-106142857D02*
X43663390Y-106190476D01*
X43663390Y-106190476D02*
X43711009Y-106238095D01*
X43711009Y-106238095D02*
X43758628Y-106333333D01*
X43758628Y-106333333D02*
X43758628Y-106714285D01*
X43330057Y-105761904D02*
X43282438Y-105714285D01*
X43282438Y-105714285D02*
X43234819Y-105619047D01*
X43234819Y-105619047D02*
X43234819Y-105380952D01*
X43234819Y-105380952D02*
X43282438Y-105285714D01*
X43282438Y-105285714D02*
X43330057Y-105238095D01*
X43330057Y-105238095D02*
X43425295Y-105190476D01*
X43425295Y-105190476D02*
X43520533Y-105190476D01*
X43520533Y-105190476D02*
X43663390Y-105238095D01*
X43663390Y-105238095D02*
X44234819Y-105809523D01*
X44234819Y-105809523D02*
X44234819Y-105190476D01*
X43234819Y-104571428D02*
X43234819Y-104476190D01*
X43234819Y-104476190D02*
X43282438Y-104380952D01*
X43282438Y-104380952D02*
X43330057Y-104333333D01*
X43330057Y-104333333D02*
X43425295Y-104285714D01*
X43425295Y-104285714D02*
X43615771Y-104238095D01*
X43615771Y-104238095D02*
X43853866Y-104238095D01*
X43853866Y-104238095D02*
X44044342Y-104285714D01*
X44044342Y-104285714D02*
X44139580Y-104333333D01*
X44139580Y-104333333D02*
X44187200Y-104380952D01*
X44187200Y-104380952D02*
X44234819Y-104476190D01*
X44234819Y-104476190D02*
X44234819Y-104571428D01*
X44234819Y-104571428D02*
X44187200Y-104666666D01*
X44187200Y-104666666D02*
X44139580Y-104714285D01*
X44139580Y-104714285D02*
X44044342Y-104761904D01*
X44044342Y-104761904D02*
X43853866Y-104809523D01*
X43853866Y-104809523D02*
X43615771Y-104809523D01*
X43615771Y-104809523D02*
X43425295Y-104761904D01*
X43425295Y-104761904D02*
X43330057Y-104714285D01*
X43330057Y-104714285D02*
X43282438Y-104666666D01*
X43282438Y-104666666D02*
X43234819Y-104571428D01*
X49666666Y-85604819D02*
X49666666Y-86319104D01*
X49666666Y-86319104D02*
X49619047Y-86461961D01*
X49619047Y-86461961D02*
X49523809Y-86557200D01*
X49523809Y-86557200D02*
X49380952Y-86604819D01*
X49380952Y-86604819D02*
X49285714Y-86604819D01*
X50047619Y-85604819D02*
X50666666Y-85604819D01*
X50666666Y-85604819D02*
X50333333Y-85985771D01*
X50333333Y-85985771D02*
X50476190Y-85985771D01*
X50476190Y-85985771D02*
X50571428Y-86033390D01*
X50571428Y-86033390D02*
X50619047Y-86081009D01*
X50619047Y-86081009D02*
X50666666Y-86176247D01*
X50666666Y-86176247D02*
X50666666Y-86414342D01*
X50666666Y-86414342D02*
X50619047Y-86509580D01*
X50619047Y-86509580D02*
X50571428Y-86557200D01*
X50571428Y-86557200D02*
X50476190Y-86604819D01*
X50476190Y-86604819D02*
X50190476Y-86604819D01*
X50190476Y-86604819D02*
X50095238Y-86557200D01*
X50095238Y-86557200D02*
X50047619Y-86509580D01*
X63357142Y-110634819D02*
X63023809Y-110158628D01*
X62785714Y-110634819D02*
X62785714Y-109634819D01*
X62785714Y-109634819D02*
X63166666Y-109634819D01*
X63166666Y-109634819D02*
X63261904Y-109682438D01*
X63261904Y-109682438D02*
X63309523Y-109730057D01*
X63309523Y-109730057D02*
X63357142Y-109825295D01*
X63357142Y-109825295D02*
X63357142Y-109968152D01*
X63357142Y-109968152D02*
X63309523Y-110063390D01*
X63309523Y-110063390D02*
X63261904Y-110111009D01*
X63261904Y-110111009D02*
X63166666Y-110158628D01*
X63166666Y-110158628D02*
X62785714Y-110158628D01*
X64309523Y-110634819D02*
X63738095Y-110634819D01*
X64023809Y-110634819D02*
X64023809Y-109634819D01*
X64023809Y-109634819D02*
X63928571Y-109777676D01*
X63928571Y-109777676D02*
X63833333Y-109872914D01*
X63833333Y-109872914D02*
X63738095Y-109920533D01*
X64785714Y-110634819D02*
X64976190Y-110634819D01*
X64976190Y-110634819D02*
X65071428Y-110587200D01*
X65071428Y-110587200D02*
X65119047Y-110539580D01*
X65119047Y-110539580D02*
X65214285Y-110396723D01*
X65214285Y-110396723D02*
X65261904Y-110206247D01*
X65261904Y-110206247D02*
X65261904Y-109825295D01*
X65261904Y-109825295D02*
X65214285Y-109730057D01*
X65214285Y-109730057D02*
X65166666Y-109682438D01*
X65166666Y-109682438D02*
X65071428Y-109634819D01*
X65071428Y-109634819D02*
X64880952Y-109634819D01*
X64880952Y-109634819D02*
X64785714Y-109682438D01*
X64785714Y-109682438D02*
X64738095Y-109730057D01*
X64738095Y-109730057D02*
X64690476Y-109825295D01*
X64690476Y-109825295D02*
X64690476Y-110063390D01*
X64690476Y-110063390D02*
X64738095Y-110158628D01*
X64738095Y-110158628D02*
X64785714Y-110206247D01*
X64785714Y-110206247D02*
X64880952Y-110253866D01*
X64880952Y-110253866D02*
X65071428Y-110253866D01*
X65071428Y-110253866D02*
X65166666Y-110206247D01*
X65166666Y-110206247D02*
X65214285Y-110158628D01*
X65214285Y-110158628D02*
X65261904Y-110063390D01*
D13*
X87074318Y-105437381D02*
X85804318Y-105437381D01*
X85804318Y-105437381D02*
X85804318Y-105135000D01*
X85804318Y-105135000D02*
X85864794Y-104953571D01*
X85864794Y-104953571D02*
X85985746Y-104832619D01*
X85985746Y-104832619D02*
X86106699Y-104772142D01*
X86106699Y-104772142D02*
X86348603Y-104711666D01*
X86348603Y-104711666D02*
X86530032Y-104711666D01*
X86530032Y-104711666D02*
X86771937Y-104772142D01*
X86771937Y-104772142D02*
X86892889Y-104832619D01*
X86892889Y-104832619D02*
X87013842Y-104953571D01*
X87013842Y-104953571D02*
X87074318Y-105135000D01*
X87074318Y-105135000D02*
X87074318Y-105437381D01*
X85925270Y-104227857D02*
X85864794Y-104167381D01*
X85864794Y-104167381D02*
X85804318Y-104046428D01*
X85804318Y-104046428D02*
X85804318Y-103744047D01*
X85804318Y-103744047D02*
X85864794Y-103623095D01*
X85864794Y-103623095D02*
X85925270Y-103562619D01*
X85925270Y-103562619D02*
X86046222Y-103502142D01*
X86046222Y-103502142D02*
X86167175Y-103502142D01*
X86167175Y-103502142D02*
X86348603Y-103562619D01*
X86348603Y-103562619D02*
X87074318Y-104288333D01*
X87074318Y-104288333D02*
X87074318Y-103502142D01*
X70574318Y-105437381D02*
X69304318Y-105437381D01*
X69304318Y-105437381D02*
X69304318Y-105135000D01*
X69304318Y-105135000D02*
X69364794Y-104953571D01*
X69364794Y-104953571D02*
X69485746Y-104832619D01*
X69485746Y-104832619D02*
X69606699Y-104772142D01*
X69606699Y-104772142D02*
X69848603Y-104711666D01*
X69848603Y-104711666D02*
X70030032Y-104711666D01*
X70030032Y-104711666D02*
X70271937Y-104772142D01*
X70271937Y-104772142D02*
X70392889Y-104832619D01*
X70392889Y-104832619D02*
X70513842Y-104953571D01*
X70513842Y-104953571D02*
X70574318Y-105135000D01*
X70574318Y-105135000D02*
X70574318Y-105437381D01*
X70574318Y-103502142D02*
X70574318Y-104227857D01*
X70574318Y-103865000D02*
X69304318Y-103865000D01*
X69304318Y-103865000D02*
X69485746Y-103985952D01*
X69485746Y-103985952D02*
X69606699Y-104106904D01*
X69606699Y-104106904D02*
X69667175Y-104227857D01*
X83562618Y-93574318D02*
X83562618Y-92304318D01*
X83562618Y-92304318D02*
X83864999Y-92304318D01*
X83864999Y-92304318D02*
X84046428Y-92364794D01*
X84046428Y-92364794D02*
X84167380Y-92485746D01*
X84167380Y-92485746D02*
X84227857Y-92606699D01*
X84227857Y-92606699D02*
X84288333Y-92848603D01*
X84288333Y-92848603D02*
X84288333Y-93030032D01*
X84288333Y-93030032D02*
X84227857Y-93271937D01*
X84227857Y-93271937D02*
X84167380Y-93392889D01*
X84167380Y-93392889D02*
X84046428Y-93513842D01*
X84046428Y-93513842D02*
X83864999Y-93574318D01*
X83864999Y-93574318D02*
X83562618Y-93574318D01*
X85376904Y-92727651D02*
X85376904Y-93574318D01*
X85074523Y-92243842D02*
X84772142Y-93150984D01*
X84772142Y-93150984D02*
X85558333Y-93150984D01*
X85397381Y-130804318D02*
X86123095Y-130804318D01*
X85760238Y-132074318D02*
X85760238Y-130804318D01*
X86546428Y-132074318D02*
X86546428Y-130804318D01*
X86546428Y-130804318D02*
X87030238Y-130804318D01*
X87030238Y-130804318D02*
X87151190Y-130864794D01*
X87151190Y-130864794D02*
X87211667Y-130925270D01*
X87211667Y-130925270D02*
X87272143Y-131046222D01*
X87272143Y-131046222D02*
X87272143Y-131227651D01*
X87272143Y-131227651D02*
X87211667Y-131348603D01*
X87211667Y-131348603D02*
X87151190Y-131409080D01*
X87151190Y-131409080D02*
X87030238Y-131469556D01*
X87030238Y-131469556D02*
X86546428Y-131469556D01*
X87695476Y-130804318D02*
X88542143Y-130804318D01*
X88542143Y-130804318D02*
X87997857Y-132074318D01*
X55788333Y-132074318D02*
X55364999Y-131469556D01*
X55062618Y-132074318D02*
X55062618Y-130804318D01*
X55062618Y-130804318D02*
X55546428Y-130804318D01*
X55546428Y-130804318D02*
X55667380Y-130864794D01*
X55667380Y-130864794D02*
X55727857Y-130925270D01*
X55727857Y-130925270D02*
X55788333Y-131046222D01*
X55788333Y-131046222D02*
X55788333Y-131227651D01*
X55788333Y-131227651D02*
X55727857Y-131348603D01*
X55727857Y-131348603D02*
X55667380Y-131409080D01*
X55667380Y-131409080D02*
X55546428Y-131469556D01*
X55546428Y-131469556D02*
X55062618Y-131469556D01*
X56272142Y-130925270D02*
X56332618Y-130864794D01*
X56332618Y-130864794D02*
X56453571Y-130804318D01*
X56453571Y-130804318D02*
X56755952Y-130804318D01*
X56755952Y-130804318D02*
X56876904Y-130864794D01*
X56876904Y-130864794D02*
X56937380Y-130925270D01*
X56937380Y-130925270D02*
X56997857Y-131046222D01*
X56997857Y-131046222D02*
X56997857Y-131167175D01*
X56997857Y-131167175D02*
X56937380Y-131348603D01*
X56937380Y-131348603D02*
X56211666Y-132074318D01*
X56211666Y-132074318D02*
X56997857Y-132074318D01*
X57860237Y-132549318D02*
X57860237Y-131279318D01*
X59190714Y-132428365D02*
X59130238Y-132488842D01*
X59130238Y-132488842D02*
X58948809Y-132549318D01*
X58948809Y-132549318D02*
X58827857Y-132549318D01*
X58827857Y-132549318D02*
X58646428Y-132488842D01*
X58646428Y-132488842D02*
X58525476Y-132367889D01*
X58525476Y-132367889D02*
X58464999Y-132246937D01*
X58464999Y-132246937D02*
X58404523Y-132005032D01*
X58404523Y-132005032D02*
X58404523Y-131823603D01*
X58404523Y-131823603D02*
X58464999Y-131581699D01*
X58464999Y-131581699D02*
X58525476Y-131460746D01*
X58525476Y-131460746D02*
X58646428Y-131339794D01*
X58646428Y-131339794D02*
X58827857Y-131279318D01*
X58827857Y-131279318D02*
X58948809Y-131279318D01*
X58948809Y-131279318D02*
X59130238Y-131339794D01*
X59130238Y-131339794D02*
X59190714Y-131400270D01*
X59795476Y-132549318D02*
X60037380Y-132549318D01*
X60037380Y-132549318D02*
X60158333Y-132488842D01*
X60158333Y-132488842D02*
X60218809Y-132428365D01*
X60218809Y-132428365D02*
X60339761Y-132246937D01*
X60339761Y-132246937D02*
X60400238Y-132005032D01*
X60400238Y-132005032D02*
X60400238Y-131521222D01*
X60400238Y-131521222D02*
X60339761Y-131400270D01*
X60339761Y-131400270D02*
X60279285Y-131339794D01*
X60279285Y-131339794D02*
X60158333Y-131279318D01*
X60158333Y-131279318D02*
X59916428Y-131279318D01*
X59916428Y-131279318D02*
X59795476Y-131339794D01*
X59795476Y-131339794D02*
X59734999Y-131400270D01*
X59734999Y-131400270D02*
X59674523Y-131521222D01*
X59674523Y-131521222D02*
X59674523Y-131823603D01*
X59674523Y-131823603D02*
X59734999Y-131944556D01*
X59734999Y-131944556D02*
X59795476Y-132005032D01*
X59795476Y-132005032D02*
X59916428Y-132065508D01*
X59916428Y-132065508D02*
X60158333Y-132065508D01*
X60158333Y-132065508D02*
X60279285Y-132005032D01*
X60279285Y-132005032D02*
X60339761Y-131944556D01*
X60339761Y-131944556D02*
X60400238Y-131823603D01*
X67397381Y-86804318D02*
X68123095Y-86804318D01*
X67760238Y-88074318D02*
X67760238Y-86804318D01*
X68546428Y-88074318D02*
X68546428Y-86804318D01*
X68546428Y-86804318D02*
X69030238Y-86804318D01*
X69030238Y-86804318D02*
X69151190Y-86864794D01*
X69151190Y-86864794D02*
X69211667Y-86925270D01*
X69211667Y-86925270D02*
X69272143Y-87046222D01*
X69272143Y-87046222D02*
X69272143Y-87227651D01*
X69272143Y-87227651D02*
X69211667Y-87348603D01*
X69211667Y-87348603D02*
X69151190Y-87409080D01*
X69151190Y-87409080D02*
X69030238Y-87469556D01*
X69030238Y-87469556D02*
X68546428Y-87469556D01*
X70421190Y-86804318D02*
X69816428Y-86804318D01*
X69816428Y-86804318D02*
X69755952Y-87409080D01*
X69755952Y-87409080D02*
X69816428Y-87348603D01*
X69816428Y-87348603D02*
X69937381Y-87288127D01*
X69937381Y-87288127D02*
X70239762Y-87288127D01*
X70239762Y-87288127D02*
X70360714Y-87348603D01*
X70360714Y-87348603D02*
X70421190Y-87409080D01*
X70421190Y-87409080D02*
X70481667Y-87530032D01*
X70481667Y-87530032D02*
X70481667Y-87832413D01*
X70481667Y-87832413D02*
X70421190Y-87953365D01*
X70421190Y-87953365D02*
X70360714Y-88013842D01*
X70360714Y-88013842D02*
X70239762Y-88074318D01*
X70239762Y-88074318D02*
X69937381Y-88074318D01*
X69937381Y-88074318D02*
X69816428Y-88013842D01*
X69816428Y-88013842D02*
X69755952Y-87953365D01*
X70562618Y-93574318D02*
X70562618Y-92304318D01*
X70562618Y-92304318D02*
X70864999Y-92304318D01*
X70864999Y-92304318D02*
X71046428Y-92364794D01*
X71046428Y-92364794D02*
X71167380Y-92485746D01*
X71167380Y-92485746D02*
X71227857Y-92606699D01*
X71227857Y-92606699D02*
X71288333Y-92848603D01*
X71288333Y-92848603D02*
X71288333Y-93030032D01*
X71288333Y-93030032D02*
X71227857Y-93271937D01*
X71227857Y-93271937D02*
X71167380Y-93392889D01*
X71167380Y-93392889D02*
X71046428Y-93513842D01*
X71046428Y-93513842D02*
X70864999Y-93574318D01*
X70864999Y-93574318D02*
X70562618Y-93574318D01*
X71711666Y-92304318D02*
X72497857Y-92304318D01*
X72497857Y-92304318D02*
X72074523Y-92788127D01*
X72074523Y-92788127D02*
X72255952Y-92788127D01*
X72255952Y-92788127D02*
X72376904Y-92848603D01*
X72376904Y-92848603D02*
X72437380Y-92909080D01*
X72437380Y-92909080D02*
X72497857Y-93030032D01*
X72497857Y-93030032D02*
X72497857Y-93332413D01*
X72497857Y-93332413D02*
X72437380Y-93453365D01*
X72437380Y-93453365D02*
X72376904Y-93513842D01*
X72376904Y-93513842D02*
X72255952Y-93574318D01*
X72255952Y-93574318D02*
X71893095Y-93574318D01*
X71893095Y-93574318D02*
X71772142Y-93513842D01*
X71772142Y-93513842D02*
X71711666Y-93453365D01*
X64397381Y-130804318D02*
X65123095Y-130804318D01*
X64760238Y-132074318D02*
X64760238Y-130804318D01*
X65546428Y-132074318D02*
X65546428Y-130804318D01*
X65546428Y-130804318D02*
X66030238Y-130804318D01*
X66030238Y-130804318D02*
X66151190Y-130864794D01*
X66151190Y-130864794D02*
X66211667Y-130925270D01*
X66211667Y-130925270D02*
X66272143Y-131046222D01*
X66272143Y-131046222D02*
X66272143Y-131227651D01*
X66272143Y-131227651D02*
X66211667Y-131348603D01*
X66211667Y-131348603D02*
X66151190Y-131409080D01*
X66151190Y-131409080D02*
X66030238Y-131469556D01*
X66030238Y-131469556D02*
X65546428Y-131469556D01*
X66997857Y-131348603D02*
X66876905Y-131288127D01*
X66876905Y-131288127D02*
X66816428Y-131227651D01*
X66816428Y-131227651D02*
X66755952Y-131106699D01*
X66755952Y-131106699D02*
X66755952Y-131046222D01*
X66755952Y-131046222D02*
X66816428Y-130925270D01*
X66816428Y-130925270D02*
X66876905Y-130864794D01*
X66876905Y-130864794D02*
X66997857Y-130804318D01*
X66997857Y-130804318D02*
X67239762Y-130804318D01*
X67239762Y-130804318D02*
X67360714Y-130864794D01*
X67360714Y-130864794D02*
X67421190Y-130925270D01*
X67421190Y-130925270D02*
X67481667Y-131046222D01*
X67481667Y-131046222D02*
X67481667Y-131106699D01*
X67481667Y-131106699D02*
X67421190Y-131227651D01*
X67421190Y-131227651D02*
X67360714Y-131288127D01*
X67360714Y-131288127D02*
X67239762Y-131348603D01*
X67239762Y-131348603D02*
X66997857Y-131348603D01*
X66997857Y-131348603D02*
X66876905Y-131409080D01*
X66876905Y-131409080D02*
X66816428Y-131469556D01*
X66816428Y-131469556D02*
X66755952Y-131590508D01*
X66755952Y-131590508D02*
X66755952Y-131832413D01*
X66755952Y-131832413D02*
X66816428Y-131953365D01*
X66816428Y-131953365D02*
X66876905Y-132013842D01*
X66876905Y-132013842D02*
X66997857Y-132074318D01*
X66997857Y-132074318D02*
X67239762Y-132074318D01*
X67239762Y-132074318D02*
X67360714Y-132013842D01*
X67360714Y-132013842D02*
X67421190Y-131953365D01*
X67421190Y-131953365D02*
X67481667Y-131832413D01*
X67481667Y-131832413D02*
X67481667Y-131590508D01*
X67481667Y-131590508D02*
X67421190Y-131469556D01*
X67421190Y-131469556D02*
X67360714Y-131409080D01*
X67360714Y-131409080D02*
X67239762Y-131348603D01*
X84897381Y-86804318D02*
X85623095Y-86804318D01*
X85260238Y-88074318D02*
X85260238Y-86804318D01*
X86046428Y-88074318D02*
X86046428Y-86804318D01*
X86046428Y-86804318D02*
X86530238Y-86804318D01*
X86530238Y-86804318D02*
X86651190Y-86864794D01*
X86651190Y-86864794D02*
X86711667Y-86925270D01*
X86711667Y-86925270D02*
X86772143Y-87046222D01*
X86772143Y-87046222D02*
X86772143Y-87227651D01*
X86772143Y-87227651D02*
X86711667Y-87348603D01*
X86711667Y-87348603D02*
X86651190Y-87409080D01*
X86651190Y-87409080D02*
X86530238Y-87469556D01*
X86530238Y-87469556D02*
X86046428Y-87469556D01*
X87860714Y-86804318D02*
X87618809Y-86804318D01*
X87618809Y-86804318D02*
X87497857Y-86864794D01*
X87497857Y-86864794D02*
X87437381Y-86925270D01*
X87437381Y-86925270D02*
X87316428Y-87106699D01*
X87316428Y-87106699D02*
X87255952Y-87348603D01*
X87255952Y-87348603D02*
X87255952Y-87832413D01*
X87255952Y-87832413D02*
X87316428Y-87953365D01*
X87316428Y-87953365D02*
X87376905Y-88013842D01*
X87376905Y-88013842D02*
X87497857Y-88074318D01*
X87497857Y-88074318D02*
X87739762Y-88074318D01*
X87739762Y-88074318D02*
X87860714Y-88013842D01*
X87860714Y-88013842D02*
X87921190Y-87953365D01*
X87921190Y-87953365D02*
X87981667Y-87832413D01*
X87981667Y-87832413D02*
X87981667Y-87530032D01*
X87981667Y-87530032D02*
X87921190Y-87409080D01*
X87921190Y-87409080D02*
X87860714Y-87348603D01*
X87860714Y-87348603D02*
X87739762Y-87288127D01*
X87739762Y-87288127D02*
X87497857Y-87288127D01*
X87497857Y-87288127D02*
X87376905Y-87348603D01*
X87376905Y-87348603D02*
X87316428Y-87409080D01*
X87316428Y-87409080D02*
X87255952Y-87530032D01*
X94788333Y-118953365D02*
X94727857Y-119013842D01*
X94727857Y-119013842D02*
X94546428Y-119074318D01*
X94546428Y-119074318D02*
X94425476Y-119074318D01*
X94425476Y-119074318D02*
X94244047Y-119013842D01*
X94244047Y-119013842D02*
X94123095Y-118892889D01*
X94123095Y-118892889D02*
X94062618Y-118771937D01*
X94062618Y-118771937D02*
X94002142Y-118530032D01*
X94002142Y-118530032D02*
X94002142Y-118348603D01*
X94002142Y-118348603D02*
X94062618Y-118106699D01*
X94062618Y-118106699D02*
X94123095Y-117985746D01*
X94123095Y-117985746D02*
X94244047Y-117864794D01*
X94244047Y-117864794D02*
X94425476Y-117804318D01*
X94425476Y-117804318D02*
X94546428Y-117804318D01*
X94546428Y-117804318D02*
X94727857Y-117864794D01*
X94727857Y-117864794D02*
X94788333Y-117925270D01*
X95211666Y-117804318D02*
X95997857Y-117804318D01*
X95997857Y-117804318D02*
X95574523Y-118288127D01*
X95574523Y-118288127D02*
X95755952Y-118288127D01*
X95755952Y-118288127D02*
X95876904Y-118348603D01*
X95876904Y-118348603D02*
X95937380Y-118409080D01*
X95937380Y-118409080D02*
X95997857Y-118530032D01*
X95997857Y-118530032D02*
X95997857Y-118832413D01*
X95997857Y-118832413D02*
X95937380Y-118953365D01*
X95937380Y-118953365D02*
X95876904Y-119013842D01*
X95876904Y-119013842D02*
X95755952Y-119074318D01*
X95755952Y-119074318D02*
X95393095Y-119074318D01*
X95393095Y-119074318D02*
X95272142Y-119013842D01*
X95272142Y-119013842D02*
X95211666Y-118953365D01*
X47792619Y-108804318D02*
X48518333Y-108804318D01*
X48155476Y-110074318D02*
X48155476Y-108804318D01*
X48941666Y-110074318D02*
X48941666Y-108804318D01*
X48941666Y-108804318D02*
X49425476Y-108804318D01*
X49425476Y-108804318D02*
X49546428Y-108864794D01*
X49546428Y-108864794D02*
X49606905Y-108925270D01*
X49606905Y-108925270D02*
X49667381Y-109046222D01*
X49667381Y-109046222D02*
X49667381Y-109227651D01*
X49667381Y-109227651D02*
X49606905Y-109348603D01*
X49606905Y-109348603D02*
X49546428Y-109409080D01*
X49546428Y-109409080D02*
X49425476Y-109469556D01*
X49425476Y-109469556D02*
X48941666Y-109469556D01*
X50151190Y-108925270D02*
X50211666Y-108864794D01*
X50211666Y-108864794D02*
X50332619Y-108804318D01*
X50332619Y-108804318D02*
X50635000Y-108804318D01*
X50635000Y-108804318D02*
X50755952Y-108864794D01*
X50755952Y-108864794D02*
X50816428Y-108925270D01*
X50816428Y-108925270D02*
X50876905Y-109046222D01*
X50876905Y-109046222D02*
X50876905Y-109167175D01*
X50876905Y-109167175D02*
X50816428Y-109348603D01*
X50816428Y-109348603D02*
X50090714Y-110074318D01*
X50090714Y-110074318D02*
X50876905Y-110074318D01*
X51360714Y-108925270D02*
X51421190Y-108864794D01*
X51421190Y-108864794D02*
X51542143Y-108804318D01*
X51542143Y-108804318D02*
X51844524Y-108804318D01*
X51844524Y-108804318D02*
X51965476Y-108864794D01*
X51965476Y-108864794D02*
X52025952Y-108925270D01*
X52025952Y-108925270D02*
X52086429Y-109046222D01*
X52086429Y-109046222D02*
X52086429Y-109167175D01*
X52086429Y-109167175D02*
X52025952Y-109348603D01*
X52025952Y-109348603D02*
X51300238Y-110074318D01*
X51300238Y-110074318D02*
X52086429Y-110074318D01*
%TO.C,R20*%
D14*
X40145000Y-104776263D02*
X40145000Y-106223737D01*
X42855000Y-104776263D02*
X42855000Y-106223737D01*
%TO.C,J3*%
X48670000Y-90190000D02*
X48670000Y-100410000D01*
X48670000Y-90190000D02*
X51330000Y-90190000D01*
X48670000Y-100410000D02*
X51330000Y-100410000D01*
X50000000Y-87590000D02*
X51330000Y-87590000D01*
X51330000Y-87590000D02*
X51330000Y-88920000D01*
X51330000Y-90190000D02*
X51330000Y-100410000D01*
%TO.C,R19*%
X42580000Y-114500000D02*
X44880000Y-114500000D01*
X85420000Y-114500000D02*
X83120000Y-114500000D01*
X44880000Y-111180000D02*
X83120000Y-111180000D01*
X83120000Y-117820000D01*
X44880000Y-117820000D01*
X44880000Y-111180000D01*
%TO.C,D2*%
D15*
X80200000Y-102350000D02*
X80600000Y-102350000D01*
X80200000Y-106650000D02*
X80200000Y-102350000D01*
X80600000Y-106650000D02*
X80200000Y-106650000D01*
X80600000Y-106650000D02*
X80600000Y-106650000D01*
D10*
X82000000Y-107900000D02*
X82000000Y-107900000D01*
X82000000Y-108000000D02*
X82000000Y-108000000D01*
D15*
X83400000Y-106650000D02*
X83800000Y-106650000D01*
X83800000Y-102350000D02*
X83400000Y-102350000D01*
X83800000Y-106650000D02*
X83800000Y-102350000D01*
D10*
X82000000Y-107900000D02*
G75*
G02*
X82000000Y-108000000I0J-50000D01*
G01*
X82000000Y-108000000D02*
G75*
G02*
X82000000Y-107900000I0J50000D01*
G01*
%TO.C,D1*%
D15*
X72200000Y-102350000D02*
X72600000Y-102350000D01*
X72200000Y-106650000D02*
X72200000Y-102350000D01*
X72600000Y-106650000D02*
X72200000Y-106650000D01*
X72600000Y-106650000D02*
X72600000Y-106650000D01*
D10*
X74000000Y-107900000D02*
X74000000Y-107900000D01*
X74000000Y-108000000D02*
X74000000Y-108000000D01*
D15*
X75400000Y-106650000D02*
X75800000Y-106650000D01*
X75800000Y-102350000D02*
X75400000Y-102350000D01*
X75800000Y-106650000D02*
X75800000Y-102350000D01*
D10*
X74000000Y-107900000D02*
G75*
G02*
X74000000Y-108000000I0J-50000D01*
G01*
X74000000Y-108000000D02*
G75*
G02*
X74000000Y-107900000I0J50000D01*
G01*
%TO.C,D4*%
X81000000Y-97000000D02*
X81000000Y-97000000D01*
X81100000Y-97000000D02*
X81100000Y-97000000D01*
D15*
X82350000Y-95200000D02*
X86650000Y-95200000D01*
X82350000Y-95600000D02*
X82350000Y-95200000D01*
X82350000Y-95600000D02*
X82350000Y-95600000D01*
X82350000Y-98400000D02*
X82350000Y-98800000D01*
X82350000Y-98800000D02*
X86650000Y-98800000D01*
X86650000Y-95200000D02*
X86650000Y-95600000D01*
X86650000Y-98800000D02*
X86650000Y-98400000D01*
D10*
X81000000Y-97000000D02*
G75*
G02*
X81100000Y-97000000I50000J0D01*
G01*
X81100000Y-97000000D02*
G75*
G02*
X81000000Y-97000000I-50000J0D01*
G01*
%TO.C,TP7*%
X84500000Y-128000000D02*
X84500000Y-128000000D01*
X84600000Y-128000000D02*
X84600000Y-128000000D01*
X84500000Y-128000000D02*
G75*
G02*
X84600000Y-128000000I50000J0D01*
G01*
X84600000Y-128000000D02*
G75*
G02*
X84500000Y-128000000I-50000J0D01*
G01*
%TO.C,R2*%
X52275000Y-127000000D02*
X52275000Y-127000000D01*
X52375000Y-127000000D02*
X52375000Y-127000000D01*
D15*
X53625000Y-125200000D02*
X57925000Y-125200000D01*
X53625000Y-125600000D02*
X53625000Y-125200000D01*
X53625000Y-125600000D02*
X53625000Y-125600000D01*
X53625000Y-128400000D02*
X53625000Y-128800000D01*
X53625000Y-128800000D02*
X57925000Y-128800000D01*
X57925000Y-125200000D02*
X57925000Y-125600000D01*
X57925000Y-128800000D02*
X57925000Y-128400000D01*
D10*
X52275000Y-127000000D02*
G75*
G02*
X52375000Y-127000000I50000J0D01*
G01*
X52375000Y-127000000D02*
G75*
G02*
X52275000Y-127000000I-50000J0D01*
G01*
%TO.C,IC9*%
D15*
X57475000Y-130475000D02*
X58525000Y-130475000D01*
X58875000Y-130525000D02*
X59325000Y-130525000D01*
X58875000Y-133425000D02*
X58875000Y-130525000D01*
X59325000Y-130525000D02*
X59325000Y-133425000D01*
X59325000Y-133425000D02*
X58875000Y-133425000D01*
%TO.C,TP5*%
D10*
X72000000Y-87500000D02*
X72000000Y-87500000D01*
X72100000Y-87500000D02*
X72100000Y-87500000D01*
X72000000Y-87500000D02*
G75*
G02*
X72100000Y-87500000I50000J0D01*
G01*
X72100000Y-87500000D02*
G75*
G02*
X72000000Y-87500000I-50000J0D01*
G01*
%TO.C,D3*%
D15*
X69350000Y-95200000D02*
X69350000Y-95600000D01*
X69350000Y-98800000D02*
X69350000Y-98400000D01*
X73650000Y-95200000D02*
X69350000Y-95200000D01*
X73650000Y-95600000D02*
X73650000Y-95200000D01*
X73650000Y-98400000D02*
X73650000Y-98400000D01*
X73650000Y-98400000D02*
X73650000Y-98800000D01*
X73650000Y-98800000D02*
X69350000Y-98800000D01*
D10*
X74900000Y-97000000D02*
X74900000Y-97000000D01*
X75000000Y-97000000D02*
X75000000Y-97000000D01*
X74900000Y-97000000D02*
G75*
G02*
X75000000Y-97000000I50000J0D01*
G01*
X75000000Y-97000000D02*
G75*
G02*
X74900000Y-97000000I-50000J0D01*
G01*
%TO.C,TP8*%
X63275000Y-128000000D02*
X63275000Y-128000000D01*
X63375000Y-128000000D02*
X63375000Y-128000000D01*
X63275000Y-128000000D02*
G75*
G02*
X63375000Y-128000000I50000J0D01*
G01*
X63375000Y-128000000D02*
G75*
G02*
X63275000Y-128000000I-50000J0D01*
G01*
%TO.C,TP6*%
X79000000Y-87500000D02*
X79000000Y-87500000D01*
X79100000Y-87500000D02*
X79100000Y-87500000D01*
X79000000Y-87500000D02*
G75*
G02*
X79100000Y-87500000I50000J0D01*
G01*
X79100000Y-87500000D02*
G75*
G02*
X79000000Y-87500000I-50000J0D01*
G01*
%TO.C,C3*%
D15*
X91850000Y-114500000D02*
G75*
G02*
X91750000Y-114500000I-50000J0D01*
G01*
X91750000Y-114500000D02*
G75*
G02*
X91850000Y-114500000I50000J0D01*
G01*
%TO.C,TP22*%
D10*
X47500000Y-106500000D02*
X47500000Y-106500000D01*
X47600000Y-106500000D02*
X47600000Y-106500000D01*
X47500000Y-106500000D02*
G75*
G02*
X47600000Y-106500000I50000J0D01*
G01*
X47600000Y-106500000D02*
G75*
G02*
X47500000Y-106500000I-50000J0D01*
G01*
%TD*%
M02*
