%TF.GenerationSoftware,KiCad,Pcbnew,10.0.5*%
%TF.CreationDate,2026-08-07T12:18:06-07:00*%
%TF.ProjectId,Secondary,5365636f-6e64-4617-9279-2e6b69636164,rev?*%
%TF.SameCoordinates,Original*%
%TF.FileFunction,Copper,L2,Inr*%
%TF.FilePolarity,Positive*%
%FSLAX46Y46*%
G04 Gerber Fmt 4.6, Leading zero omitted, Abs format (unit mm)*
G04 Created by KiCad (PCBNEW 10.0.5) date 2026-08-07 12:18:06*
%MOMM*%
%LPD*%
G01*
G04 APERTURE LIST*
%TA.AperFunction,ComponentPad*%
%ADD10R,1.700000X1.700000*%
%TD*%
%TA.AperFunction,ComponentPad*%
%ADD11C,1.700000*%
%TD*%
%TA.AperFunction,ComponentPad*%
%ADD12C,2.400000*%
%TD*%
%TA.AperFunction,ViaPad*%
%ADD13C,0.600000*%
%TD*%
G04 APERTURE END LIST*
D10*
%TO.N,+3.3V_ISO*%
%TO.C,J3*%
X50000000Y-88920000D03*
D11*
%TO.N,GND_ISO*%
X50000000Y-91460000D03*
%TO.N,/IOUT_HIGH*%
X50000000Y-94000000D03*
%TO.N,GND_ISO*%
X50000000Y-96540000D03*
%TO.N,Net-(J3-Pin_5)*%
X50000000Y-99080000D03*
%TD*%
D12*
%TO.N,Net-(J3-Pin_5)*%
%TO.C,R19*%
X41140000Y-114500000D03*
%TO.N,/VOUT*%
X86860000Y-114500000D03*
%TD*%
D13*
%TO.N,GND_ISO*%
X42200000Y-101800000D03*
X100800000Y-112200000D03*
X50600000Y-125800000D03*
X56000000Y-132600000D03*
X66800000Y-96200000D03*
X89400000Y-95600000D03*
%TD*%
%TA.AperFunction,Conductor*%
%TO.N,GND_ISO*%
G36*
X62193039Y-75020185D02*
G01*
X62238794Y-75072989D01*
X62250000Y-75124500D01*
X62250000Y-85500000D01*
X62922184Y-85500000D01*
X62929813Y-85500500D01*
X62934108Y-85500500D01*
X93070187Y-85500500D01*
X93077816Y-85500000D01*
X93750000Y-85500000D01*
X93750000Y-75374000D01*
X93769685Y-75306961D01*
X93822489Y-75261206D01*
X93874000Y-75250000D01*
X113626000Y-75250000D01*
X113693039Y-75269685D01*
X113738794Y-75322489D01*
X113750000Y-75374000D01*
X113750000Y-135375500D01*
X113730315Y-135442539D01*
X113677511Y-135488294D01*
X113626000Y-135499500D01*
X36624000Y-135499500D01*
X36556961Y-135479815D01*
X36511206Y-135427011D01*
X36500000Y-135375500D01*
X36500000Y-114388549D01*
X39439500Y-114388549D01*
X39439500Y-114611450D01*
X39439501Y-114611466D01*
X39468594Y-114832452D01*
X39468595Y-114832457D01*
X39468596Y-114832463D01*
X39468597Y-114832465D01*
X39526290Y-115047780D01*
X39526293Y-115047790D01*
X39611593Y-115253722D01*
X39611595Y-115253726D01*
X39723052Y-115446774D01*
X39723057Y-115446780D01*
X39723058Y-115446782D01*
X39858751Y-115623622D01*
X39858757Y-115623629D01*
X40016370Y-115781242D01*
X40016376Y-115781247D01*
X40193226Y-115916948D01*
X40386274Y-116028405D01*
X40592219Y-116113710D01*
X40807537Y-116171404D01*
X41028543Y-116200500D01*
X41028550Y-116200500D01*
X41251450Y-116200500D01*
X41251457Y-116200500D01*
X41472463Y-116171404D01*
X41687781Y-116113710D01*
X41893726Y-116028405D01*
X42086774Y-115916948D01*
X42263624Y-115781247D01*
X42421247Y-115623624D01*
X42556948Y-115446774D01*
X42668405Y-115253726D01*
X42753710Y-115047781D01*
X42811404Y-114832463D01*
X42840500Y-114611457D01*
X42840500Y-114388549D01*
X85159500Y-114388549D01*
X85159500Y-114611450D01*
X85159501Y-114611466D01*
X85188594Y-114832452D01*
X85188595Y-114832457D01*
X85188596Y-114832463D01*
X85188597Y-114832465D01*
X85246290Y-115047780D01*
X85246293Y-115047790D01*
X85331593Y-115253722D01*
X85331595Y-115253726D01*
X85443052Y-115446774D01*
X85443057Y-115446780D01*
X85443058Y-115446782D01*
X85578751Y-115623622D01*
X85578757Y-115623629D01*
X85736370Y-115781242D01*
X85736376Y-115781247D01*
X85913226Y-115916948D01*
X86106274Y-116028405D01*
X86312219Y-116113710D01*
X86527537Y-116171404D01*
X86748543Y-116200500D01*
X86748550Y-116200500D01*
X86971450Y-116200500D01*
X86971457Y-116200500D01*
X87192463Y-116171404D01*
X87407781Y-116113710D01*
X87613726Y-116028405D01*
X87806774Y-115916948D01*
X87983624Y-115781247D01*
X88141247Y-115623624D01*
X88276948Y-115446774D01*
X88388405Y-115253726D01*
X88473710Y-115047781D01*
X88531404Y-114832463D01*
X88560500Y-114611457D01*
X88560500Y-114388543D01*
X88531404Y-114167537D01*
X88473710Y-113952219D01*
X88388405Y-113746274D01*
X88276948Y-113553226D01*
X88141247Y-113376376D01*
X88141242Y-113376370D01*
X87983629Y-113218757D01*
X87983622Y-113218751D01*
X87806782Y-113083058D01*
X87806780Y-113083057D01*
X87806774Y-113083052D01*
X87613726Y-112971595D01*
X87613722Y-112971593D01*
X87407790Y-112886293D01*
X87407783Y-112886291D01*
X87407781Y-112886290D01*
X87192463Y-112828596D01*
X87192457Y-112828595D01*
X87192452Y-112828594D01*
X86971466Y-112799501D01*
X86971463Y-112799500D01*
X86971457Y-112799500D01*
X86748543Y-112799500D01*
X86748537Y-112799500D01*
X86748533Y-112799501D01*
X86527547Y-112828594D01*
X86527540Y-112828595D01*
X86527537Y-112828596D01*
X86312219Y-112886290D01*
X86312209Y-112886293D01*
X86106277Y-112971593D01*
X86106273Y-112971595D01*
X85913226Y-113083052D01*
X85913217Y-113083058D01*
X85736377Y-113218751D01*
X85736370Y-113218757D01*
X85578757Y-113376370D01*
X85578751Y-113376377D01*
X85443058Y-113553217D01*
X85443052Y-113553226D01*
X85331595Y-113746273D01*
X85331593Y-113746277D01*
X85246293Y-113952209D01*
X85246290Y-113952219D01*
X85188597Y-114167534D01*
X85188594Y-114167547D01*
X85159501Y-114388533D01*
X85159500Y-114388549D01*
X42840500Y-114388549D01*
X42840500Y-114388543D01*
X42811404Y-114167537D01*
X42753710Y-113952219D01*
X42668405Y-113746274D01*
X42556948Y-113553226D01*
X42421247Y-113376376D01*
X42421242Y-113376370D01*
X42263629Y-113218757D01*
X42263622Y-113218751D01*
X42086782Y-113083058D01*
X42086780Y-113083057D01*
X42086774Y-113083052D01*
X41893726Y-112971595D01*
X41893722Y-112971593D01*
X41687790Y-112886293D01*
X41687783Y-112886291D01*
X41687781Y-112886290D01*
X41472463Y-112828596D01*
X41472457Y-112828595D01*
X41472452Y-112828594D01*
X41251466Y-112799501D01*
X41251463Y-112799500D01*
X41251457Y-112799500D01*
X41028543Y-112799500D01*
X41028537Y-112799500D01*
X41028533Y-112799501D01*
X40807547Y-112828594D01*
X40807540Y-112828595D01*
X40807537Y-112828596D01*
X40592219Y-112886290D01*
X40592209Y-112886293D01*
X40386277Y-112971593D01*
X40386273Y-112971595D01*
X40193226Y-113083052D01*
X40193217Y-113083058D01*
X40016377Y-113218751D01*
X40016370Y-113218757D01*
X39858757Y-113376370D01*
X39858751Y-113376377D01*
X39723058Y-113553217D01*
X39723052Y-113553226D01*
X39611595Y-113746273D01*
X39611593Y-113746277D01*
X39526293Y-113952209D01*
X39526290Y-113952219D01*
X39468597Y-114167534D01*
X39468594Y-114167547D01*
X39439501Y-114388533D01*
X39439500Y-114388549D01*
X36500000Y-114388549D01*
X36500000Y-88022135D01*
X48649500Y-88022135D01*
X48649500Y-89817870D01*
X48649501Y-89817876D01*
X48655908Y-89877483D01*
X48706202Y-90012328D01*
X48706206Y-90012335D01*
X48792452Y-90127544D01*
X48792455Y-90127547D01*
X48907664Y-90213793D01*
X48907671Y-90213797D01*
X48952618Y-90230561D01*
X49042517Y-90264091D01*
X49102127Y-90270500D01*
X49112685Y-90270499D01*
X49179723Y-90290179D01*
X49200372Y-90306818D01*
X49870591Y-90977037D01*
X49807007Y-90994075D01*
X49692993Y-91059901D01*
X49599901Y-91152993D01*
X49534075Y-91267007D01*
X49517037Y-91330591D01*
X48884728Y-90698282D01*
X48884727Y-90698282D01*
X48845380Y-90752439D01*
X48748904Y-90941782D01*
X48683242Y-91143869D01*
X48683242Y-91143872D01*
X48650000Y-91353753D01*
X48650000Y-91566246D01*
X48683242Y-91776127D01*
X48683242Y-91776130D01*
X48748904Y-91978217D01*
X48845375Y-92167550D01*
X48884728Y-92221716D01*
X49517037Y-91589408D01*
X49534075Y-91652993D01*
X49599901Y-91767007D01*
X49692993Y-91860099D01*
X49807007Y-91925925D01*
X49870590Y-91942962D01*
X49238282Y-92575269D01*
X49238282Y-92575270D01*
X49292452Y-92614626D01*
X49292451Y-92614626D01*
X49301495Y-92619234D01*
X49352292Y-92667208D01*
X49369087Y-92735029D01*
X49346550Y-92801164D01*
X49301499Y-92840202D01*
X49292182Y-92844949D01*
X49120213Y-92969890D01*
X48969890Y-93120213D01*
X48844951Y-93292179D01*
X48748444Y-93481585D01*
X48682753Y-93683760D01*
X48649500Y-93893713D01*
X48649500Y-94106286D01*
X48682753Y-94316239D01*
X48748444Y-94518414D01*
X48844951Y-94707820D01*
X48969890Y-94879786D01*
X49120213Y-95030109D01*
X49292179Y-95155048D01*
X49292181Y-95155049D01*
X49292184Y-95155051D01*
X49301493Y-95159794D01*
X49352290Y-95207766D01*
X49369087Y-95275587D01*
X49346552Y-95341722D01*
X49301505Y-95380760D01*
X49292446Y-95385376D01*
X49292440Y-95385380D01*
X49238282Y-95424727D01*
X49238282Y-95424728D01*
X49870591Y-96057037D01*
X49807007Y-96074075D01*
X49692993Y-96139901D01*
X49599901Y-96232993D01*
X49534075Y-96347007D01*
X49517037Y-96410591D01*
X48884728Y-95778282D01*
X48884727Y-95778282D01*
X48845380Y-95832439D01*
X48748904Y-96021782D01*
X48683242Y-96223869D01*
X48683242Y-96223872D01*
X48650000Y-96433753D01*
X48650000Y-96646246D01*
X48683242Y-96856127D01*
X48683242Y-96856130D01*
X48748904Y-97058217D01*
X48845375Y-97247550D01*
X48884728Y-97301716D01*
X49517037Y-96669408D01*
X49534075Y-96732993D01*
X49599901Y-96847007D01*
X49692993Y-96940099D01*
X49807007Y-97005925D01*
X49870590Y-97022962D01*
X49238282Y-97655269D01*
X49238282Y-97655270D01*
X49292452Y-97694626D01*
X49292451Y-97694626D01*
X49301495Y-97699234D01*
X49352292Y-97747208D01*
X49369087Y-97815029D01*
X49346550Y-97881164D01*
X49301499Y-97920202D01*
X49292182Y-97924949D01*
X49120213Y-98049890D01*
X48969890Y-98200213D01*
X48844951Y-98372179D01*
X48748444Y-98561585D01*
X48682753Y-98763760D01*
X48649500Y-98973713D01*
X48649500Y-99186286D01*
X48682753Y-99396239D01*
X48748444Y-99598414D01*
X48844951Y-99787820D01*
X48969890Y-99959786D01*
X49120213Y-100110109D01*
X49292179Y-100235048D01*
X49292181Y-100235049D01*
X49292184Y-100235051D01*
X49481588Y-100331557D01*
X49683757Y-100397246D01*
X49893713Y-100430500D01*
X49893714Y-100430500D01*
X50106286Y-100430500D01*
X50106287Y-100430500D01*
X50316243Y-100397246D01*
X50518412Y-100331557D01*
X50707816Y-100235051D01*
X50729789Y-100219086D01*
X50879786Y-100110109D01*
X50879788Y-100110106D01*
X50879792Y-100110104D01*
X51030104Y-99959792D01*
X51030106Y-99959788D01*
X51030109Y-99959786D01*
X51155048Y-99787820D01*
X51155047Y-99787820D01*
X51155051Y-99787816D01*
X51251557Y-99598412D01*
X51317246Y-99396243D01*
X51350500Y-99186287D01*
X51350500Y-98973713D01*
X51317246Y-98763757D01*
X51251557Y-98561588D01*
X51155051Y-98372184D01*
X51155049Y-98372181D01*
X51155048Y-98372179D01*
X51030109Y-98200213D01*
X50879786Y-98049890D01*
X50707817Y-97924949D01*
X50698504Y-97920204D01*
X50647707Y-97872230D01*
X50630912Y-97804409D01*
X50653449Y-97738274D01*
X50698507Y-97699232D01*
X50707555Y-97694622D01*
X50761716Y-97655270D01*
X50761717Y-97655270D01*
X50129408Y-97022962D01*
X50192993Y-97005925D01*
X50307007Y-96940099D01*
X50400099Y-96847007D01*
X50465925Y-96732993D01*
X50482962Y-96669408D01*
X51115270Y-97301717D01*
X51115270Y-97301716D01*
X51154622Y-97247554D01*
X51251095Y-97058217D01*
X51316757Y-96856130D01*
X51316757Y-96856127D01*
X51350000Y-96646246D01*
X51350000Y-96433753D01*
X51316757Y-96223872D01*
X51316757Y-96223869D01*
X51251095Y-96021782D01*
X51154624Y-95832449D01*
X51115270Y-95778282D01*
X51115269Y-95778282D01*
X50482962Y-96410590D01*
X50465925Y-96347007D01*
X50400099Y-96232993D01*
X50307007Y-96139901D01*
X50192993Y-96074075D01*
X50129409Y-96057037D01*
X50761716Y-95424728D01*
X50707547Y-95385373D01*
X50707547Y-95385372D01*
X50698500Y-95380763D01*
X50647706Y-95332788D01*
X50630912Y-95264966D01*
X50653451Y-95198832D01*
X50698508Y-95159793D01*
X50707816Y-95155051D01*
X50787007Y-95097515D01*
X50879786Y-95030109D01*
X50879788Y-95030106D01*
X50879792Y-95030104D01*
X51030104Y-94879792D01*
X51030106Y-94879788D01*
X51030109Y-94879786D01*
X51155048Y-94707820D01*
X51155047Y-94707820D01*
X51155051Y-94707816D01*
X51251557Y-94518412D01*
X51317246Y-94316243D01*
X51350500Y-94106287D01*
X51350500Y-93893713D01*
X51317246Y-93683757D01*
X51251557Y-93481588D01*
X51155051Y-93292184D01*
X51155049Y-93292181D01*
X51155048Y-93292179D01*
X51030109Y-93120213D01*
X50879786Y-92969890D01*
X50707817Y-92844949D01*
X50698504Y-92840204D01*
X50647707Y-92792230D01*
X50630912Y-92724409D01*
X50653449Y-92658274D01*
X50698507Y-92619232D01*
X50707555Y-92614622D01*
X50761716Y-92575270D01*
X50761717Y-92575270D01*
X50129408Y-91942962D01*
X50192993Y-91925925D01*
X50307007Y-91860099D01*
X50400099Y-91767007D01*
X50465925Y-91652993D01*
X50482962Y-91589408D01*
X51115270Y-92221717D01*
X51115270Y-92221716D01*
X51154622Y-92167554D01*
X51251095Y-91978217D01*
X51316757Y-91776130D01*
X51316757Y-91776127D01*
X51350000Y-91566246D01*
X51350000Y-91353753D01*
X51316757Y-91143872D01*
X51316757Y-91143869D01*
X51251095Y-90941782D01*
X51154624Y-90752449D01*
X51115270Y-90698282D01*
X51115269Y-90698282D01*
X50482962Y-91330590D01*
X50465925Y-91267007D01*
X50400099Y-91152993D01*
X50307007Y-91059901D01*
X50192993Y-90994075D01*
X50129409Y-90977037D01*
X50799627Y-90306818D01*
X50860950Y-90273333D01*
X50887307Y-90270499D01*
X50897872Y-90270499D01*
X50957483Y-90264091D01*
X51092331Y-90213796D01*
X51207546Y-90127546D01*
X51293796Y-90012331D01*
X51344091Y-89877483D01*
X51350500Y-89817873D01*
X51350499Y-88022128D01*
X51344091Y-87962517D01*
X51293796Y-87827669D01*
X51293795Y-87827668D01*
X51293793Y-87827664D01*
X51207547Y-87712455D01*
X51207544Y-87712452D01*
X51092335Y-87626206D01*
X51092328Y-87626202D01*
X50957482Y-87575908D01*
X50957483Y-87575908D01*
X50897883Y-87569501D01*
X50897881Y-87569500D01*
X50897873Y-87569500D01*
X50897864Y-87569500D01*
X49102129Y-87569500D01*
X49102123Y-87569501D01*
X49042516Y-87575908D01*
X48907671Y-87626202D01*
X48907664Y-87626206D01*
X48792455Y-87712452D01*
X48792452Y-87712455D01*
X48706206Y-87827664D01*
X48706202Y-87827671D01*
X48655908Y-87962517D01*
X48649501Y-88022116D01*
X48649501Y-88022123D01*
X48649500Y-88022135D01*
X36500000Y-88022135D01*
X36500000Y-75124500D01*
X36519685Y-75057461D01*
X36572489Y-75011706D01*
X36624000Y-75000500D01*
X62126000Y-75000500D01*
X62193039Y-75020185D01*
G37*
%TD.AperFunction*%
%TD*%
M02*
