%TF.GenerationSoftware,KiCad,Pcbnew,10.0.5*%
%TF.CreationDate,2026-08-07T12:18:53-07:00*%
%TF.ProjectId,More Transformer,4d6f7265-2054-4726-916e-73666f726d65,rev?*%
%TF.SameCoordinates,Original*%
%TF.FileFunction,Copper,L1,Top*%
%TF.FilePolarity,Positive*%
%FSLAX46Y46*%
G04 Gerber Fmt 4.6, Leading zero omitted, Abs format (unit mm)*
G04 Created by KiCad (PCBNEW 10.0.5) date 2026-08-07 12:18:53*
%MOMM*%
%LPD*%
G01*
G04 APERTURE LIST*
%TA.AperFunction,ViaPad*%
%ADD10C,3.000000*%
%TD*%
%TA.AperFunction,ViaPad*%
%ADD11C,0.600000*%
%TD*%
%TA.AperFunction,Conductor*%
%ADD12C,0.220000*%
%TD*%
%TA.AperFunction,Conductor*%
%ADD13C,0.200000*%
%TD*%
G04 APERTURE END LIST*
D10*
%TO.N,*%
X143000000Y-85000000D03*
X117000000Y-121500000D03*
X117000000Y-84000000D03*
D11*
X136250000Y-87750000D03*
D10*
X117000000Y-92000000D03*
X117000000Y-129500000D03*
X143000000Y-122000000D03*
X118000000Y-125500000D03*
X118000000Y-88000000D03*
X143000000Y-91000000D03*
X143000000Y-128000000D03*
%TD*%
%TO.N,*%
D12*
X136090671Y-80578495D02*
X135330870Y-80021789D01*
X120913496Y-87105057D02*
X120875000Y-88000000D01*
X133048312Y-95359277D02*
X133752391Y-95020231D01*
X124766354Y-95832703D02*
X125561873Y-96303150D01*
X138612289Y-91567327D02*
X138915244Y-90704409D01*
X123471715Y-84510559D02*
X123166178Y-85169338D01*
X123463985Y-89300094D02*
X123628123Y-89932887D01*
X123313165Y-92467999D02*
X123787532Y-93098440D01*
X124328639Y-92654365D02*
X124816023Y-93183976D01*
X138767300Y-86256075D02*
X138548916Y-85406714D01*
X128439582Y-95844749D02*
X129216552Y-95954480D01*
X123331099Y-94668900D02*
X124020347Y-95286227D01*
X132415486Y-95962790D02*
X133182251Y-95682635D01*
X127533714Y-79869745D02*
X126750778Y-80155685D01*
X129999999Y-78437500D02*
X129063247Y-78488988D01*
X137429959Y-81902390D02*
X136792644Y-81207355D01*
X138424026Y-86324357D02*
X138213987Y-85508314D01*
X136905670Y-90094812D02*
X137072381Y-89406784D01*
X121226031Y-84365703D02*
X120917290Y-85244790D01*
X131692713Y-96509844D02*
X132517085Y-96297719D01*
X131799403Y-78953788D02*
X130903518Y-78826418D01*
X124137290Y-91133683D02*
X124477222Y-91690201D01*
X136607028Y-94607028D02*
X137218589Y-93924142D01*
X122676571Y-83106641D02*
X122237025Y-83850603D01*
X129999999Y-80187500D02*
X129234777Y-80230561D01*
X138534655Y-92561868D02*
X138935647Y-91701266D01*
X137218589Y-93924142D02*
X137759949Y-93185032D01*
X135536083Y-83456653D02*
X135060232Y-82939767D01*
X121266451Y-91617554D02*
X121667911Y-92453594D01*
X136348784Y-90629752D02*
X136570741Y-89993212D01*
X138213987Y-85508314D02*
X137925154Y-84717293D01*
X128409709Y-80005067D02*
X127635313Y-80204674D01*
X133257425Y-94094213D02*
X133836038Y-93741037D01*
X123246425Y-93542515D02*
X123826073Y-94173926D01*
X125352573Y-93662905D02*
X125933052Y-94086617D01*
X129337695Y-81275505D02*
X128682835Y-81378166D01*
X126265248Y-97016486D02*
X127168590Y-97333906D01*
X123211273Y-91628650D02*
X123604179Y-92273550D01*
X123780388Y-84675548D02*
X123489536Y-85303277D01*
X123489536Y-85303277D02*
X123261794Y-85955987D01*
X136948035Y-93702105D02*
X137468935Y-92990583D01*
X135136420Y-80312803D02*
X134355632Y-79851185D01*
X136888851Y-82346465D02*
X136297669Y-81702330D01*
X127635313Y-80204674D02*
X126884717Y-80479043D01*
X122755981Y-86559075D02*
X122655070Y-87276587D01*
X128371300Y-96188024D02*
X129182246Y-96302795D01*
X138901460Y-87123282D02*
X138767300Y-86256075D01*
X133530687Y-81394547D02*
X132864146Y-81085339D01*
X123516714Y-81516714D02*
X122916687Y-82186875D01*
X124571905Y-96123717D02*
X125396884Y-96611823D01*
X124011689Y-82011689D02*
X123457795Y-82630951D01*
X137050926Y-86597483D02*
X136874270Y-85914712D01*
X132577410Y-79503416D02*
X131731121Y-79297063D01*
X134025654Y-80468530D02*
X133265963Y-80115265D01*
X135722849Y-91823885D02*
X136065275Y-91241957D01*
X128682835Y-81378166D02*
X128041712Y-81544390D01*
X131594558Y-79983612D02*
X130800600Y-79871362D01*
X131487868Y-95480020D02*
X132212286Y-95292932D01*
X136312708Y-80307942D02*
X135525319Y-79730774D01*
X136406928Y-93258029D02*
X136886906Y-92601684D01*
X122655070Y-87276587D02*
X122625000Y-88000000D01*
X126660080Y-81751450D02*
X126066736Y-82113454D01*
X127736913Y-80539603D02*
X127018656Y-80802401D01*
X126321951Y-93504588D02*
X126881784Y-93833771D01*
X129079328Y-97347739D02*
X130000000Y-97387500D01*
X138564031Y-88843483D02*
X138600000Y-87999999D01*
X134247358Y-95946248D02*
X135002736Y-95487124D01*
X137900000Y-87999999D02*
X137856516Y-87226200D01*
X122883240Y-90947858D02*
X123211273Y-91628650D01*
X139132030Y-89816473D02*
X139260660Y-88912095D01*
X137299965Y-91901912D02*
X137642216Y-91165509D01*
X120227752Y-88962482D02*
X120374511Y-89914628D01*
X131526276Y-80326887D02*
X130766294Y-80219676D01*
X133533842Y-79468549D02*
X132679010Y-79168487D01*
X122306755Y-87242281D02*
X122275000Y-88000000D01*
X126056839Y-95377133D02*
X126801005Y-95723055D01*
X137856516Y-87226200D02*
X137737476Y-86460920D01*
X132374211Y-80173274D02*
X131594558Y-79983612D01*
X131351305Y-94793470D02*
X132009087Y-94623073D01*
X136595892Y-92407234D02*
X136991293Y-91736923D01*
X129216552Y-95954480D02*
X129999999Y-95987500D01*
D13*
X140500000Y-85000000D02*
X143000000Y-85000000D01*
D12*
X120924381Y-88893870D02*
X121061061Y-89778065D01*
X133695676Y-81085875D02*
X132998085Y-80761981D01*
X123578586Y-94421413D02*
X124242385Y-95015673D01*
X124686460Y-94474566D02*
X125349703Y-94959660D01*
X131556150Y-95823295D02*
X132313886Y-95627861D01*
X121872747Y-84633581D02*
X121587148Y-85447989D01*
X140000000Y-85000000D02*
X139218585Y-84218585D01*
X122902600Y-91793638D02*
X123313165Y-92467999D01*
X121858093Y-93440247D02*
X122434764Y-94208628D01*
X136677481Y-93480067D02*
X137177921Y-92796133D01*
X123206598Y-90813919D02*
X123519945Y-91463661D01*
X135756603Y-91076968D02*
X136025426Y-90495813D01*
X129200471Y-79882247D02*
X128409709Y-80005067D01*
X137394201Y-86529201D02*
X137209199Y-85813113D01*
X134520621Y-79542512D02*
X133667781Y-79145192D01*
X136995500Y-90897631D02*
X137240599Y-90196411D01*
X132720284Y-96967577D02*
X133584069Y-96652709D01*
X123728348Y-82852988D02*
X123258600Y-83495540D01*
X124477222Y-91690201D02*
X124869747Y-92210289D01*
X127940112Y-81209461D02*
X127286535Y-81449116D01*
X136631722Y-85253050D02*
X136325718Y-84618833D01*
X132864146Y-81085339D02*
X132171011Y-80843132D01*
X134082369Y-95637575D02*
X134808286Y-95196109D01*
X133399903Y-79791907D02*
X132577410Y-79503416D01*
X125561873Y-96303150D02*
X126399188Y-96693128D01*
X136618298Y-82568503D02*
X136050182Y-81949817D01*
X123998902Y-83075026D02*
X123549614Y-83689990D01*
X123261794Y-85955987D02*
X123099256Y-86627356D01*
X136707651Y-86665765D02*
X136539341Y-86016312D01*
X121575000Y-88000000D02*
X121621011Y-88825258D01*
X138950000Y-87999999D02*
X138901460Y-87123282D01*
X126667066Y-96046413D02*
X127473389Y-96329118D01*
X125340169Y-79282070D02*
X124511139Y-79785340D01*
X124506664Y-82506664D02*
X123998902Y-83075026D01*
X127838513Y-80874532D02*
X127152596Y-81125758D01*
X137278438Y-84985172D02*
X136943062Y-84288855D01*
X129166165Y-79533932D02*
X128341427Y-79661792D01*
X137737476Y-86460920D02*
X137544128Y-85711513D01*
X123798310Y-95556781D02*
X124571905Y-96123717D01*
X123812894Y-85437216D02*
X123596723Y-86057587D01*
X131457995Y-80670162D02*
X130731988Y-80567991D01*
X128082987Y-94319544D02*
X128712708Y-94471650D01*
X129999999Y-79487500D02*
X129166165Y-79533932D01*
X128341427Y-79661792D02*
X127533714Y-79869745D01*
X130903518Y-78826418D02*
X129999999Y-78787500D01*
X128614553Y-81034892D02*
X127940112Y-81209461D01*
X122705317Y-93986590D02*
X123331099Y-94668900D01*
X129285164Y-95257851D02*
X130000000Y-95287500D01*
X126801005Y-95723055D02*
X127574989Y-95994189D01*
X131662840Y-79640337D02*
X130834906Y-79523047D01*
X133917380Y-95328903D02*
X134613837Y-94905095D01*
X129303389Y-80927191D02*
X128614553Y-81034892D01*
X137415656Y-89475065D02*
X137519087Y-88740565D01*
X129999999Y-79137500D02*
X129131859Y-79185617D01*
X130000000Y-94587500D02*
X130645151Y-94550336D01*
X139260660Y-88912095D02*
X139300000Y-87999999D01*
X135555207Y-82444792D02*
X134980482Y-81931264D01*
X136297669Y-81702330D02*
X135646595Y-81119603D01*
X138486425Y-83463911D02*
X137996399Y-82656976D01*
X124810563Y-83741139D02*
X124422657Y-84273339D01*
X129999999Y-96337500D02*
X130816681Y-96291910D01*
X134314369Y-82742925D02*
X133775273Y-82349904D01*
X121225000Y-87999999D02*
X121272696Y-88859564D01*
X125310998Y-92689001D02*
X125796648Y-93121798D01*
X128166455Y-97217849D02*
X129079328Y-97347739D01*
X128644427Y-94814925D02*
X129319470Y-94909536D01*
X133718008Y-96976067D02*
X134577335Y-96563593D01*
X124259176Y-82259176D02*
X123728348Y-82852988D01*
X126066736Y-82113454D02*
X125512163Y-82531554D01*
X136792644Y-81207355D02*
X136090671Y-80578495D01*
X134154780Y-93062614D02*
X134627129Y-92627129D01*
X134613837Y-94905095D02*
X135264968Y-94415382D01*
X133265963Y-80115265D02*
X132475810Y-79838345D01*
X139218585Y-84218585D02*
X139218585Y-84181536D01*
X123258600Y-83495540D02*
X122854370Y-84180581D01*
X134412347Y-96254920D02*
X135197185Y-95778138D01*
X126750778Y-80155685D02*
X126000125Y-80516760D01*
X121922077Y-85549589D02*
X121726156Y-86354230D01*
X133092436Y-93785541D02*
X133641589Y-93450023D01*
X122237025Y-83850603D02*
X121872747Y-84633581D01*
X121621011Y-88825258D02*
X121747611Y-89641502D01*
X139300000Y-87999999D02*
X139249775Y-87088976D01*
X128507863Y-95501474D02*
X129250858Y-95606165D01*
X121272696Y-88859564D02*
X121404336Y-89709783D01*
X136347744Y-82790540D02*
X135802695Y-82197304D01*
X136886906Y-92601684D02*
X137299965Y-91901912D01*
X137240599Y-90196411D02*
X137415656Y-89475065D01*
X121953477Y-90440885D02*
X122236524Y-91215736D01*
X133450130Y-96329351D02*
X134247358Y-95946248D01*
X123957899Y-80637679D02*
X123269227Y-81269227D01*
X121283619Y-90644085D02*
X121589809Y-91483615D01*
X122375580Y-81742800D02*
X121803528Y-82523292D01*
X127574989Y-95994189D02*
X128371300Y-96188024D01*
X127336762Y-94429624D02*
X127981387Y-94654473D01*
X123163043Y-84345570D02*
X122842820Y-85035399D01*
X127228915Y-78864957D02*
X126348960Y-79185611D01*
X124089060Y-84840537D02*
X123812894Y-85437216D01*
X120374511Y-89914628D02*
X120613761Y-90847284D01*
X122412706Y-86490793D02*
X122306755Y-87242281D01*
X138553146Y-87157588D02*
X138424026Y-86324357D01*
X127470701Y-94106266D02*
X128082987Y-94319544D01*
X137759949Y-93185032D02*
X138225982Y-92396879D01*
X137159405Y-82124427D02*
X136545157Y-81454842D01*
X123269227Y-81269227D02*
X122646134Y-81964838D01*
X135668284Y-84212573D02*
X135265529Y-83678691D01*
X130748069Y-95595280D02*
X131487868Y-95480020D01*
X133584069Y-96652709D02*
X134412347Y-96254920D01*
X137170772Y-88706259D02*
X137200000Y-88000000D01*
X139218585Y-84181536D02*
X138795097Y-83298922D01*
X135330870Y-80021789D02*
X134520621Y-79542512D01*
X132272611Y-80508203D02*
X131526276Y-80326887D01*
X120576067Y-88928176D02*
X120717786Y-89846347D01*
X126551806Y-94451116D02*
X127202823Y-94752981D01*
X126934944Y-95399697D02*
X127676588Y-95659260D01*
X132679010Y-79168487D02*
X131799403Y-78953788D01*
X137642216Y-91165509D02*
X137910457Y-90399611D01*
X134758445Y-82201817D02*
X134164172Y-81767875D01*
X127473389Y-96329118D02*
X128303019Y-96531299D01*
X123519945Y-91463661D02*
X123895194Y-92079100D01*
X136017045Y-84783822D02*
X135668284Y-84212573D01*
X122257006Y-85651188D02*
X122069431Y-86422511D01*
X131389713Y-81013437D02*
X130697682Y-80916306D01*
X122149108Y-93245798D02*
X122705317Y-93986590D01*
X134190643Y-80159857D02*
X133399903Y-79791907D01*
X134224938Y-94323066D02*
X134820893Y-93874275D01*
X130663376Y-81264620D02*
X130000000Y-81237500D01*
X135264968Y-94415382D02*
X135864566Y-93864566D01*
X135595267Y-92591917D02*
X136013863Y-92018335D01*
X124960804Y-95541689D02*
X125726862Y-95994478D01*
X137414370Y-83045876D02*
X136888851Y-82346465D01*
X127286535Y-81449116D02*
X126660080Y-81751450D01*
X122434764Y-94208628D02*
X123083611Y-94916388D01*
X132780609Y-78833558D02*
X131867685Y-78610513D01*
X122926865Y-85854388D02*
X122755981Y-86559075D01*
X125512163Y-82531554D02*
X125001638Y-83001638D01*
X127270190Y-96998977D02*
X128166455Y-97217849D01*
X122975871Y-93764553D02*
X123578586Y-94421413D01*
X138935647Y-91701266D02*
X139250174Y-90806009D01*
X125063510Y-92936489D02*
X125574611Y-93392351D01*
X134685609Y-79233840D02*
X133801720Y-78821834D01*
X136359541Y-94359541D02*
X136948035Y-93702105D01*
X129045022Y-97696053D02*
X130000000Y-97737500D01*
X122094542Y-82717742D02*
X121619680Y-83520626D01*
X131829276Y-97196394D02*
X132720284Y-96967577D01*
X131897558Y-97539669D02*
X132821884Y-97302506D01*
X128068300Y-78288693D02*
X127127315Y-78530028D01*
X129999999Y-95637500D02*
X130748069Y-95595280D01*
X137251735Y-84123866D02*
X136832341Y-83434775D01*
X126533127Y-96369771D02*
X127371789Y-96664048D01*
X136235811Y-89891612D02*
X136385831Y-89270220D01*
X122288406Y-90339286D02*
X122559882Y-91081797D01*
X137508202Y-87260506D02*
X137394201Y-86529201D01*
X135002736Y-95487124D02*
X135709043Y-94956490D01*
X134808286Y-95196109D02*
X135487006Y-94685936D01*
X124058086Y-92876402D02*
X124568536Y-93431463D01*
X134812745Y-83187254D02*
X134314369Y-82742925D01*
X132730207Y-81408696D02*
X132069412Y-81178062D01*
X126348960Y-79185611D02*
X125505158Y-79590742D01*
X126884717Y-80479043D02*
X126165113Y-80825432D01*
X127168590Y-97333906D02*
X128098174Y-97561124D01*
X136500000Y-88000000D02*
X136250000Y-87750000D01*
X129353776Y-94561221D02*
X130000000Y-94587500D01*
X130800600Y-79871362D02*
X129999999Y-79837500D01*
X122317640Y-88756646D02*
X122434161Y-89504938D01*
X133860665Y-80777202D02*
X133132024Y-80438623D01*
X121061061Y-89778065D02*
X121283619Y-90644085D01*
X132596267Y-81732054D02*
X131967812Y-81512991D01*
X137318858Y-91031570D02*
X137575528Y-90298011D01*
X122236524Y-91215736D02*
X122593928Y-91958627D01*
X127202823Y-94752981D02*
X127879787Y-94989402D01*
X123442530Y-86695638D02*
X123351699Y-87345199D01*
X136136374Y-93035992D02*
X136595892Y-92407234D01*
X125396884Y-96611823D02*
X126265248Y-97016486D01*
X137965573Y-91299448D02*
X138245386Y-90501210D01*
X123549614Y-83689990D02*
X123163043Y-84345570D01*
X121619680Y-83520626D02*
X121226031Y-84365703D01*
X136077190Y-83012578D02*
X135555207Y-82444792D01*
X122275000Y-88000000D02*
X122317640Y-88756646D01*
X138250000Y-87999999D02*
X138204831Y-87191894D01*
X136373948Y-91406946D02*
X136672142Y-90763691D01*
X124073561Y-93926438D02*
X124686460Y-94474566D01*
X133182251Y-95682635D02*
X133917380Y-95328903D01*
X121382881Y-86285948D02*
X121261811Y-87139363D01*
X136874270Y-85914712D02*
X136631722Y-85253050D01*
X133132024Y-80438623D02*
X132374211Y-80173274D01*
X138177752Y-83628900D02*
X137705384Y-82851426D01*
X136955080Y-85119111D02*
X136634390Y-84453844D01*
X133587402Y-94711558D02*
X134224938Y-94323066D01*
X138883845Y-85305114D02*
X138571869Y-84449415D01*
X138225982Y-92396879D02*
X138612289Y-91567327D01*
X135802695Y-82197304D02*
X135202520Y-81660710D01*
X125544153Y-94668646D02*
X126221828Y-95068461D01*
X124568536Y-93431463D02*
X125130535Y-93933459D01*
X130000000Y-80887500D02*
X129303389Y-80927191D01*
X132009087Y-94623073D02*
X132646495Y-94389204D01*
X125677837Y-81531426D02*
X125068087Y-81990447D01*
X136304878Y-92212784D02*
X136682620Y-91571935D01*
X120943093Y-91751493D02*
X121359238Y-92618583D01*
X132110687Y-94958002D02*
X132780434Y-94712562D01*
X126495091Y-81442777D02*
X125872286Y-81822440D01*
X123457795Y-82630951D02*
X122967585Y-83301091D01*
X123362584Y-88653728D02*
X123463985Y-89300094D01*
X121359238Y-92618583D02*
X121858093Y-93440247D01*
X134419387Y-94614080D02*
X135042930Y-94144829D01*
X125094488Y-80658383D02*
X124401974Y-81178786D01*
X136672142Y-90763691D02*
X136905670Y-90094812D01*
X133365699Y-81703219D02*
X132730207Y-81408696D01*
X121726156Y-86354230D02*
X121610126Y-87173669D01*
X136013863Y-92018335D02*
X136373948Y-91406946D01*
X135487006Y-94685936D02*
X136112054Y-94112054D01*
X135424558Y-81390156D02*
X134747521Y-80894832D01*
X123828618Y-91298672D02*
X124186208Y-91884651D01*
X122434161Y-89504938D02*
X122623335Y-90237686D01*
X121252219Y-85346389D02*
X121039606Y-86217667D01*
X122625000Y-88000000D02*
X122665955Y-88722340D01*
X133775273Y-82349904D02*
X133200710Y-82011892D01*
X132998085Y-80761981D02*
X132272611Y-80508203D01*
X131760994Y-96853119D02*
X132618685Y-96632648D01*
X134536407Y-82472371D02*
X133969722Y-82058889D01*
X126399188Y-96693128D02*
X127270190Y-96998977D01*
X136250312Y-83823674D02*
X135806637Y-83234616D01*
X140500000Y-85000000D02*
X140000000Y-85000000D01*
X122842820Y-85035399D02*
X122591936Y-85752788D01*
X130953905Y-97685168D02*
X131897558Y-97539669D01*
X135525319Y-79730774D02*
X134685609Y-79233840D01*
X127330514Y-79199886D02*
X126482900Y-79508969D01*
X136325718Y-84618833D02*
X135959298Y-84018123D01*
X129113634Y-96999424D02*
X130000000Y-97037500D01*
X120917290Y-85244790D02*
X120696332Y-86149385D01*
X120948690Y-90745684D02*
X121266451Y-91617554D01*
X124131643Y-84078889D02*
X123780388Y-84675548D01*
X133422413Y-94402886D02*
X134030488Y-94032052D01*
X126330102Y-81134105D02*
X125677837Y-81531426D01*
X135324713Y-92369879D02*
X135722849Y-91823885D01*
X121803528Y-82523292D02*
X121311008Y-83355637D01*
X124511139Y-79785340D02*
X123735861Y-80367125D01*
X132171011Y-80843132D02*
X131457995Y-80670162D01*
X120565182Y-87070751D02*
X120525000Y-87999999D01*
X130000000Y-97037500D02*
X130885293Y-96988539D01*
X139650000Y-87999999D02*
X139598090Y-87054670D01*
X122545698Y-84015592D02*
X122196105Y-84767520D01*
X124422657Y-84273339D02*
X124089060Y-84840537D01*
X122854370Y-84180581D02*
X122519462Y-84901460D01*
X134355632Y-79851185D02*
X133533842Y-79468549D01*
X122285255Y-92123616D02*
X122731136Y-92856899D01*
X125574611Y-93392351D02*
X126127501Y-93795603D01*
X132313886Y-95627861D02*
X133048312Y-95359277D01*
X128204864Y-78975242D02*
X127330514Y-79199886D01*
X123099256Y-86627356D02*
X123003384Y-87310893D01*
X136832341Y-83434775D02*
X136347744Y-82790540D01*
X135054159Y-92147841D02*
X135431835Y-91629436D01*
X122196105Y-84767520D02*
X121922077Y-85549589D01*
X137575528Y-90298011D02*
X137758931Y-89543347D01*
X125726862Y-95994478D02*
X126533127Y-96369771D01*
X136308364Y-85386989D02*
X136017045Y-84783822D01*
X136112054Y-94112054D02*
X136677481Y-93480067D01*
X123826073Y-94173926D02*
X124464422Y-94745120D01*
X132512555Y-94065846D02*
X133092436Y-93785541D01*
X123787532Y-93098440D02*
X124321048Y-93678951D01*
X128234737Y-96874574D02*
X129113634Y-96999424D01*
X137700512Y-81680352D02*
X137040131Y-80959868D01*
X134164172Y-81767875D02*
X133530687Y-81394547D01*
X124020347Y-95286227D02*
X124766354Y-95832703D01*
X135122104Y-93122104D02*
X135595267Y-92591917D01*
X128477990Y-80348342D02*
X127736913Y-80539603D01*
X121549389Y-84499642D02*
X121252219Y-85346389D01*
X122069431Y-86422511D02*
X121958440Y-87207975D01*
X138245386Y-90501210D02*
X138445480Y-89679910D01*
X127676588Y-95659260D02*
X128439582Y-95844749D01*
X127371789Y-96664048D02*
X128234737Y-96874574D01*
X125891851Y-95685806D02*
X126667066Y-96046413D01*
X133969722Y-82058889D02*
X133365699Y-81703219D01*
X125249126Y-83249126D02*
X124810563Y-83741139D01*
X126825069Y-82060122D02*
X126261185Y-82404469D01*
X125068087Y-81990447D02*
X124506664Y-82506664D01*
X125155253Y-95250674D02*
X125891851Y-95685806D01*
X137123356Y-83240325D02*
X136618298Y-82568503D01*
X129999999Y-95987500D02*
X130782375Y-95943595D01*
X139250174Y-90806009D02*
X139475305Y-89884755D01*
X123021739Y-81021739D02*
X122375580Y-81742800D01*
X135646595Y-81119603D02*
X134941970Y-80603817D01*
X122777435Y-89436657D02*
X122958264Y-90136087D01*
X122519462Y-84901460D02*
X122257006Y-85651188D01*
X136539341Y-86016312D02*
X136308364Y-85386989D01*
X123014269Y-88688034D02*
X123120710Y-89368375D01*
X139598090Y-87054670D02*
X139453850Y-86119512D01*
X121404336Y-89709783D02*
X121618548Y-90542485D01*
X121589809Y-91483615D02*
X121976583Y-92288605D01*
X137917310Y-92231890D02*
X138288931Y-91433387D01*
X137544128Y-85711513D02*
X137278438Y-84985172D01*
X131624431Y-96166569D02*
X132415486Y-95962790D01*
X126127501Y-93795603D02*
X126716795Y-94142443D01*
X130731988Y-80567991D02*
X129999999Y-80537500D01*
X129999999Y-79837500D02*
X129200471Y-79882247D01*
X122967585Y-83301091D02*
X122545698Y-84015592D01*
X124908498Y-94204012D02*
X125544153Y-94668646D01*
X129182246Y-96302795D02*
X129999999Y-96337500D01*
X136850000Y-88000000D02*
X136811572Y-87329118D01*
X138102205Y-89611628D02*
X138215716Y-88809177D01*
X130816681Y-96291910D02*
X131624431Y-96166569D01*
X138445480Y-89679910D02*
X138564031Y-88843483D01*
X135865820Y-92813954D02*
X136304878Y-92212784D01*
X124464422Y-94745120D02*
X125155253Y-95250674D01*
X129269083Y-80578876D02*
X128546272Y-80691617D01*
X134980482Y-81931264D02*
X134358622Y-81476861D01*
X132212286Y-95292932D02*
X132914373Y-95035920D01*
X127420474Y-81772474D02*
X126825069Y-82060122D01*
X137879057Y-85609913D02*
X137601796Y-84851232D01*
X120875000Y-88000000D02*
X120924381Y-88893870D01*
X131283023Y-94450195D02*
X131907487Y-94288144D01*
X137996399Y-82656976D02*
X137429959Y-81902390D01*
X123293193Y-90034487D02*
X123529956Y-90679979D01*
X130885293Y-96988539D02*
X131760994Y-96853119D01*
X126881784Y-93833771D02*
X127470701Y-94106266D01*
X137519087Y-88740565D02*
X137550000Y-87999999D01*
X130937824Y-78478103D02*
X129999999Y-78437500D01*
X122958264Y-90136087D02*
X123206598Y-90813919D01*
X137608637Y-92066901D02*
X137965573Y-91299448D01*
X138287413Y-82462527D02*
X137700512Y-81680352D01*
X122731136Y-92856899D02*
X123246425Y-93542515D01*
X125670147Y-79899415D02*
X124900038Y-80367368D01*
X120582361Y-85143190D02*
X120353057Y-86081103D01*
X122646134Y-81964838D02*
X122094542Y-82717742D01*
X127152596Y-81125758D02*
X126495091Y-81442777D01*
X132821884Y-97302506D02*
X133718008Y-96976067D01*
X122975000Y-88000000D02*
X123014269Y-88688034D01*
X121913166Y-91349675D02*
X122285255Y-92123616D01*
X135931081Y-95227043D02*
X136607028Y-94607028D01*
X136634390Y-84453844D02*
X136250312Y-83823674D01*
X134941970Y-80603817D02*
X134190643Y-80159857D01*
X125505158Y-79590742D02*
X124705589Y-80076354D01*
X128303019Y-96531299D02*
X129147940Y-96651109D01*
X130869212Y-79174732D02*
X129999999Y-79137500D01*
X131967812Y-81512991D02*
X131321432Y-81356712D01*
X132914373Y-95035920D02*
X133587402Y-94711558D01*
X138915244Y-90704409D02*
X139132030Y-89816473D01*
X136729106Y-89338502D02*
X136822457Y-88671953D01*
X126215021Y-78862253D02*
X125340169Y-79282070D01*
X130697682Y-80916306D02*
X130000000Y-80887500D01*
X124179937Y-80908233D02*
X123516714Y-81516714D01*
X125288938Y-80949397D02*
X124624012Y-81449340D01*
X125738602Y-94377631D02*
X126386817Y-94759788D01*
X128136582Y-78631968D02*
X127228915Y-78864957D01*
X124321048Y-93678951D02*
X124908498Y-94204012D01*
X126716795Y-94142443D02*
X127336762Y-94429624D01*
X135617079Y-93617079D02*
X136136374Y-93035992D01*
X123840629Y-83884439D02*
X123471715Y-84510559D01*
X134598855Y-93603721D02*
X135122104Y-93122104D01*
X124401974Y-81178786D02*
X123764202Y-81764202D01*
X128273145Y-79318517D02*
X127432114Y-79534816D01*
X125483387Y-81240411D02*
X124846050Y-81719893D01*
X135431835Y-91629436D02*
X135756603Y-91076968D01*
X135391635Y-96069152D02*
X136153119Y-95497597D01*
X136943062Y-84288855D02*
X136541327Y-83629224D01*
X124540009Y-83519101D02*
X124131643Y-84078889D01*
X123003384Y-87310893D02*
X122975000Y-88000000D01*
X123853313Y-90546040D02*
X124137290Y-91133683D01*
X125872286Y-81822440D02*
X125290125Y-82261001D01*
X139110575Y-86187793D02*
X138883845Y-85305114D01*
X138895227Y-84315476D02*
X138486425Y-83463911D01*
X129250858Y-95606165D02*
X129999999Y-95637500D01*
X133752391Y-95020231D02*
X134419387Y-94614080D01*
X122591936Y-85752788D02*
X122412706Y-86490793D01*
X124900038Y-80367368D02*
X124179937Y-80908233D01*
X134376818Y-93333168D02*
X134874617Y-92874617D01*
X137869080Y-83793888D02*
X137414370Y-83045876D01*
X136474143Y-88637647D02*
X136500000Y-88000000D01*
X136050182Y-81949817D02*
X135424558Y-81390156D01*
X132882209Y-78498629D02*
X131935966Y-78267238D01*
X122385557Y-82912191D02*
X121928353Y-83685615D01*
X126261185Y-82404469D02*
X125734200Y-82802108D01*
X123529956Y-90679979D02*
X123828618Y-91298672D01*
X137209199Y-85813113D02*
X136955080Y-85119111D01*
X124599193Y-92432327D02*
X125063510Y-92936489D01*
X127432114Y-79534816D02*
X126616839Y-79832327D01*
X135369592Y-93369592D02*
X135865820Y-92813954D01*
X130000000Y-97387500D02*
X130919599Y-97336854D01*
X129234777Y-80230561D02*
X128477990Y-80348342D01*
X127018656Y-80802401D02*
X126330102Y-81134105D01*
X135197185Y-95778138D02*
X135931081Y-95227043D01*
X120613761Y-90847284D02*
X120943093Y-91751493D01*
X124846050Y-81719893D02*
X124259176Y-82259176D01*
X134874617Y-92874617D02*
X135324713Y-92369879D01*
X135709043Y-94956490D02*
X136359541Y-94359541D01*
X136854516Y-94854516D02*
X137489142Y-94146180D01*
X136025426Y-90495813D02*
X136235811Y-89891612D01*
X133641589Y-93450023D02*
X134154780Y-93062614D01*
X138571869Y-84449415D02*
X138177752Y-83628900D01*
X129147940Y-96651109D02*
X130000000Y-96687500D01*
X138288931Y-91433387D02*
X138580315Y-90602810D01*
X122623335Y-90237686D02*
X122883240Y-90947858D01*
X123166178Y-85169338D02*
X122926865Y-85854388D01*
X138788755Y-89748192D02*
X138912345Y-88877789D01*
X134358622Y-81476861D02*
X133695676Y-81085875D01*
X122440122Y-93051348D02*
X122975871Y-93764553D01*
X127981387Y-94654473D02*
X128644427Y-94814925D01*
X133801720Y-78821834D02*
X132882209Y-78498629D01*
X137705384Y-82851426D02*
X137159405Y-82124427D01*
X126616839Y-79832327D02*
X125835136Y-80208087D01*
X120717786Y-89846347D02*
X120948690Y-90745684D01*
X137468935Y-92990583D02*
X137917310Y-92231890D01*
X121958440Y-87207975D02*
X121925000Y-88000000D01*
X137550000Y-87999999D02*
X137508202Y-87260506D01*
X131935966Y-78267238D02*
X130972130Y-78129788D01*
X137040131Y-80959868D02*
X136312708Y-80307942D01*
X137867401Y-88774871D02*
X137900000Y-87999999D01*
X127127315Y-78530028D02*
X126215021Y-78862253D01*
X121747611Y-89641502D02*
X121953477Y-90440885D01*
X123120710Y-89368375D02*
X123293193Y-90034487D01*
X130972130Y-78129788D02*
X129999999Y-78087500D01*
X122665955Y-88722340D02*
X122777435Y-89436657D01*
X123083611Y-94916388D02*
X123798310Y-95556781D01*
X122593928Y-91958627D02*
X123022151Y-92662449D01*
X126165113Y-80825432D02*
X125483387Y-81240411D01*
X137758931Y-89543347D02*
X137867401Y-88774871D01*
X125835136Y-80208087D02*
X125094488Y-80658383D01*
X136153119Y-95497597D02*
X136854516Y-94854516D01*
X136385831Y-89270220D02*
X136474143Y-88637647D01*
X124242385Y-95015673D02*
X124960804Y-95541689D01*
X128546272Y-80691617D02*
X127838513Y-80874532D01*
X133200710Y-82011892D02*
X132596267Y-81732054D01*
X124816023Y-93183976D02*
X125352573Y-93662905D01*
X138080751Y-86392638D02*
X137879057Y-85609913D01*
X121928353Y-83685615D02*
X121549389Y-84499642D01*
X128712708Y-94471650D02*
X129353776Y-94561221D01*
X120216867Y-87036445D02*
X120175000Y-88000000D01*
X129097553Y-78837303D02*
X128204864Y-78975242D01*
X135868633Y-80849049D02*
X135136420Y-80312803D01*
X128041712Y-81544390D02*
X127420474Y-81772474D01*
X126221828Y-95068461D02*
X126934944Y-95399697D01*
X137489142Y-94146180D02*
X138050964Y-93379482D01*
X121610126Y-87173669D02*
X121575000Y-88000000D01*
X123895194Y-92079100D02*
X124328639Y-92654365D01*
X121925000Y-88000000D02*
X121969325Y-88790952D01*
X122090886Y-89573220D02*
X122288406Y-90339286D01*
X139453850Y-86119512D02*
X139218774Y-85203515D01*
X124705589Y-80076354D02*
X123957899Y-80637679D01*
X126000125Y-80516760D02*
X125288938Y-80949397D01*
X125796648Y-93121798D02*
X126321951Y-93504588D01*
X124269456Y-83297064D02*
X123840629Y-83884439D01*
X132475810Y-79838345D02*
X131662840Y-79640337D01*
X134747521Y-80894832D02*
X134025654Y-80468530D01*
X139608975Y-88946401D02*
X139650000Y-87999999D01*
X123628123Y-89932887D02*
X123853313Y-90546040D01*
X131321432Y-81356712D02*
X130663376Y-81264620D01*
X130000000Y-97737500D02*
X130953905Y-97685168D01*
X129131859Y-79185617D02*
X128273145Y-79318517D01*
X127879787Y-94989402D02*
X128576145Y-95158200D01*
X130919599Y-97336854D02*
X131829276Y-97196394D01*
X123516978Y-93320478D02*
X124073561Y-93926438D01*
X134030488Y-94032052D02*
X134598855Y-93603721D01*
X139475305Y-89884755D02*
X139608975Y-88946401D01*
X138580315Y-90602810D02*
X138788755Y-89748192D01*
X123764202Y-81764202D02*
X123187241Y-82408913D01*
X133316191Y-96005993D02*
X134082369Y-95637575D01*
X125130535Y-93933459D02*
X125738602Y-94377631D01*
X121587148Y-85447989D02*
X121382881Y-86285948D01*
X121039606Y-86217667D02*
X120913496Y-87105057D01*
X120353057Y-86081103D02*
X120216867Y-87036445D01*
X120175000Y-88000000D02*
X120227752Y-88962482D01*
X136822457Y-88671953D02*
X136850000Y-88000000D01*
X136065275Y-91241957D02*
X136348784Y-90629752D01*
X135042930Y-94144829D02*
X135617079Y-93617079D01*
X130000000Y-95287500D02*
X130713763Y-95246966D01*
X122916687Y-82186875D02*
X122385557Y-82912191D01*
X135307720Y-82692279D02*
X134758445Y-82201817D01*
X137601796Y-84851232D02*
X137251735Y-84123866D01*
X139249775Y-87088976D02*
X139110575Y-86187793D01*
X134577335Y-96563593D02*
X135391635Y-96069152D01*
X132069412Y-81178062D02*
X131389713Y-81013437D01*
X124624012Y-81449340D02*
X124011689Y-82011689D01*
X138912345Y-88877789D02*
X138950000Y-87999999D01*
X138215716Y-88809177D02*
X138250000Y-87999999D01*
X135864566Y-93864566D02*
X136406928Y-93258029D01*
X138795097Y-83298922D02*
X138287413Y-82462527D01*
X138600000Y-87999999D02*
X138553146Y-87157588D01*
X135265529Y-83678691D02*
X134812745Y-83187254D01*
X121969325Y-88790952D02*
X122090886Y-89573220D01*
X131731121Y-79297063D02*
X130869212Y-79174732D01*
X130000000Y-96687500D02*
X130850987Y-96640224D01*
X123735861Y-80367125D02*
X123021739Y-81021739D01*
X138204831Y-87191894D02*
X138080751Y-86392638D01*
X124186208Y-91884651D02*
X124599193Y-92432327D01*
X130766294Y-80219676D02*
X129999999Y-80187500D01*
X129999999Y-78087500D02*
X129028941Y-78140673D01*
X131419586Y-95136745D02*
X132110687Y-94958002D01*
X129999999Y-80537500D02*
X129269083Y-80578876D01*
X122559882Y-91081797D02*
X122902600Y-91793638D01*
X138548916Y-85406714D02*
X138248511Y-84583354D01*
X135959298Y-84018123D02*
X135536083Y-83456653D01*
X138050964Y-93379482D02*
X138534655Y-92561868D01*
X134820893Y-93874275D02*
X135369592Y-93369592D01*
X133667781Y-79145192D02*
X132780609Y-78833558D01*
X130850987Y-96640224D02*
X131692713Y-96509844D01*
X134627129Y-92627129D02*
X135054159Y-92147841D01*
X137159887Y-87294812D02*
X137050926Y-86597483D01*
X137925154Y-84717293D02*
X137560407Y-83958877D01*
X129319470Y-94909536D02*
X130000000Y-94937500D01*
X127778188Y-95324331D02*
X128507863Y-95501474D01*
X123022151Y-92662449D02*
X123516978Y-93320478D01*
X123604179Y-92273550D02*
X124058086Y-92876402D01*
X120696332Y-86149385D02*
X120565182Y-87070751D01*
X130713763Y-95246966D02*
X131419586Y-95136745D01*
X135806637Y-83234616D02*
X135307720Y-82692279D01*
X123325000Y-88000000D02*
X123362584Y-88653728D01*
X136811572Y-87329118D02*
X136707651Y-86665765D01*
X130679457Y-94898651D02*
X131351305Y-94793470D01*
X138248511Y-84583354D02*
X137869080Y-83793888D01*
X121667911Y-92453594D02*
X122149108Y-93245798D01*
X131867685Y-78610513D02*
X130937824Y-78478103D01*
X121311008Y-83355637D02*
X120902673Y-84231764D01*
X123187241Y-82408913D02*
X122676571Y-83106641D01*
X120525000Y-87999999D02*
X120576067Y-88928176D01*
X132618685Y-96632648D02*
X133450130Y-96329351D01*
X136991293Y-91736923D02*
X137318858Y-91031570D01*
X137200000Y-88000000D02*
X137159887Y-87294812D01*
X132517085Y-96297719D02*
X133316191Y-96005993D01*
X137910457Y-90399611D02*
X138102205Y-89611628D01*
X130000000Y-81237500D02*
X129337695Y-81275505D01*
X130645151Y-94550336D02*
X131283023Y-94450195D01*
X120902673Y-84231764D02*
X120582361Y-85143190D01*
X121618548Y-90542485D02*
X121913166Y-91349675D01*
X125001638Y-83001638D02*
X124540009Y-83519101D01*
X125349703Y-94959660D02*
X126056839Y-95377133D01*
X126482900Y-79508969D02*
X125670147Y-79899415D01*
X132646495Y-94389204D02*
X133257425Y-94094213D01*
X123351699Y-87345199D02*
X123325000Y-88000000D01*
X126386817Y-94759788D02*
X127068884Y-95076339D01*
X136541327Y-83629224D02*
X136077190Y-83012578D01*
X133836038Y-93741037D02*
X134376818Y-93333168D01*
X125290125Y-82261001D02*
X124754151Y-82754151D01*
X129028941Y-78140673D02*
X128068300Y-78288693D01*
X137560407Y-83958877D02*
X137123356Y-83240325D01*
X128576145Y-95158200D02*
X129285164Y-95257851D01*
X130000000Y-94937500D02*
X130679457Y-94898651D01*
X127068884Y-95076339D02*
X127778188Y-95324331D01*
X137177921Y-92796133D02*
X137608637Y-92066901D01*
X121261811Y-87139363D02*
X121225000Y-87999999D01*
X124754151Y-82754151D02*
X124269456Y-83297064D01*
X124869747Y-92210289D02*
X125310998Y-92689001D01*
X129063247Y-78488988D02*
X128136582Y-78631968D01*
X121976583Y-92288605D02*
X122440122Y-93051348D01*
X139218774Y-85203515D02*
X138895227Y-84315476D01*
X130834906Y-79523047D02*
X129999999Y-79487500D01*
X128098174Y-97561124D02*
X129045022Y-97696053D01*
X136570741Y-89993212D02*
X136729106Y-89338502D01*
X137072381Y-89406784D02*
X137170772Y-88706259D01*
X123596723Y-86057587D02*
X123442530Y-86695638D01*
X136545157Y-81454842D02*
X135868633Y-80849049D01*
X136682620Y-91571935D02*
X136995500Y-90897631D01*
X135202520Y-81660710D02*
X134553071Y-81185846D01*
X125734200Y-82802108D02*
X125249126Y-83249126D01*
X125933052Y-94086617D02*
X126551806Y-94451116D01*
X134553071Y-81185846D02*
X133860665Y-80777202D01*
X132780434Y-94712562D02*
X133422413Y-94402886D01*
X129999999Y-78787500D02*
X129097553Y-78837303D01*
X135060232Y-82939767D02*
X134536407Y-82472371D01*
X131907487Y-94288144D02*
X132512555Y-94065846D01*
X130782375Y-95943595D02*
X131556150Y-95823295D01*
%TD*%
M02*
