%TF.GenerationSoftware,KiCad,Pcbnew,10.0.5*%
%TF.CreationDate,2026-08-07T12:18:30-07:00*%
%TF.ProjectId,Transformer,5472616e-7366-46f7-926d-65722e6b6963,rev?*%
%TF.SameCoordinates,Original*%
%TF.FileFunction,Copper,L1,Top*%
%TF.FilePolarity,Positive*%
%FSLAX46Y46*%
G04 Gerber Fmt 4.6, Leading zero omitted, Abs format (unit mm)*
G04 Created by KiCad (PCBNEW 10.0.5) date 2026-08-07 12:18:30*
%MOMM*%
%LPD*%
G01*
G04 APERTURE LIST*
%TA.AperFunction,ViaPad*%
%ADD10C,0.600000*%
%TD*%
%TA.AperFunction,ViaPad*%
%ADD11C,3.000000*%
%TD*%
%TA.AperFunction,Conductor*%
%ADD12C,2.500000*%
%TD*%
G04 APERTURE END LIST*
D10*
%TO.N,*%
X66250000Y-62750000D03*
D11*
X73000000Y-103000000D03*
X79000000Y-59000000D03*
X105000000Y-97000000D03*
X80000000Y-63000000D03*
X48000000Y-100000000D03*
X48000000Y-63000000D03*
X47000000Y-67000000D03*
X73000000Y-66000000D03*
X73000000Y-97000000D03*
X47000000Y-96000000D03*
X47000000Y-104000000D03*
X73000000Y-60000000D03*
X79000000Y-67000000D03*
X105000000Y-103000000D03*
X80000000Y-100000000D03*
X47000000Y-59000000D03*
X79000000Y-96000000D03*
X79000000Y-104000000D03*
%TD*%
%TO.N,*%
D12*
X62467419Y-71133992D02*
X61658267Y-71336674D01*
X85989592Y-56989592D02*
X86607657Y-56429411D01*
X87277653Y-55932508D02*
X87993127Y-55503669D01*
X59166854Y-71459070D02*
X58341732Y-71336674D01*
X92000000Y-54500000D02*
X92833145Y-54540929D01*
X57532580Y-71133992D02*
X56747190Y-70852976D01*
X61658267Y-54663325D02*
X62467419Y-54866007D01*
X100459070Y-63833145D02*
X100336674Y-64658267D01*
X58341732Y-71336674D02*
X57532580Y-71133992D01*
X56747190Y-70852976D02*
X55993127Y-70496330D01*
X52503669Y-58993127D02*
X52932508Y-58277653D01*
X88747190Y-55147023D02*
X89532580Y-54866007D01*
X84932508Y-58277653D02*
X85429411Y-57607657D01*
X93658267Y-71336674D02*
X92833145Y-71459070D01*
X59166854Y-54540929D02*
X60000000Y-54500000D01*
X97392342Y-56429411D02*
X98010407Y-56989592D01*
X95252809Y-55147023D02*
X96006872Y-55503669D01*
X98010407Y-56989592D02*
X98570588Y-57607657D01*
X80496797Y-63000000D02*
X80000000Y-63000000D01*
X67852976Y-66252809D02*
X67496330Y-67006872D01*
X96722346Y-70067491D02*
X96006872Y-70496330D01*
X67067491Y-58277653D02*
X67496330Y-58993127D01*
X53989592Y-69010407D02*
X53429411Y-68392342D01*
X64722346Y-70067491D02*
X64006872Y-70496330D01*
X98010407Y-69010407D02*
X97392342Y-69570588D01*
X68459070Y-62166854D02*
X68500000Y-63000000D01*
X91166854Y-54540929D02*
X92000000Y-54500000D01*
X86607657Y-69570588D02*
X85989592Y-69010407D01*
X66570588Y-57607657D02*
X67067491Y-58277653D01*
X93658267Y-54663325D02*
X94467419Y-54866007D01*
X60000000Y-71500000D02*
X59166854Y-71459070D01*
X88747190Y-70852976D02*
X87993127Y-70496330D01*
X90341732Y-54663325D02*
X91166854Y-54540929D01*
X89532580Y-71133992D02*
X88747190Y-70852976D01*
X85429411Y-68392342D02*
X84932508Y-67722346D01*
X57532580Y-54866007D02*
X58341732Y-54663325D01*
X94467419Y-71133992D02*
X93658267Y-71336674D01*
X55993127Y-70496330D02*
X55277653Y-70067491D01*
X55993127Y-55503669D02*
X56747190Y-55147023D01*
X100133992Y-60532580D02*
X100336674Y-61341732D01*
X61658267Y-71336674D02*
X60833145Y-71459070D01*
X66010407Y-69010407D02*
X65392342Y-69570588D01*
X100336674Y-61341732D02*
X100459070Y-62166854D01*
X98570588Y-57607657D02*
X99067491Y-58277653D01*
X56747190Y-55147023D02*
X57532580Y-54866007D01*
X84503669Y-67006872D02*
X80496797Y-63000000D01*
X60000000Y-54500000D02*
X60833145Y-54540929D01*
X95252809Y-70852976D02*
X94467419Y-71133992D01*
X53429411Y-68392342D02*
X52932508Y-67722346D01*
X96722346Y-55932508D02*
X97392342Y-56429411D01*
X92833145Y-71459070D02*
X92000000Y-71500000D01*
X55277653Y-55932508D02*
X55993127Y-55503669D01*
X96006872Y-55503669D02*
X96722346Y-55932508D01*
X85429411Y-57607657D02*
X85989592Y-56989592D01*
X52503669Y-58993127D02*
X47016593Y-58993127D01*
X92000000Y-71500000D02*
X91166854Y-71459070D01*
X60833145Y-54540929D02*
X61658267Y-54663325D01*
X63252809Y-70852976D02*
X62467419Y-71133992D01*
X58341732Y-54663325D02*
X59166854Y-54540929D01*
X66010407Y-56989592D02*
X66570588Y-57607657D01*
X68459070Y-63833145D02*
X68336674Y-64658267D01*
X52932508Y-58277653D02*
X53429411Y-57607657D01*
X54607657Y-69570588D02*
X53989592Y-69010407D01*
X99496330Y-67006872D02*
X99067491Y-67722346D01*
X68336674Y-64658267D02*
X68133992Y-65467419D01*
X68500000Y-63000000D02*
X68459070Y-63833145D01*
X84503669Y-58993127D02*
X84932508Y-58277653D01*
X94467419Y-54866007D02*
X95252809Y-55147023D01*
X87993127Y-70496330D02*
X87277653Y-70067491D01*
X87277653Y-70067491D02*
X86607657Y-69570588D01*
X67852976Y-59747190D02*
X68133992Y-60532580D01*
X65392342Y-56429411D02*
X66010407Y-56989592D01*
X64006872Y-55503669D02*
X64722346Y-55932508D01*
X53989592Y-56989592D02*
X54607657Y-56429411D01*
X84503669Y-58993127D02*
X79016593Y-58993127D01*
X97392342Y-69570588D02*
X96722346Y-70067491D01*
X85989592Y-69010407D02*
X85429411Y-68392342D01*
X60833145Y-71459070D02*
X60000000Y-71500000D01*
X96006872Y-70496330D02*
X95252809Y-70852976D01*
X68336674Y-61341732D02*
X68459070Y-62166854D01*
X67067491Y-67722346D02*
X66570588Y-68392342D01*
X68133992Y-60532580D02*
X68336674Y-61341732D01*
X67496330Y-58993127D02*
X67852976Y-59747190D01*
X52503669Y-67006872D02*
X48848085Y-63351288D01*
X99852976Y-66252809D02*
X99496330Y-67006872D01*
X99067491Y-67722346D02*
X98570588Y-68392342D01*
X64006872Y-70496330D02*
X63252809Y-70852976D01*
X54607657Y-56429411D02*
X55277653Y-55932508D01*
X87993127Y-55503669D02*
X88747190Y-55147023D01*
X100500000Y-63000000D02*
X100459070Y-63833145D01*
X98570588Y-68392342D02*
X98010407Y-69010407D01*
X89532580Y-54866007D02*
X90341732Y-54663325D01*
X100336674Y-64658267D02*
X100133992Y-65467419D01*
X52932508Y-67722346D02*
X52503669Y-67006872D01*
X100459070Y-62166854D02*
X100500000Y-63000000D01*
X68133992Y-65467419D02*
X67852976Y-66252809D01*
X62467419Y-54866007D02*
X63252809Y-55147023D01*
X53429411Y-57607657D02*
X53989592Y-56989592D01*
X55277653Y-70067491D02*
X54607657Y-69570588D01*
X92833145Y-54540929D02*
X93658267Y-54663325D01*
X99496330Y-58993127D02*
X99852976Y-59747190D01*
X66570588Y-68392342D02*
X66010407Y-69010407D01*
X100133992Y-65467419D02*
X99852976Y-66252809D01*
X84932508Y-67722346D02*
X84503669Y-67006872D01*
X90341732Y-71336674D02*
X89532580Y-71133992D01*
X63252809Y-55147023D02*
X64006872Y-55503669D01*
X86607657Y-56429411D02*
X87277653Y-55932508D01*
X65392342Y-69570588D02*
X64722346Y-70067491D01*
X99852976Y-59747190D02*
X100133992Y-60532580D01*
X67496330Y-67006872D02*
X67067491Y-67722346D01*
X64722346Y-55932508D02*
X65392342Y-56429411D01*
X99067491Y-58277653D02*
X99496330Y-58993127D01*
X91166854Y-71459070D02*
X90341732Y-71336674D01*
X48848085Y-63351288D02*
G75*
G03*
X48000000Y-63000008I-848085J-848112D01*
G01*
X47016593Y-58993127D02*
G75*
G03*
X47000002Y-59000002I7J-23473D01*
G01*
%TD*%
M02*
