%TF.GenerationSoftware,KiCad,Pcbnew,10.0.5*%
%TF.CreationDate,2026-08-07T12:18:31-07:00*%
%TF.ProjectId,Transformer,5472616e-7366-46f7-926d-65722e6b6963,rev?*%
%TF.SameCoordinates,Original*%
%TF.FileFunction,Profile,NP*%
%FSLAX46Y46*%
G04 Gerber Fmt 4.6, Leading zero omitted, Abs format (unit mm)*
G04 Created by KiCad (PCBNEW 10.0.5) date 2026-08-07 12:18:31*
%MOMM*%
%LPD*%
G01*
G04 APERTURE LIST*
%TA.AperFunction,Profile*%
%ADD10C,0.050000*%
%TD*%
G04 APERTURE END LIST*
D10*
X75000000Y-45000000D02*
X45000000Y-45000000D01*
X45000000Y-81000000D01*
X71000000Y-81000000D01*
X71000000Y-83000000D01*
X45000000Y-83000000D01*
X45000000Y-119000000D01*
X75000000Y-119000000D01*
X75000000Y-87000000D01*
X77000000Y-87000000D01*
X77000000Y-119000000D01*
X107000000Y-119000000D01*
X107000000Y-83000000D01*
X81000000Y-83000000D01*
X81000000Y-81000000D01*
X107000000Y-81000000D01*
X107000000Y-45000000D01*
X77000000Y-45000000D01*
X77000000Y-77000000D01*
X75000000Y-77000000D01*
X75000000Y-45000000D01*
X50800000Y-55200000D02*
X50800000Y-50500000D01*
X50800000Y-55200000D02*
X52970776Y-55200000D01*
X50800000Y-70800000D02*
X50800000Y-75500000D01*
X50800000Y-70800000D02*
X52970776Y-70800000D01*
X50800000Y-93200000D02*
X50800000Y-88500000D01*
X50800000Y-93200000D02*
X52970776Y-93200000D01*
X50800000Y-108800000D02*
X50800000Y-113500000D01*
X50800000Y-108800000D02*
X52970776Y-108800000D01*
X52970776Y-55200000D02*
G75*
G02*
X67029224Y-55200000I7029224J-7799998D01*
G01*
X52970776Y-93200000D02*
G75*
G02*
X67029224Y-93200000I7029224J-7799998D01*
G01*
X65800000Y-63000000D02*
G75*
G02*
X54200000Y-63000000I-5800000J0D01*
G01*
X54200000Y-63000000D02*
G75*
G02*
X65800000Y-63000000I5800000J0D01*
G01*
X65800000Y-101000000D02*
G75*
G02*
X54200000Y-101000000I-5800000J0D01*
G01*
X54200000Y-101000000D02*
G75*
G02*
X65800000Y-101000000I5800000J0D01*
G01*
X67029224Y-70800000D02*
G75*
G02*
X52970776Y-70800000I-7029224J7799998D01*
G01*
X67029224Y-108800000D02*
G75*
G02*
X52970776Y-108800000I-7029224J7799998D01*
G01*
X69200000Y-50500000D02*
X50800000Y-50500000D01*
X69200000Y-55200000D02*
X67029224Y-55200000D01*
X69200000Y-55200000D02*
X69200000Y-50500000D01*
X69200000Y-70800000D02*
X67029224Y-70800000D01*
X69200000Y-70800000D02*
X69200000Y-75500000D01*
X69200000Y-75500000D02*
X50800000Y-75500000D01*
X69200000Y-88500000D02*
X50800000Y-88500000D01*
X69200000Y-93200000D02*
X67029224Y-93200000D01*
X69200000Y-93200000D02*
X69200000Y-88500000D01*
X69200000Y-108800000D02*
X67029224Y-108800000D01*
X69200000Y-108800000D02*
X69200000Y-113500000D01*
X69200000Y-113500000D02*
X50800000Y-113500000D01*
X82800000Y-55200000D02*
X82800000Y-50500000D01*
X82800000Y-55200000D02*
X84970776Y-55200000D01*
X82800000Y-70800000D02*
X82800000Y-75500000D01*
X82800000Y-70800000D02*
X84970776Y-70800000D01*
X82800000Y-93200000D02*
X82800000Y-88500000D01*
X82800000Y-93200000D02*
X84970776Y-93200000D01*
X82800000Y-108800000D02*
X82800000Y-113500000D01*
X82800000Y-108800000D02*
X84970776Y-108800000D01*
X84970776Y-55200000D02*
G75*
G02*
X99029224Y-55200000I7029224J-7799998D01*
G01*
X84970776Y-93200000D02*
G75*
G02*
X99029224Y-93200000I7029224J-7799998D01*
G01*
X97800000Y-63000000D02*
G75*
G02*
X86200000Y-63000000I-5800000J0D01*
G01*
X86200000Y-63000000D02*
G75*
G02*
X97800000Y-63000000I5800000J0D01*
G01*
X97800000Y-101000000D02*
G75*
G02*
X86200000Y-101000000I-5800000J0D01*
G01*
X86200000Y-101000000D02*
G75*
G02*
X97800000Y-101000000I5800000J0D01*
G01*
X99029224Y-70800000D02*
G75*
G02*
X84970776Y-70800000I-7029224J7799998D01*
G01*
X99029224Y-108800000D02*
G75*
G02*
X84970776Y-108800000I-7029224J7799998D01*
G01*
X101200000Y-50500000D02*
X82800000Y-50500000D01*
X101200000Y-55200000D02*
X99029224Y-55200000D01*
X101200000Y-55200000D02*
X101200000Y-50500000D01*
X101200000Y-70800000D02*
X99029224Y-70800000D01*
X101200000Y-70800000D02*
X101200000Y-75500000D01*
X101200000Y-75500000D02*
X82800000Y-75500000D01*
X101200000Y-88500000D02*
X82800000Y-88500000D01*
X101200000Y-93200000D02*
X99029224Y-93200000D01*
X101200000Y-93200000D02*
X101200000Y-88500000D01*
X101200000Y-108800000D02*
X99029224Y-108800000D01*
X101200000Y-108800000D02*
X101200000Y-113500000D01*
X101200000Y-113500000D02*
X82800000Y-113500000D01*
M02*
